<svg xmlns="http://www.w3.org/2000/svg" width="460" height="460" viewBox="0 0 460 460">
  <title>distant</title>
  <g id="Слой_6" data-name="Слой 6">
    <g>
      <circle cx="112.4894" cy="81.9575" r="81.9575"/>
      <path d="M168.2969,394a11,11,0,0,0,11,11H380.0931c.0273,0,.0549.0029.0822.0029.3531,0,.7031-.0225,1.0511-.0562.0772-.0074.1529-.019.23-.028.2553-.03.5086-.0682.76-.116q.1705-.0321.3391-.0693c.212-.0473.4213-.1023.63-.1619.1208-.0344.2425-.0659.3616-.1043.235-.076.4657-.1629.6945-.2543.1573-.0628.3116-.13.4652-.2.2012-.0911.4012-.1842.5965-.2872.1215-.0643.2386-.1346.3574-.2032.1689-.0973.3358-.1972.4993-.3034.1086-.0706.2152-.143.321-.2173.1773-.1241.35-.2543.52-.3889.0818-.0649.1647-.1282.2446-.1954q.3346-.2805.647-.588c.0217-.0215.0453-.0409.0668-.0625q.3636-.364.6938-.7635c.012-.0145.0226-.03.0346-.0448q.291-.3557.5524-.7387c.0522-.076.1-.1546.1507-.2319.1258-.1938.2468-.391.3609-.5941.0617-.1094.1208-.22.1788-.3317.09-.1736.1743-.35.2554-.53.0616-.136.123-.2716.1792-.4105.0649-.1608.1222-.3261.18-.4913.0543-.1551.1116-.3085.1591-.4667.0049-.0162.0115-.0314.0163-.0477L456.4,174.7549a11,11,0,1,0-21.0986-6.2324L371.95,383H179.2969A11,11,0,0,0,168.2969,394Z"/>
      <path d="M185.4258,416a22,22,0,1,0,0,44H460V416Z"/>
      <path d="M302.4578,343.7874a27.5,27.5,0,0,0-27.5-27.5H158.5213L154,310.0814V261.8026a77.2263,77.2263,0,0,0-77-77h0a77.2263,77.2263,0,0,0-77,77V460H154V382.2874h-9.468a38.6189,38.6189,0,0,1-31.1173-15.8295L64.7872,299.8085a5.5,5.5,0,0,1,1.2067-7.6839h0a5.5,5.5,0,0,1,7.684,1.2067l48.6275,66.6494a27.5,27.5,0,0,0,22.2265,11.3067H274.9578A27.5,27.5,0,0,0,302.4578,343.7874Z"/>
    </g>
  </g>
</svg>
