<svg id="pigge" xmlns="http://www.w3.org/2000/svg" width="459.998" height="460" viewBox="0 0 459.998 460">
  <title>low_cost</title>
  <path d="M449.1753,243.5024a10.9981,10.9981,0,0,0-11.1748,10.8223c-.1582,9.8681-5.1065,15.375-9.23,18.2573a22.7355,22.7355,0,0,1-8.2421,3.5628c-4.7416-54.1251-55.86-99.5079-125.9987-117.0742A58.0482,58.0482,0,0,0,262.0347,77.03a58.1028,58.1028,0,1,0-74.0791,36.7915,58.0416,58.0416,0,0,0,1.5592,40.4776,238.3813,238.3813,0,0,0-68.3571,20.7165l-.7477-.7678a50.27,50.27,0,0,0-36.0184-15.3208H45.3958c-10.5171,0-15.6589,13.1719-8.0539,20.632L70.08,211.6727C53.9082,228.9321,43.319,248.9658,40.12,270.531a4.329,4.329,0,0,1-3.929,3.6791L10.4468,276.501C5.84,276.501.01,282.2658.01,286.8723v36.48c0,8.2459,22.6469,13.5484,48.8944,26.2979,7.6559,3.7188,20.81,11.2682,31.9841,17.8474a169.8993,169.8993,0,0,0,19.4243,14.5607l-5.6611,61.0573A15.448,15.448,0,0,0,110.0338,459.99h27.0928a15.4479,15.4479,0,0,0,14.28-9.5561l16.5558-40.1255a266.7592,266.7592,0,0,0,62.0363,7.1926,264.9362,264.9362,0,0,0,68.5543-8.85l17.24,41.7833a15.4479,15.4479,0,0,0,14.28,9.556h27.0927a15.448,15.448,0,0,0,15.3821-16.8743l-6.0874-65.6552c29.2615-20.8566,48.7679-48.3906,53.3807-79.02a44.6768,44.6768,0,0,0,21.5324-7.8269c11.6-8.1074,18.3877-21.206,18.6236-35.9365A11,11,0,0,0,449.1753,243.5024ZM90.649,283.6716a14.17,14.17,0,1,1,14.17-14.17A14.17,14.17,0,0,1,90.649,283.6716Zm188.61-151.7024a35.9347,35.9347,0,0,1-8.1521,22.8226c-.1118.1367-.227.27-.3407.4053-.2857.3392-.5732.677-.8711,1.0054-.0557.0615-.1141.12-.17.1814a36.429,36.429,0,0,1-4.7834,4.3524c-.0941.0715-.1868.1448-.2817.2153-.3683.2741-.7438.5388-1.1226.799-.1259.0863-.2516.1728-.3786.2577q-.5568.372-1.1277.7236c-.138.0849-.2773.1678-.4165.2509-.3827.2288-.7684.4531-1.16.6679-.1342.0736-.2709.1431-.4062.215-.4067.2163-.8149.43-1.2306.6312-.0738.0355-.15.0676-.2236.1027a35.891,35.891,0,0,1-4.1452,1.6565c-.2344.0772-.4668.1587-.7032.2312-.3327.1023-.67.1936-1.0068.2865-.2875.0791-.5748.1586-.8651.2307-.3167.0789-.6359.1507-.9558.2212s-.6435.1374-.9678.1993c-.303.058-.607.1131-.9126.1634-.356.0585-.7146.1092-1.0741.1572-.2833.0379-.5661.0772-.8514.1085-.4123.045-.8282.0779-1.2447.1089-.24.018-.4786.0417-.72.055-.6337.0345-1.2713.0542-1.9133.0556-.0273,0-.054.0021-.0813.0021l-.0465-.0012c-.6985-.0009-1.391-.0266-2.08-.0666-.237-.0138-.4718-.0355-.7076-.054-.4691-.0365-.9359-.0805-1.4-.1347-.2693-.0316-.5379-.0651-.8054-.1027-.4393-.0614-.8749-.1339-1.3089-.211-.2587-.0461-.519-.0873-.7757-.1389q-.8955-.1794-1.7743-.4029c-.3139-.08-.6228-.1715-.9334-.26-.3656-.1034-.7311-.207-1.0919-.3215-.3385-.1077-.6731-.2242-1.0073-.3416q-.427-.15-.8493-.3091c-.3557-.1351-.71-.2729-1.06-.4188-.2336-.0971-.4635-.201-.6946-.3029a36.0487,36.0487,0,0,1-3.8655-1.9917c-.1354-.0805-.2724-.1584-.4066-.2406-.3917-.24-.7769-.4891-1.1585-.7434q-.2123-.1413-.4221-.2858c-.3882-.2666-.7731-.5374-1.15-.8185a1.6812,1.6812,0,0,0-1.1273-.5113,1.84,1.84,0,0,1-1.7842-1.4354,3.6046,3.6046,0,0,0-1.1651-1.5946q-.4824-.4858-.945-.9909c-.1222-.133-.2426-.2676-.3628-.4023-.3015-.3375-.6-.6776-.8892-1.0262-.05-.0608-.0992-.1229-.148-.1849-.5863-.7445-1.1664-1.4941-1.7087-2.2712-.0984-.141-.2007-.2791-.2968-.4218a36.0121,36.0121,0,0,1-2.8226-35.2175A57.9989,57.9989,0,0,0,250.9,96.709,36.1627,36.1627,0,0,1,279.2593,131.9692Zm-108.52-73.085A36.1066,36.1066,0,1,1,239.5325,74.2c-.3084.6571-.633,1.305-.9791,1.94-.1132.2072-.2383.4068-.3517.6139-.2774.5065-.5867.995-.8956,1.4829q-.1722.2719-.3493.5408c-.2879.4351-.5874.8614-.8934,1.283q-.3755.5166-.77,1.0181c-.2638.3378-.5309.6729-.8063,1.0009q-.3522.4189-.7166.827c-.2455.2751-.4983.5432-.7519.8107-.4376.4614-.889.9093-1.3488,1.3486-.2314.2211-.463.4418-.7009.6559-.2963.2667-.5989.5264-.904.7832-.2524.2125-.51.4194-.7676.6252-.5121.4084-1.0375.8-1.5692,1.182-.2658.1912-.532.3818-.8041.5645-.324.2176-.6549.4256-.9862.6328q-.438.2741-.8849.5348c-.3223.1891-.6433.38-.972.56q-.8235.4489-1.6724.8557c-.3047.1461-.6155.281-.9248.4187q-.5764.2564-1.163.4939c-.2971.12-.5938.2412-.8949.3535-.6347.2363-1.2762.4587-1.9273.66-.2841.088-.575.16-.86.2462-.4849.1467-.9781.2634-1.4708.381-.2316.0553-.4633.11-.6967.1607-.7225.1555-1.45.2962-2.1883.4078-.13.02-.2629.0318-.3936.05q-.9874.1383-1.992.2214c-.2187.0184-.4376.0357-.6574.05-.7888.0518-1.582.0877-2.384.0879l-.0108,0c-.0177,0-.035-.0014-.0527-.0014q-.95-.0014-1.8871-.0521c-.1218-.0065-.2417-.02-.3633-.0277-.53-.0342-1.0592-.0741-1.5831-.131-.093-.01-.1847-.0247-.2775-.0354-.55-.0642-1.0979-.1367-1.64-.2252-.08-.013-.1594-.0293-.2394-.0429-.5409-.0919-1.0783-.1936-1.6109-.3086A36.1635,36.1635,0,0,1,170.7388,58.8842ZM286.8716,202.48H173.4358a11.1951,11.1951,0,0,1-11.1656-9.1954A11.007,11.007,0,0,1,173.1265,180.48H211.22a57.9319,57.9319,0,0,0,63.8663,0h11.4762a11.1953,11.1953,0,0,1,11.1657,9.1954A11.007,11.007,0,0,1,286.8716,202.48Z"/>
</svg>
