<svg xmlns="http://www.w3.org/2000/svg" width="460" height="460" viewBox="0 0 460 460">
  <title>return guarantee</title>
  <g id="Слой_4" data-name="Слой 4">
    <path d="M454.09,255.4023l-7.1187-9.52a29.5183,29.5183,0,0,1-.2886-34.9695l6.9263-9.6142a29.6792,29.6792,0,0,0-10.5817-43.7353l-10.5816-5.5612a29.6935,29.6935,0,0,1-15.68-31.3876l2.02-11.5936c3.0783-17.72-10.4854-34.1211-28.8589-34.8752l-12.0247-.4713A30.5548,30.5548,0,0,1,349.8131,52.09l-3.367-11.3108c-5.0984-17.3433-24.53-26.2978-41.4607-19.1342l-11.0627,4.6186a30.9173,30.9173,0,0,1-34.8232-7.5406l-7.9843-8.7659a30.91,30.91,0,0,0-45.79.377l-7.8882,8.86a31.0134,31.0134,0,0,1-34.7269,8.0118l-11.1589-4.5243c-17.0267-6.8808-36.2661,2.4507-41.1721,19.794L107.205,53.8805A30.2447,30.2447,0,0,1,79.5,75.8424l-12.0246.66C49.1022,77.5391,35.8271,94.1283,39.194,111.8487l2.2125,11.5936a29.6838,29.6838,0,0,1-15.1991,31.5762l-10.4854,5.75A29.58,29.58,0,0,0,5.91,204.5977l7.1186,9.52a29.518,29.518,0,0,1,.2885,34.9694l-6.9261,9.6142a29.6792,29.6792,0,0,0,10.5816,43.7354l10.5816,5.5611a29.6937,29.6937,0,0,1,15.68,31.3877l-2.02,11.5935C38.1358,368.6994,51.7,385.1,70.0731,385.8542l12.0246.4713A30.555,30.555,0,0,1,110.1871,407.91l3.3669,11.3108c5.0984,17.3433,24.53,26.2978,41.4607,19.1342l11.0626-4.6186a30.9173,30.9173,0,0,1,34.8232,7.5406l7.9843,8.7659a30.9083,30.9083,0,0,0,45.79-.377l7.8882-8.86a31.0136,31.0136,0,0,1,34.727-8.0118l11.1588,4.5243c17.0268,6.8808,36.2663-2.4507,41.1723-19.794L352.795,406.12A30.2447,30.2447,0,0,1,380.5,384.1576l12.0245-.66c18.3736-1.0369,31.6487-17.6261,28.2819-35.3465l-2.2125-11.5936a29.6839,29.6839,0,0,1,15.199-31.5762l10.4855-5.75A29.5514,29.5514,0,0,0,454.09,255.4023ZM353.94,172.79,208.4073,318.3222a22,22,0,0,1-31.1133,0l-71.2334-71.2343a22,22,0,1,1,31.1133-31.1123l55.6768,55.6777L322.8262,141.6777A22,22,0,0,1,353.94,172.79Z"/>
  </g>
</svg>
