<svg xmlns="http://www.w3.org/2000/svg" width="460" height="460" viewBox="0 0 460 460">
  <title>sending_docs</title>
  <g id="Слой_5" data-name="Слой 5">
    <g>
      <path d="M394.2339,76.1417h55.7176L390.5609,9.98l-6.1088,55.1619A9.6574,9.6574,0,0,0,394.2339,76.1417Z"/>
      <path d="M393.3764,98.1417c-18.5693,0-32.3694-14.86-30.8233-33.1916L368.0311,0H184.5042c-22.8433,0-42.7531,18.2172-44.47,40.6892L111.1085,419.3109C109.3917,441.7828,126.2172,460,148.6892,460H387.3109c22.4719,0,42.29-18.2172,44.2652-40.6891l28.227-321.1692Zm-206.3967-22H325.3935a10.034,10.034,0,0,1,10.2337,11,12.2641,12.2641,0,0,1-12.061,11H185.26a10.0965,10.0965,0,0,1-10.2876-11A12.1827,12.1827,0,0,1,186.98,76.1416Zm198.6009,307.702h-222.65a10.0447,10.0447,0,0,1-10.1747-11,12.12,12.12,0,0,1,11.8941-11H387.4754a9.947,9.947,0,0,1,10.087,11A12.248,12.248,0,0,1,385.5806,383.8436Zm8.2134-95.3618H170.384a10.0619,10.0619,0,0,1-10.2124-11,12.1409,12.1409,0,0,1,11.9318-11H395.6889a9.964,9.964,0,0,1,10.1246,11A12.2688,12.2688,0,0,1,393.794,288.4818Zm8.2135-95.3616h-224.17a10.0791,10.0791,0,0,1-10.25-11,12.1617,12.1617,0,0,1,11.9694-11H403.9023a9.9811,9.9811,0,0,1,10.1623,11A12.29,12.29,0,0,1,402.0075,193.12Z"/>
    </g>
    <g>
      <path d="M100.6277,218.8084H30.4149a11,11,0,1,0,0,22h70.2128a11,11,0,0,0,0-22Z"/>
      <path d="M107.8085,123.8084H49.5957a11,11,0,1,0,0,22h58.2128a11,11,0,0,0,0-22Z"/>
      <path d="M93.2128,314.1276H11a11,11,0,0,0,0,22H93.2128a11,11,0,1,0,0-22Z"/>
    </g>
  </g>
</svg>
