<svg xmlns="http://www.w3.org/2000/svg" width="460" height="460" viewBox="0 0 460 460">
  <title>speed_learn_1</title>
  <g id="Слой_4" data-name="Слой 4">
    <g>
      <circle cx="350.3617" cy="45.6277" r="45.6277" transform="translate(174.1297 351.8587) rotate(-67.5)"/>
      <path d="M32.727,254.2555,177.4324,170.71,189.62,202.4284l-48.6066,6.599a21.4468,21.4468,0,0,0-18.3667,24.137h0a21.4469,21.4469,0,0,0,24.1371,18.3666l76.2774-10.3557a22.2765,22.2765,0,0,0,17.1314-29.8036l-16.1318-41.9843,51.3757-29.6618v36.902a16.5,16.5,0,0,0,16.5,16.5h47a16.5,16.5,0,0,0,0-33h-30.5V100.0638a16.4257,16.4257,0,0,0-1.3959-6.6285,33.0171,33.0171,0,0,0-3.3423-8.1316h0A32.8461,32.8461,0,0,0,292.7772,73.927c-.3374-.2592-.6756-.518-1.0379-.7544L244,42.0285c-.1392-.0907-.2849-.162-.4257-.248-.1619-.099-.326-.1928-.4911-.2861-.3119-.1763-.6254-.3448-.944-.4986-.1545-.0746-.3114-.143-.4682-.2129-.3365-.15-.6741-.2925-1.0165-.4182-.1559-.0573-.3143-.1071-.472-.16-.3462-.1152-.6927-.2248-1.0431-.316-.1772-.0464-.3569-.0833-.536-.1239-.333-.0748-.6657-.1463-1.0009-.2-.2143-.0347-.4306-.0577-.6469-.084-.3055-.0366-.61-.0717-.9163-.0911-.2451-.0158-.4917-.0189-.7386-.0237-.2845-.0052-.5682-.0094-.8521,0-.2576.0084-.5158.0288-.7745.05-.2809.0226-.5606.0477-.84.0845-.2531.0334-.5057.0768-.7592.1223-.2877.0516-.5734.1082-.8579.175-.1181.0277-.2361.042-.3541.0723l-52.412,13.4811a16.5,16.5,0,0,0-11.87,20.09h0a16.5,16.5,0,0,0,20.09,11.87l45.3835-11.6733,12.1359,7.9172L220.2034,95.4041a21.5845,21.5845,0,0,0-2.313,1.1405L10.727,216.1505a21.4466,21.4466,0,0,0-7.85,29.2968l.5532.9582A21.4468,21.4468,0,0,0,32.727,254.2555Z"/>
      <path d="M21.5532,137.5744H103.766a11,11,0,0,0,0-22H21.5532a11,11,0,0,0,0,22Z"/>
      <path d="M71.5532,52.2127H153.766a11,11,0,0,0,0-22H71.5532a11,11,0,0,0,0,22Z"/>
      <path d="M41.5532,94.8935H123.766a11,11,0,0,0,0-22H41.5532a11,11,0,1,0,0,22Z"/>
      <path d="M457.2793,252.5927l-72.6865-83.0849a11.0006,11.0006,0,0,0-19.2793,7.2431v29.9122h-93.292a11,11,0,0,0,0,22h104.292a11,11,0,0,0,11-11V206.0312l47.0713,53.8047-47.0713,53.8047V302.0088a11,11,0,0,0-11-11H309.7649a103.325,103.325,0,0,0-159.53,0H25.3828a11,11,0,1,0,0,22H136.346a103.319,103.319,0,1,0,187.308,0h41.6595v29.9121a11,11,0,0,0,19.2793,7.2431l72.6865-83.0849A11.0013,11.0013,0,0,0,457.2793,252.5927ZM197,426.7447a11,11,0,1,1,11-11A11,11,0,0,1,197,426.7447Zm33,0a11,11,0,1,1,11-11A11,11,0,0,1,230,426.7447Zm33,0a11,11,0,1,1,11-11A11,11,0,0,1,263,426.7447Zm9.7086-86.0859-38.66,38.0091a5.6739,5.6739,0,0,1-7.89.0465,5.3558,5.3558,0,0,1-.0476-7.7031l38.66-38.0091a5.6736,5.6736,0,0,1,7.89-.0464A5.3557,5.3557,0,0,1,272.7086,340.6588Zm33.78,21.1816H294.3462a5.1372,5.1372,0,1,1,0-10.2743h4.5658c-.081-1.0966-.18-2.1884-.3119-3.27a68.54,68.54,0,0,0-6.217-21.3083l-3.9758,2.2954a5.1371,5.1371,0,0,1-5.1371-8.8978l3.9918-2.3046a69.652,69.652,0,0,0-17.9029-18.1353l-2.3737,4.1114a5.1371,5.1371,0,1,1-8.8978-5.1371l2.4286-4.2064a68.5735,68.5735,0,0,0-24.6959-6.8556v4.5866a5.1372,5.1372,0,0,1-10.2743,0v-4.6825a68.58,68.58,0,0,0-24.9836,6.4446l2.3426,4.0575a5.1371,5.1371,0,1,1-8.8977,5.1371l-2.3824-4.1263a69.6557,69.6557,0,0,0-18.52,18.2844l4.0968,2.3653a5.1371,5.1371,0,1,1-5.1371,8.8977l-4.1553-2.399a68.5766,68.5766,0,0,0-6.783,25.0241h4.5274a5.1372,5.1372,0,1,1,0,10.2743H153.5115a5.1378,5.1378,0,0,1-5.1372-5.1372c0-.147.01-.2916.0221-.4355a81.6156,81.6156,0,0,1,163.2293.5547A5.1377,5.1377,0,0,1,306.4885,361.84Z"/>
    </g>
  </g>
</svg>
