<svg xmlns="http://www.w3.org/2000/svg" width="460" height="460" viewBox="0 0 460 460">
  <title>time</title>
  <g id="Слой_3" data-name="Слой 3">
    <g>
      <path d="M290.0743,300.3151a15.75,15.75,0,0,0-15.732-15.732h-33.464v31.464h33.464A15.75,15.75,0,0,0,290.0743,300.3151Z"/>
      <path d="M230,0C102.9745,0,0,102.9745,0,230S102.9745,460,230,460,460,357.0255,460,230,357.0255,0,230,0Zm0,438C115.1248,438,22,344.8752,22,230S115.1248,22,230,22s208,93.1247,208,208S344.8752,438,230,438Z"/>
    </g>
    <path d="M361.5219,98.4781A186,186,0,0,0,98.4781,361.5218,186,186,0,0,0,361.5219,98.4781ZM241.0152,230c0,.0949-.0139.1877-.0164.2823a10.9871,10.9871,0,0,1-16.4855,9.7879l-91.271-52.6954a11,11,0,0,1,11-19.0526l74.7728,43.17V72.3193a11,11,0,0,1,22,0Z"/>
  </g>
</svg>
