<svg xmlns="http://www.w3.org/2000/svg" width="450" height="150" viewBox="0 0 450 150">
  <title>Ресурс 2_1</title>
  <g id="Слой_2" data-name="Слой 2">
    <g id="Layer_2" data-name="Layer 2">
      <rect width="450" height="150" style="fill: #ffae00"/>
      <g>
        <polygon points="450 119.985 339.849 62.938 193.56 111.999 84.363 74.69 0 115.225 0 139.298 450 137.601 450 119.985" style="fill: #ff9100"/>
        <polygon points="228.722 103.123 289.974 93.316 231.744 121.147 307.433 117.694 333.729 83.893 341.433 98.827 338.134 67 228.722 103.123" style="fill: #ffae00"/>
        <polygon points="36.286 107.148 23.916 125.638 63.916 103.243 65.292 120.748 83.051 78.949 10.516 114.314 36.286 107.148" style="fill: #ffae00"/>
      </g>
      <g>
        <rect x="32.6533" y="128.3574" width="46.1729" height="2.46" style="fill: #662b13"/>
        <polygon points="55.847 86.959 44.46 91.156 34.789 100.983 34.789 128.357 76.906 128.357 76.906 100.983 67.858 91.156 55.847 86.959" style="fill: #ff1414"/>
        <rect x="55.4053" y="86.5273" width="0.8838" height="14.2383" style="fill: #f2f2f2"/>
        <rect x="54.1015" y="95.2931" width="16.2435" height="0.8839" transform="translate(-45.9101 59.0727) rotate(-38.2489)" style="fill: #f2f2f2"/>
        <rect x="49.1975" y="87.6133" width="0.8838" height="16.2437" transform="translate(-56.265 75.3994) rotate(-51.7233)" style="fill: #f2f2f2"/>
        <rect x="34.7886" y="99.9805" width="42.1172" height="1.2509" style="fill: #f2f2f2"/>
        <polygon points="55.847 86.959 44.46 91.156 34.789 100.983 34.789 106.365 44.46 96.537 55.847 92.341 67.858 96.537 76.906 106.365 76.906 100.983 67.858 91.156 55.847 86.959" style="opacity: 0.35000000000000003"/>
        <polygon points="55.839 85.116 43.192 89.777 31.328 102.012 32.672 103.315 44.239 91.387 55.856 87.105 68.117 91.389 79.101 103.438 80.47 102.16 69.17 89.774 55.839 85.116" style="fill: #582a1a"/>
        <rect x="46.1885" y="111.8564" width="19.4204" height="16.501" style="fill: #f2f2f2"/>
        <rect x="47.2354" y="112.8008" width="17.3266" height="15.5566" style="fill: #582a1a"/>
        <polygon points="47.235 112.801 47.235 113.639 63.628 128.357 64.562 128.357 64.562 127.52 48.169 112.801 47.235 112.801" style="fill: #3b1c11"/>
        <polygon points="47.235 127.424 47.235 128.357 48.073 128.357 64.562 113.734 64.562 112.801 63.724 112.801 47.235 127.424" style="fill: #3b1c11"/>
        <rect x="55.7168" y="112.8008" width="0.3638" height="15.5566" style="fill: #1c0d08"/>
      </g>
      <g>
        <rect x="102.7959" y="129.4248" width="26.1416" height="1.3926" style="fill: #662b13"/>
        <polygon points="115.928 105.986 109.48 108.362 104.005 113.927 104.005 129.425 127.85 129.425 127.85 113.927 122.728 108.362 115.928 105.986" style="fill: #ff1414"/>
        <rect x="115.6772" y="105.7422" width="0.5005" height="8.0605" style="fill: #f2f2f2"/>
        <rect x="114.9391" y="110.7045" width="9.1966" height="0.5006" transform="translate(-43.0228 97.7513) rotate(-38.224)" style="fill: #f2f2f2"/>
        <rect x="112.1627" y="106.3566" width="0.5005" height="9.1964" transform="translate(-44.3261 130.462) rotate(-51.7203)" style="fill: #f2f2f2"/>
        <rect x="104.0049" y="113.3584" width="23.8452" height="0.708" style="fill: #f2f2f2"/>
        <polygon points="115.928 105.986 109.48 108.362 104.005 113.927 104.005 116.974 109.48 111.409 115.928 109.033 122.728 111.409 127.85 116.974 127.85 113.927 122.728 108.362 115.928 105.986" style="opacity: 0.35000000000000003"/>
        <polygon points="115.923 104.943 108.763 107.582 102.045 114.509 102.807 115.246 109.355 108.493 115.933 106.069 122.874 108.494 129.093 115.315 129.868 114.593 123.47 107.58 115.923 104.943" style="fill: #582a1a"/>
        <rect x="110.459" y="120.082" width="10.9956" height="9.3428" style="fill: #f2f2f2"/>
        <rect x="111.0518" y="120.6172" width="9.81" height="8.8076" style="fill: #582a1a"/>
        <polygon points="111.052 120.617 111.052 121.092 120.332 129.425 120.862 129.425 120.862 128.95 111.581 120.617 111.052 120.617" style="fill: #3b1c11"/>
        <polygon points="111.052 128.896 111.052 129.425 111.526 129.425 120.862 121.146 120.862 120.617 120.387 120.617 111.052 128.896" style="fill: #3b1c11"/>
        <rect x="115.854" y="120.6172" width="0.2056" height="8.8076" style="fill: #1c0d08"/>
      </g>
      <g>
        <g>
          <path d="M30.895,132.2607l2.8853.2344s-1.3086-5.1933,0-13.8584A34.914,34.914,0,0,0,30.895,132.2607Z" style="fill: #2c7300"/>
          <path d="M18.5757,132.2607l2.8847.2344s-1.3081-5.1933,0-13.8584A34.9082,34.9082,0,0,0,18.5757,132.2607Z" style="fill: #2c7300"/>
          <path d="M11.0054,132.2607l2.8847.2344s-1.3081-5.1933,0-13.8584A34.9082,34.9082,0,0,0,11.0054,132.2607Z" style="fill: #2c7300"/>
          <path d="M3.4351,132.2607l2.8847.2344s-1.3086-5.1933,0-13.8584A34.9082,34.9082,0,0,0,3.4351,132.2607Z" style="fill: #2c7300"/>
          <path d="M34.2207,132.2607l2.8853.2344s-1.3086-5.1933,0-13.8584A34.914,34.914,0,0,0,34.2207,132.2607Z" style="fill: #2c7300"/>
          <path d="M43.3052,132.2607l2.8852.2344s-1.3086-5.1933,0-13.8584A34.9149,34.9149,0,0,0,43.3052,132.2607Z" style="fill: #2c7300"/>
          <path d="M50.8755,132.2607l2.8852.2344s-1.3086-5.1933,0-13.8584A34.9149,34.9149,0,0,0,50.8755,132.2607Z" style="fill: #2c7300"/>
          <path d="M58.4458,132.2607l2.8853.2344s-1.3086-5.1933,0-13.8584A34.914,34.914,0,0,0,58.4458,132.2607Z" style="fill: #2c7300"/>
          <path d="M67.53,132.2607l2.8852.2344s-1.3086-5.1933,0-13.8584A34.9149,34.9149,0,0,0,67.53,132.2607Z" style="fill: #2c7300"/>
          <path d="M75.1006,132.2607l2.8852.2344s-1.3086-5.1933,0-13.8584A34.9149,34.9149,0,0,0,75.1006,132.2607Z" style="fill: #2c7300"/>
          <path d="M82.6709,132.2607l2.8853.2344s-1.3086-5.1933,0-13.8584A34.914,34.914,0,0,0,82.6709,132.2607Z" style="fill: #2c7300"/>
          <path d="M91.7554,132.2607l2.8852.2344s-1.3086-5.1933,0-13.8584A34.9149,34.9149,0,0,0,91.7554,132.2607Z" style="fill: #2c7300"/>
          <path d="M99.3257,132.2607l2.8852.2344s-1.3086-5.1933,0-13.8584A34.9149,34.9149,0,0,0,99.3257,132.2607Z" style="fill: #2c7300"/>
          <path d="M106.896,132.2607l2.8853.2344s-1.3086-5.1933,0-13.8584A34.914,34.914,0,0,0,106.896,132.2607Z" style="fill: #2c7300"/>
          <path d="M114.4663,132.2607l2.8853.2344s-1.3086-5.1933,0-13.8584A34.914,34.914,0,0,0,114.4663,132.2607Z" style="fill: #2c7300"/>
          <path d="M123.5508,132.2607l2.8852.2344s-1.3086-5.1933,0-13.8584A34.9149,34.9149,0,0,0,123.5508,132.2607Z" style="fill: #2c7300"/>
          <path d="M131.1211,132.2607l2.8852.2344s-1.3085-5.1933,0-13.8584A34.9149,34.9149,0,0,0,131.1211,132.2607Z" style="fill: #2c7300"/>
          <path d="M138.6914,132.2607l2.8853.2344s-1.3086-5.1933,0-13.8584A34.914,34.914,0,0,0,138.6914,132.2607Z" style="fill: #2c7300"/>
          <path d="M146.2617,132.2607l2.8853.2344s-1.3086-5.1933,0-13.8584A34.914,34.914,0,0,0,146.2617,132.2607Z" style="fill: #2c7300"/>
          <path d="M155.3462,132.2607l2.8852.2344s-1.3085-5.1933,0-13.8584A34.9149,34.9149,0,0,0,155.3462,132.2607Z" style="fill: #2c7300"/>
          <path d="M162.9165,132.2607l2.8853.2344s-1.3086-5.1933,0-13.8584A34.914,34.914,0,0,0,162.9165,132.2607Z" style="fill: #2c7300"/>
          <path d="M170.4868,132.2607l2.8853.2344s-1.3086-5.1933,0-13.8584A34.914,34.914,0,0,0,170.4868,132.2607Z" style="fill: #2c7300"/>
          <path d="M178.0571,132.2607l2.8853.2344s-1.3086-5.1933,0-13.8584A34.914,34.914,0,0,0,178.0571,132.2607Z" style="fill: #2c7300"/>
          <path d="M187.1416,132.2607l2.8853.2344s-1.3086-5.1933,0-13.8584A34.914,34.914,0,0,0,187.1416,132.2607Z" style="fill: #2c7300"/>
          <path d="M194.7119,132.2607l2.8853.2344s-1.3086-5.1933,0-13.8584A34.914,34.914,0,0,0,194.7119,132.2607Z" style="fill: #2c7300"/>
          <path d="M202.2822,132.2607l2.8853.2344s-1.3086-5.1933,0-13.8584A34.914,34.914,0,0,0,202.2822,132.2607Z" style="fill: #2c7300"/>
          <path d="M209.8525,132.2607l2.8853.2344s-1.3086-5.1933,0-13.8584A34.9162,34.9162,0,0,0,209.8525,132.2607Z" style="fill: #2c7300"/>
          <path d="M218.937,132.2607l2.8853.2344s-1.3086-5.1933,0-13.8584A34.914,34.914,0,0,0,218.937,132.2607Z" style="fill: #2c7300"/>
          <path d="M64.1357,132.2607l2.8848.2344s-1.3081-5.1933,0-13.8584A34.91,34.91,0,0,0,64.1357,132.2607Z" style="fill: #2c7300"/>
          <path d="M86.8467,132.2607l2.8852.2344s-1.3086-5.1933,0-13.8584A34.9038,34.9038,0,0,0,86.8467,132.2607Z" style="fill: #2c7300"/>
          <path d="M111.0718,132.2607l2.8852.2344s-1.3086-5.1933,0-13.8584A34.9038,34.9038,0,0,0,111.0718,132.2607Z" style="fill: #2c7300"/>
          <path d="M142.8672,132.2607l2.8848.2344s-1.3082-5.1933,0-13.8584A34.9073,34.9073,0,0,0,142.8672,132.2607Z" style="fill: #2c7300"/>
          <path d="M174.6626,132.2607l2.8848.2344s-1.3081-5.1933,0-13.8584A34.9073,34.9073,0,0,0,174.6626,132.2607Z" style="fill: #2c7300"/>
          <path d="M206.458,132.2607l2.8848.2344s-1.3081-5.1933,0-13.8584A34.9073,34.9073,0,0,0,206.458,132.2607Z" style="fill: #2c7300"/>
          <path d="M211.3,132.3037l4.1733.1914s-1.8925-4.2314,0-11.291C210.9307,127.2559,211.3,132.3037,211.3,132.3037Z" style="fill: #338500"/>
          <path d="M208.2109,132.3037l2.72.1914s-1.2334-4.2314,0-11.291A25.0636,25.0636,0,0,0,208.2109,132.3037Z" style="fill: #338500"/>
          <path d="M203.6689,132.3037l2.72.1914s-1.2334-4.2314,0-11.291A25.0636,25.0636,0,0,0,203.6689,132.3037Z" style="fill: #338500"/>
          <path d="M200.6406,132.3037l2.72.1914s-1.2334-4.2314,0-11.291A25.0636,25.0636,0,0,0,200.6406,132.3037Z" style="fill: #338500"/>
          <path d="M196.0986,132.3037l2.72.1914s-1.2334-4.2314,0-11.291A25.0636,25.0636,0,0,0,196.0986,132.3037Z" style="fill: #338500"/>
          <path d="M193.07,132.3037l2.72.1914s-1.2334-4.2314,0-11.291A25.0642,25.0642,0,0,0,193.07,132.3037Z" style="fill: #338500"/>
          <path d="M188.5278,132.3037l2.72.1914s-1.2334-4.2314,0-11.291A25.07,25.07,0,0,0,188.5278,132.3037Z" style="fill: #338500"/>
          <path d="M185.5,132.3037l2.72.1914s-1.2334-4.2314,0-11.291A25.0642,25.0642,0,0,0,185.5,132.3037Z" style="fill: #338500"/>
          <path d="M179.4434,132.3037l2.72.1914s-1.2334-4.2314,0-11.291A25.0678,25.0678,0,0,0,179.4434,132.3037Z" style="fill: #338500"/>
          <path d="M176.4155,132.3037l2.72.1914s-1.2334-4.2314,0-11.291A25.0636,25.0636,0,0,0,176.4155,132.3037Z" style="fill: #338500"/>
          <path d="M173.3872,132.3037l2.72.1914s-1.2334-4.2314,0-11.291A25.07,25.07,0,0,0,173.3872,132.3037Z" style="fill: #338500"/>
          <path d="M168.8452,132.3037l2.72.1914s-1.2334-4.2314,0-11.291A25.0642,25.0642,0,0,0,168.8452,132.3037Z" style="fill: #338500"/>
          <path d="M164.3027,132.3037l2.72.1914s-1.2333-4.2314,0-11.291A25.07,25.07,0,0,0,164.3027,132.3037Z" style="fill: #338500"/>
          <path d="M161.2749,132.3037l2.72.1914s-1.2334-4.2314,0-11.291A25.0642,25.0642,0,0,0,161.2749,132.3037Z" style="fill: #338500"/>
          <path d="M156.7324,132.3037l2.72.1914s-1.2334-4.2314,0-11.291A25.07,25.07,0,0,0,156.7324,132.3037Z" style="fill: #338500"/>
          <path d="M171.873,132.3037l2.72.1914s-1.2334-4.2314,0-11.291A25.0688,25.0688,0,0,0,171.873,132.3037Z" style="fill: #338500"/>
          <path d="M180.9575,132.3037l2.72.1914s-1.2334-4.2314,0-11.291A25.07,25.07,0,0,0,180.9575,132.3037Z" style="fill: #338500"/>
          <path d="M205.1826,132.3037l2.72.1914s-1.2339-4.2314,0-11.291A25.07,25.07,0,0,0,205.1826,132.3037Z" style="fill: #338500"/>
          <path d="M217.2954,132.3037l2.72.1914s-1.2334-4.2314,0-11.291A25.0642,25.0642,0,0,0,217.2954,132.3037Z" style="fill: #338500"/>
          <path d="M220.3232,132.3037l2.72.1914s-1.2334-4.2314,0-11.291A25.0688,25.0688,0,0,0,220.3232,132.3037Z" style="fill: #338500"/>
          <path d="M153.7046,132.3037l2.72.1914s-1.2334-4.2314,0-11.291A25.0642,25.0642,0,0,0,153.7046,132.3037Z" style="fill: #338500"/>
          <path d="M149.1621,132.3037l2.72.1914s-1.2334-4.2314,0-11.291A25.07,25.07,0,0,0,149.1621,132.3037Z" style="fill: #338500"/>
          <path d="M144.62,132.3037l2.72.1914s-1.2334-4.2314,0-11.291A25.0642,25.0642,0,0,0,144.62,132.3037Z" style="fill: #338500"/>
          <path d="M140.0781,132.3037l2.72.1914s-1.2334-4.2314,0-11.291A25.0636,25.0636,0,0,0,140.0781,132.3037Z" style="fill: #338500"/>
          <path d="M137.05,132.3037l2.72.1914s-1.2334-4.2314,0-11.291A25.0642,25.0642,0,0,0,137.05,132.3037Z" style="fill: #338500"/>
          <path d="M132.5073,132.3037l2.72.1914s-1.2334-4.2314,0-11.291A25.07,25.07,0,0,0,132.5073,132.3037Z" style="fill: #338500"/>
          <path d="M127.9653,132.3037l2.72.1914s-1.2334-4.2314,0-11.291A25.0636,25.0636,0,0,0,127.9653,132.3037Z" style="fill: #338500"/>
          <path d="M124.937,132.3037l2.72.1914s-1.2334-4.2314,0-11.291A25.07,25.07,0,0,0,124.937,132.3037Z" style="fill: #338500"/>
          <path d="M129.48,132.3037l2.72.1914s-1.2334-4.2314,0-11.291A25.0642,25.0642,0,0,0,129.48,132.3037Z" style="fill: #338500"/>
          <path d="M121.9092,132.3037l2.72.1914s-1.2334-4.2314,0-11.291A25.0642,25.0642,0,0,0,121.9092,132.3037Z" style="fill: #338500"/>
          <path d="M117.3667,132.3037l2.72.1914s-1.2334-4.2314,0-11.291A25.07,25.07,0,0,0,117.3667,132.3037Z" style="fill: #338500"/>
          <path d="M112.8247,132.3037l2.72.1914s-1.2334-4.2314,0-11.291A25.0642,25.0642,0,0,0,112.8247,132.3037Z" style="fill: #338500"/>
          <path d="M108.2827,132.3037l2.72.1914s-1.2334-4.2314,0-11.291A25.0642,25.0642,0,0,0,108.2827,132.3037Z" style="fill: #338500"/>
          <path d="M105.2544,132.3037l2.72.1914s-1.2334-4.2314,0-11.291A25.0642,25.0642,0,0,0,105.2544,132.3037Z" style="fill: #338500"/>
          <path d="M100.7119,132.3037l2.72.1914s-1.2334-4.2314,0-11.291A25.07,25.07,0,0,0,100.7119,132.3037Z" style="fill: #338500"/>
          <path d="M97.6841,132.3037l2.72.1914s-1.2334-4.2314,0-11.291A25.0642,25.0642,0,0,0,97.6841,132.3037Z" style="fill: #338500"/>
          <path d="M93.1416,132.3037l2.72.1914s-1.2334-4.2314,0-11.291A25.07,25.07,0,0,0,93.1416,132.3037Z" style="fill: #338500"/>
          <path d="M90.1138,132.3037l2.72.1914s-1.2334-4.2314,0-11.291A25.0625,25.0625,0,0,0,90.1138,132.3037Z" style="fill: #338500"/>
          <path d="M84.0576,132.3037l2.72.1914s-1.2334-4.2314,0-11.291A25.0642,25.0642,0,0,0,84.0576,132.3037Z" style="fill: #338500"/>
          <path d="M79.5151,132.3037l2.72.1914s-1.2334-4.2314,0-11.291A25.0636,25.0636,0,0,0,79.5151,132.3037Z" style="fill: #338500"/>
          <path d="M76.4873,132.3037l2.72.1914s-1.2334-4.2314,0-11.291A25.0642,25.0642,0,0,0,76.4873,132.3037Z" style="fill: #338500"/>
          <path d="M81.0293,132.3037l2.72.1914s-1.2334-4.2314,0-11.291A25.0642,25.0642,0,0,0,81.0293,132.3037Z" style="fill: #338500"/>
          <path d="M73.459,132.3037l2.72.1914s-1.2334-4.2314,0-11.291A25.0642,25.0642,0,0,0,73.459,132.3037Z" style="fill: #338500"/>
          <path d="M68.9165,132.3037l2.72.1914s-1.2334-4.2314,0-11.291A25.07,25.07,0,0,0,68.9165,132.3037Z" style="fill: #338500"/>
          <path d="M65.8887,132.3037l2.72.1914s-1.2334-4.2314,0-11.291A25.0625,25.0625,0,0,0,65.8887,132.3037Z" style="fill: #338500"/>
          <path d="M61.3462,132.3037l2.72.1914s-1.2334-4.2314,0-11.291A25.07,25.07,0,0,0,61.3462,132.3037Z" style="fill: #338500"/>
          <path d="M55.29,132.3037l2.72.1914s-1.2334-4.2314,0-11.291A25.072,25.072,0,0,0,55.29,132.3037Z" style="fill: #338500"/>
          <path d="M56.8042,132.3037l2.72.1914s-1.2334-4.2314,0-11.291A25.0642,25.0642,0,0,0,56.8042,132.3037Z" style="fill: #338500"/>
          <path d="M55.29,132.3037l2.72.1914s-1.2334-4.2314,0-11.291A25.072,25.072,0,0,0,55.29,132.3037Z" style="fill: #338500"/>
          <path d="M52.2622,132.3037l2.72.1914s-1.2334-4.2314,0-11.291A25.0642,25.0642,0,0,0,52.2622,132.3037Z" style="fill: #338500"/>
          <path d="M49.2339,132.3037l2.72.1914s-1.2334-4.2314,0-11.291A25.0642,25.0642,0,0,0,49.2339,132.3037Z" style="fill: #338500"/>
          <path d="M44.6919,132.3037l2.72.1914s-1.2334-4.2314,0-11.291A25.0642,25.0642,0,0,0,44.6919,132.3037Z" style="fill: #338500"/>
          <path d="M41.6636,132.3037l2.72.1914s-1.2334-4.2314,0-11.291A25.0642,25.0642,0,0,0,41.6636,132.3037Z" style="fill: #338500"/>
          <path d="M37.1211,132.3037l2.72.1914s-1.2334-4.2314,0-11.291A25.07,25.07,0,0,0,37.1211,132.3037Z" style="fill: #338500"/>
          <path d="M32.5791,132.3037l2.72.1914s-1.2334-4.2314,0-11.291A25.0642,25.0642,0,0,0,32.5791,132.3037Z" style="fill: #338500"/>
          <path d="M29.5508,132.3037l2.72.1914s-1.2334-4.2314,0-11.291A25.0678,25.0678,0,0,0,29.5508,132.3037Z" style="fill: #338500"/>
          <path d="M25.0088,132.3037l2.72.1914s-1.2334-4.2314,0-11.291A25.0642,25.0642,0,0,0,25.0088,132.3037Z" style="fill: #338500"/>
          <path d="M20.4668,132.3037l2.72.1914s-1.2334-4.2314,0-11.291A25.0642,25.0642,0,0,0,20.4668,132.3037Z" style="fill: #338500"/>
          <path d="M15.9243,132.3037l2.72.1914s-1.2339-4.2314,0-11.291A25.0611,25.0611,0,0,0,15.9243,132.3037Z" style="fill: #338500"/>
          <path d="M12.896,132.3037l2.72.1914s-1.2334-4.2314,0-11.291A25.07,25.07,0,0,0,12.896,132.3037Z" style="fill: #338500"/>
          <path d="M5.3257,132.3037l2.72.1914s-1.2334-4.2314,0-11.291A25.0678,25.0678,0,0,0,5.3257,132.3037Z" style="fill: #338500"/>
          <path d="M.7837,132.3037l2.72.1914s-1.2334-4.2314,0-11.291A25.0642,25.0642,0,0,0,.7837,132.3037Z" style="fill: #338500"/>
          <path d="M221.8247,132.3037l4.1729.1914s-1.8926-4.2314,0-11.291C221.4556,127.2559,221.8247,132.3037,221.8247,132.3037Z" style="fill: #378f00"/>
          <path d="M190.0293,132.3037l4.1728.1914s-1.8925-4.2314,0-11.291C189.66,127.2559,190.0293,132.3037,190.0293,132.3037Z" style="fill: #378f00"/>
          <path d="M158.2339,132.3037l4.1728.1914s-1.8925-4.2314,0-11.291C157.8647,127.2559,158.2339,132.3037,158.2339,132.3037Z" style="fill: #378f00"/>
          <path d="M126.4385,132.3037l4.1728.1914s-1.8925-4.2314,0-11.291C126.0693,127.2559,126.4385,132.3037,126.4385,132.3037Z" style="fill: #378f00"/>
          <path d="M94.6431,132.3037l4.1728.1914s-1.8926-4.2314,0-11.291C94.2739,127.2559,94.6431,132.3037,94.6431,132.3037Z" style="fill: #378f00"/>
          <path d="M77.9883,132.3037l4.1733.1914s-1.893-4.2314,0-11.291C77.6191,127.2559,77.9883,132.3037,77.9883,132.3037Z" style="fill: #378f00"/>
          <path d="M46.1929,132.3037l4.1733.1914s-1.8926-4.2314,0-11.291C45.8237,127.2559,46.1929,132.3037,46.1929,132.3037Z" style="fill: #378f00"/>
          <path d="M14.3975,132.3037l4.1733.1914s-1.8926-4.2314,0-11.291C14.0283,127.2559,14.3975,132.3037,14.3975,132.3037Z" style="fill: #378f00"/>
          <path d="M214.2544,132.3037l4.1728.1914s-1.8925-4.2314,0-11.291C213.8853,127.2559,214.2544,132.3037,214.2544,132.3037Z" style="fill: #378f00"/>
          <path d="M182.459,132.3037l4.1728.1914s-1.8925-4.2314,0-11.291C182.09,127.2559,182.459,132.3037,182.459,132.3037Z" style="fill: #378f00"/>
          <path d="M150.6636,132.3037l4.1728.1914s-1.8926-4.2314,0-11.291C150.2944,127.2559,150.6636,132.3037,150.6636,132.3037Z" style="fill: #378f00"/>
          <path d="M118.8682,132.3037l4.1728.1914s-1.8926-4.2314,0-11.291C118.499,127.2559,118.8682,132.3037,118.8682,132.3037Z" style="fill: #378f00"/>
          <path d="M87.0728,132.3037l4.1728.1914s-1.8926-4.2314,0-11.291C86.7036,127.2559,87.0728,132.3037,87.0728,132.3037Z" style="fill: #378f00"/>
          <path d="M70.418,132.3037l4.1728.1914s-1.8926-4.2314,0-11.291C70.0488,127.2559,70.418,132.3037,70.418,132.3037Z" style="fill: #378f00"/>
          <path d="M38.6226,132.3037l4.1728.1914s-1.8926-4.2314,0-11.291C38.2534,127.2559,38.6226,132.3037,38.6226,132.3037Z" style="fill: #378f00"/>
          <path d="M26.291,132.3037l4.1729.1914s-1.8926-4.2314,0-11.291C25.9219,127.2559,26.291,132.3037,26.291,132.3037Z" style="fill: #378f00"/>
          <path d="M6.8272,132.3037,11,132.4951s-1.8926-4.2314,0-11.291C6.458,127.2559,6.8272,132.3037,6.8272,132.3037Z" style="fill: #378f00"/>
          <path d="M197.7422,132.3037l4.1733.1914s-1.8926-4.2314,0-11.291C197.373,127.2559,197.7422,132.3037,197.7422,132.3037Z" style="fill: #378f00"/>
          <path d="M165.9468,132.3037l4.1733.1914s-1.8926-4.2314,0-11.291C165.5781,127.2559,165.9468,132.3037,165.9468,132.3037Z" style="fill: #378f00"/>
          <path d="M134.1514,132.3037l4.1733.1914s-1.8926-4.2314,0-11.291C133.7822,127.2559,134.1514,132.3037,134.1514,132.3037Z" style="fill: #378f00"/>
          <path d="M102.356,132.3037l4.1733.1914s-1.8926-4.2314,0-11.291C101.9868,127.2559,102.356,132.3037,102.356,132.3037Z" style="fill: #378f00"/>
          <path d="M70.5605,132.3037l4.1734.1914s-1.8926-4.2314,0-11.291C70.1914,127.2559,70.5605,132.3037,70.5605,132.3037Z" style="fill: #378f00"/>
          <path d="M53.9058,132.3037l4.1733.1914s-1.8926-4.2314,0-11.291C53.5371,127.2559,53.9058,132.3037,53.9058,132.3037Z" style="fill: #378f00"/>
          <path d="M22.11,132.3037l4.1733.1914s-1.8926-4.2314,0-11.291C21.7417,127.2559,22.11,132.3037,22.11,132.3037Z" style="fill: #378f00"/>
          <path d="M2.437,121.2041A23.2148,23.2148,0,0,0,0,125.2227v7.1611l2.437.1113S.5444,128.2637,2.437,121.2041Z" style="fill: #378f00"/>
        </g>
        <path d="M263.5566,132.2607l2.8848.2344s-1.3076-5.1933,0-13.8584A34.9206,34.9206,0,0,0,263.5566,132.2607Z" style="fill: #2c7300"/>
        <path d="M251.2373,132.2607l2.8848.2344s-1.3086-5.1933,0-13.8584A34.9184,34.9184,0,0,0,251.2373,132.2607Z" style="fill: #2c7300"/>
        <path d="M243.667,132.2607l2.8848.2344s-1.3086-5.1933,0-13.8584A34.9184,34.9184,0,0,0,243.667,132.2607Z" style="fill: #2c7300"/>
        <path d="M236.0967,132.2607l2.8847.2344s-1.3085-5.1933,0-13.8584A34.8971,34.8971,0,0,0,236.0967,132.2607Z" style="fill: #2c7300"/>
        <path d="M227.5166,132.2607l2.8857.2344s-1.3085-5.1933,0-13.8584A34.91,34.91,0,0,0,227.5166,132.2607Z" style="fill: #2c7300"/>
        <path d="M266.8828,132.2607l2.8848.2344s-1.3086-5.1933,0-13.8584A34.8984,34.8984,0,0,0,266.8828,132.2607Z" style="fill: #2c7300"/>
        <path d="M275.9668,132.2607l2.8857.2344s-1.3086-5.1933,0-13.8584A34.91,34.91,0,0,0,275.9668,132.2607Z" style="fill: #2c7300"/>
        <path d="M283.5371,132.2607l2.8858.2344s-1.3086-5.1933,0-13.8584A34.91,34.91,0,0,0,283.5371,132.2607Z" style="fill: #2c7300"/>
        <path d="M291.1074,132.2607l2.8858.2344s-1.3086-5.1933,0-13.8584A34.91,34.91,0,0,0,291.1074,132.2607Z" style="fill: #2c7300"/>
        <path d="M300.1924,132.2607l2.8847.2344s-1.3085-5.1933,0-13.8584A34.9192,34.9192,0,0,0,300.1924,132.2607Z" style="fill: #2c7300"/>
        <path d="M307.7627,132.2607l2.8848.2344s-1.3086-5.1933,0-13.8584A34.8962,34.8962,0,0,0,307.7627,132.2607Z" style="fill: #2c7300"/>
        <path d="M315.333,132.2607l2.8848.2344s-1.3086-5.1933,0-13.8584A34.8962,34.8962,0,0,0,315.333,132.2607Z" style="fill: #2c7300"/>
        <path d="M324.417,132.2607l2.8848.2344s-1.3077-5.1933,0-13.8584A34.9184,34.9184,0,0,0,324.417,132.2607Z" style="fill: #2c7300"/>
        <path d="M331.9873,132.2607l2.8857.2344s-1.3085-5.1933,0-13.8584A34.91,34.91,0,0,0,331.9873,132.2607Z" style="fill: #2c7300"/>
        <path d="M339.5576,132.2607l2.8858.2344s-1.3086-5.1933,0-13.8584A34.91,34.91,0,0,0,339.5576,132.2607Z" style="fill: #2c7300"/>
        <path d="M347.1279,132.2607l2.8858.2344s-1.3086-5.1933,0-13.8584A34.91,34.91,0,0,0,347.1279,132.2607Z" style="fill: #2c7300"/>
        <path d="M356.2129,132.2607l2.8848.2344s-1.3086-5.1933,0-13.8584A34.8962,34.8962,0,0,0,356.2129,132.2607Z" style="fill: #2c7300"/>
        <path d="M363.7832,132.2607l2.8848.2344s-1.3086-5.1933,0-13.8584A34.8962,34.8962,0,0,0,363.7832,132.2607Z" style="fill: #2c7300"/>
        <path d="M371.3535,132.2607l2.8848.2344s-1.3086-5.1933,0-13.8584A34.8984,34.8984,0,0,0,371.3535,132.2607Z" style="fill: #2c7300"/>
        <path d="M378.9238,132.2607l2.8848.2344s-1.3086-5.1933,0-13.8584A34.9184,34.9184,0,0,0,378.9238,132.2607Z" style="fill: #2c7300"/>
        <path d="M388.0078,132.2607l2.8858.2344s-1.3086-5.1933,0-13.8584A34.91,34.91,0,0,0,388.0078,132.2607Z" style="fill: #2c7300"/>
        <path d="M395.5781,132.2607l2.8848.2344s-1.3076-5.1933,0-13.8584A34.9184,34.9184,0,0,0,395.5781,132.2607Z" style="fill: #2c7300"/>
        <path d="M403.1484,132.2607l2.8858.2344s-1.3086-5.1933,0-13.8584A34.9118,34.9118,0,0,0,403.1484,132.2607Z" style="fill: #2c7300"/>
        <path d="M410.7188,132.2607l2.8857.2344s-1.3086-5.1933,0-13.8584A34.91,34.91,0,0,0,410.7188,132.2607Z" style="fill: #2c7300"/>
        <path d="M419.8037,132.2607l2.8848.2344s-1.3086-5.1933,0-13.8584A34.8984,34.8984,0,0,0,419.8037,132.2607Z" style="fill: #2c7300"/>
        <path d="M427.374,132.2607l2.8848.2344s-1.3086-5.1933,0-13.8584A34.8984,34.8984,0,0,0,427.374,132.2607Z" style="fill: #2c7300"/>
        <path d="M434.9443,132.2607l2.8848.2344s-1.3086-5.1933,0-13.8584A34.8984,34.8984,0,0,0,434.9443,132.2607Z" style="fill: #2c7300"/>
        <path d="M442.5146,132.2607l2.8848.2344s-1.3086-5.1933,0-13.8584A34.9206,34.9206,0,0,0,442.5146,132.2607Z" style="fill: #2c7300"/>
        <path d="M296.7969,132.2607l2.8857.2344s-1.3086-5.1933,0-13.8584A34.91,34.91,0,0,0,296.7969,132.2607Z" style="fill: #2c7300"/>
        <path d="M319.5078,132.2607l2.8858.2344s-1.3086-5.1933,0-13.8584A34.91,34.91,0,0,0,319.5078,132.2607Z" style="fill: #2c7300"/>
        <path d="M343.7334,132.2607l2.8848.2344s-1.3077-5.1933,0-13.8584A34.9184,34.9184,0,0,0,343.7334,132.2607Z" style="fill: #2c7300"/>
        <path d="M375.5283,132.2607l2.8858.2344s-1.3086-5.1933,0-13.8584A34.91,34.91,0,0,0,375.5283,132.2607Z" style="fill: #2c7300"/>
        <path d="M407.3242,132.2607l2.8848.2344s-1.3086-5.1933,0-13.8584A34.9184,34.9184,0,0,0,407.3242,132.2607Z" style="fill: #2c7300"/>
        <path d="M439.1191,132.2607l2.8858.2344s-1.3086-5.1933,0-13.8584A34.9118,34.9118,0,0,0,439.1191,132.2607Z" style="fill: #2c7300"/>
        <path d="M443.9619,132.3037l4.1729.1914s-1.8926-4.2314,0-11.291C443.5928,127.2559,443.9619,132.3037,443.9619,132.3037Z" style="fill: #338500"/>
        <path d="M440.873,132.3037l2.72.1914s-1.2334-4.2314,0-11.291A25.0552,25.0552,0,0,0,440.873,132.3037Z" style="fill: #338500"/>
        <path d="M436.33,132.3037l2.7207.1914s-1.2344-4.2314,0-11.291A25.0646,25.0646,0,0,0,436.33,132.3037Z" style="fill: #338500"/>
        <path d="M433.3027,132.3037l2.72.1914s-1.2334-4.2314,0-11.291A25.0552,25.0552,0,0,0,433.3027,132.3037Z" style="fill: #338500"/>
        <path d="M428.76,132.3037l2.7207.1914s-1.2344-4.2314,0-11.291A25.0646,25.0646,0,0,0,428.76,132.3037Z" style="fill: #338500"/>
        <path d="M425.7314,132.3037l2.7207.1914s-1.2333-4.2314,0-11.291A25.0663,25.0663,0,0,0,425.7314,132.3037Z" style="fill: #338500"/>
        <path d="M421.19,132.3037l2.7207.1914s-1.2344-4.2314,0-11.291A25.0646,25.0646,0,0,0,421.19,132.3037Z" style="fill: #338500"/>
        <path d="M418.1611,132.3037l2.7207.1914s-1.2334-4.2314,0-11.291A25.0663,25.0663,0,0,0,418.1611,132.3037Z" style="fill: #338500"/>
        <path d="M412.1055,132.3037l2.72.1914s-1.2334-4.2314,0-11.291A25.0709,25.0709,0,0,0,412.1055,132.3037Z" style="fill: #338500"/>
        <path d="M409.0771,132.3037l2.72.1914s-1.2334-4.2314,0-11.291A25.072,25.072,0,0,0,409.0771,132.3037Z" style="fill: #338500"/>
        <path d="M406.0488,132.3037l2.72.1914s-1.2334-4.2314,0-11.291A25.072,25.072,0,0,0,406.0488,132.3037Z" style="fill: #338500"/>
        <path d="M401.5068,132.3037l2.72.1914s-1.2334-4.2314,0-11.291A25.072,25.072,0,0,0,401.5068,132.3037Z" style="fill: #338500"/>
        <path d="M396.9648,132.3037l2.72.1914s-1.2334-4.2314,0-11.291A25.0552,25.0552,0,0,0,396.9648,132.3037Z" style="fill: #338500"/>
        <path d="M393.9365,132.3037l2.72.1914s-1.2334-4.2314,0-11.291A25.072,25.072,0,0,0,393.9365,132.3037Z" style="fill: #338500"/>
        <path d="M389.3945,132.3037l2.72.1914s-1.2334-4.2314,0-11.291A25.0552,25.0552,0,0,0,389.3945,132.3037Z" style="fill: #338500"/>
        <path d="M404.5352,132.3037l2.72.1914s-1.2334-4.2314,0-11.291A25.0541,25.0541,0,0,0,404.5352,132.3037Z" style="fill: #338500"/>
        <path d="M413.6191,132.3037l2.7207.1914s-1.2343-4.2314,0-11.291A25.0663,25.0663,0,0,0,413.6191,132.3037Z" style="fill: #338500"/>
        <path d="M437.8447,132.3037l2.72.1914s-1.2334-4.2314,0-11.291A25.0552,25.0552,0,0,0,437.8447,132.3037Z" style="fill: #338500"/>
        <path d="M449.957,132.3037l.043.0029v-1.4619A14.0467,14.0467,0,0,0,449.957,132.3037Z" style="fill: #338500"/>
        <path d="M386.3662,132.3037l2.72.1914s-1.2334-4.2314,0-11.291A25.0726,25.0726,0,0,0,386.3662,132.3037Z" style="fill: #338500"/>
        <path d="M381.8242,132.3037l2.72.1914s-1.2334-4.2314,0-11.291A25.0558,25.0558,0,0,0,381.8242,132.3037Z" style="fill: #338500"/>
        <path d="M377.2822,132.3037l2.72.1914s-1.2334-4.2314,0-11.291A25.0552,25.0552,0,0,0,377.2822,132.3037Z" style="fill: #338500"/>
        <path d="M372.7393,132.3037l2.7207.1914s-1.2344-4.2314,0-11.291A25.0646,25.0646,0,0,0,372.7393,132.3037Z" style="fill: #338500"/>
        <path d="M369.7119,132.3037l2.72.1914s-1.2334-4.2314,0-11.291A25.0558,25.0558,0,0,0,369.7119,132.3037Z" style="fill: #338500"/>
        <path d="M365.1689,132.3037l2.7207.1914s-1.2343-4.2314,0-11.291A25.0663,25.0663,0,0,0,365.1689,132.3037Z" style="fill: #338500"/>
        <path d="M360.627,132.3037l2.72.1914s-1.2334-4.2314,0-11.291A25.0709,25.0709,0,0,0,360.627,132.3037Z" style="fill: #338500"/>
        <path d="M357.5986,132.3037l2.72.1914s-1.2334-4.2314,0-11.291A25.072,25.072,0,0,0,357.5986,132.3037Z" style="fill: #338500"/>
        <path d="M362.1406,132.3037l2.7207.1914s-1.2334-4.2314,0-11.291A25.0663,25.0663,0,0,0,362.1406,132.3037Z" style="fill: #338500"/>
        <path d="M354.57,132.3037l2.7207.1914s-1.2334-4.2314,0-11.291A25.0663,25.0663,0,0,0,354.57,132.3037Z" style="fill: #338500"/>
        <path d="M350.0283,132.3037l2.72.1914s-1.2334-4.2314,0-11.291A25.0726,25.0726,0,0,0,350.0283,132.3037Z" style="fill: #338500"/>
        <path d="M345.4863,132.3037l2.72.1914s-1.2334-4.2314,0-11.291A25.072,25.072,0,0,0,345.4863,132.3037Z" style="fill: #338500"/>
        <path d="M340.9443,132.3037l2.72.1914s-1.2334-4.2314,0-11.291A25.0552,25.0552,0,0,0,340.9443,132.3037Z" style="fill: #338500"/>
        <path d="M337.916,132.3037l2.72.1914s-1.2334-4.2314,0-11.291A25.0726,25.0726,0,0,0,337.916,132.3037Z" style="fill: #338500"/>
        <path d="M333.374,132.3037l2.72.1914s-1.2334-4.2314,0-11.291A25.0552,25.0552,0,0,0,333.374,132.3037Z" style="fill: #338500"/>
        <path d="M330.3457,132.3037l2.72.1914s-1.2334-4.2314,0-11.291A25.0726,25.0726,0,0,0,330.3457,132.3037Z" style="fill: #338500"/>
        <path d="M325.8037,132.3037l2.72.1914s-1.2334-4.2314,0-11.291A25.0558,25.0558,0,0,0,325.8037,132.3037Z" style="fill: #338500"/>
        <path d="M322.7754,132.3037l2.72.1914s-1.2334-4.2314,0-11.291A25.0726,25.0726,0,0,0,322.7754,132.3037Z" style="fill: #338500"/>
        <path d="M316.7188,132.3037l2.7207.1914s-1.2344-4.2314,0-11.291A25.0646,25.0646,0,0,0,316.7188,132.3037Z" style="fill: #338500"/>
        <path d="M312.1768,132.3037l2.72.1914s-1.2334-4.2314,0-11.291A25.0709,25.0709,0,0,0,312.1768,132.3037Z" style="fill: #338500"/>
        <path d="M309.1484,132.3037l2.7207.1914s-1.2343-4.2314,0-11.291A25.0663,25.0663,0,0,0,309.1484,132.3037Z" style="fill: #338500"/>
        <path d="M313.6914,132.3037l2.72.1914s-1.2334-4.2314,0-11.291A25.0558,25.0558,0,0,0,313.6914,132.3037Z" style="fill: #338500"/>
        <path d="M306.1211,132.3037l2.72.1914s-1.2334-4.2314,0-11.291A25.0558,25.0558,0,0,0,306.1211,132.3037Z" style="fill: #338500"/>
        <path d="M301.5781,132.3037l2.72.1914s-1.2334-4.2314,0-11.291A25.072,25.072,0,0,0,301.5781,132.3037Z" style="fill: #338500"/>
        <path d="M298.5508,132.3037l2.72.1914s-1.2334-4.2314,0-11.291A25.0558,25.0558,0,0,0,298.5508,132.3037Z" style="fill: #338500"/>
        <path d="M294.0078,132.3037l2.7207.1914s-1.2344-4.2314,0-11.291A25.0663,25.0663,0,0,0,294.0078,132.3037Z" style="fill: #338500"/>
        <path d="M287.9521,132.3037l2.72.1914s-1.2334-4.2314,0-11.291A25.0552,25.0552,0,0,0,287.9521,132.3037Z" style="fill: #338500"/>
        <path d="M289.4658,132.3037l2.72.1914s-1.2334-4.2314,0-11.291A25.0726,25.0726,0,0,0,289.4658,132.3037Z" style="fill: #338500"/>
        <path d="M287.9521,132.3037l2.72.1914s-1.2334-4.2314,0-11.291A25.0552,25.0552,0,0,0,287.9521,132.3037Z" style="fill: #338500"/>
        <path d="M284.9238,132.3037l2.72.1914s-1.2334-4.2314,0-11.291A25.072,25.072,0,0,0,284.9238,132.3037Z" style="fill: #338500"/>
        <path d="M281.8955,132.3037l2.72.1914s-1.2334-4.2314,0-11.291A25.0726,25.0726,0,0,0,281.8955,132.3037Z" style="fill: #338500"/>
        <path d="M277.3535,132.3037l2.72.1914s-1.2334-4.2314,0-11.291A25.0726,25.0726,0,0,0,277.3535,132.3037Z" style="fill: #338500"/>
        <path d="M274.3252,132.3037l2.72.1914s-1.2334-4.2314,0-11.291A25.0726,25.0726,0,0,0,274.3252,132.3037Z" style="fill: #338500"/>
        <path d="M269.7832,132.3037l2.72.1914s-1.2334-4.2314,0-11.291A25.0726,25.0726,0,0,0,269.7832,132.3037Z" style="fill: #338500"/>
        <path d="M265.2412,132.3037l2.72.1914s-1.2334-4.2314,0-11.291A25.0558,25.0558,0,0,0,265.2412,132.3037Z" style="fill: #338500"/>
        <path d="M262.2129,132.3037l2.72.1914s-1.2334-4.2314,0-11.291A25.0558,25.0558,0,0,0,262.2129,132.3037Z" style="fill: #338500"/>
        <path d="M257.6709,132.3037l2.72.1914s-1.2334-4.2314,0-11.291A25.0558,25.0558,0,0,0,257.6709,132.3037Z" style="fill: #338500"/>
        <path d="M253.1279,132.3037l2.7207.1914s-1.2343-4.2314,0-11.291A25.0663,25.0663,0,0,0,253.1279,132.3037Z" style="fill: #338500"/>
        <path d="M248.5859,132.3037l2.72.1914s-1.2334-4.2314,0-11.291A25.072,25.072,0,0,0,248.5859,132.3037Z" style="fill: #338500"/>
        <path d="M245.5576,132.3037l2.7207.1914s-1.2344-4.2314,0-11.291A25.0663,25.0663,0,0,0,245.5576,132.3037Z" style="fill: #338500"/>
        <path d="M237.9873,132.3037l2.72.1914s-1.2334-4.2314,0-11.291A25.0726,25.0726,0,0,0,237.9873,132.3037Z" style="fill: #338500"/>
        <path d="M233.4453,132.3037l2.72.1914s-1.2334-4.2314,0-11.291A25.0726,25.0726,0,0,0,233.4453,132.3037Z" style="fill: #338500"/>
        <path d="M228.9033,132.3037l2.72.1914s-1.2334-4.2314,0-11.291A25.0726,25.0726,0,0,0,228.9033,132.3037Z" style="fill: #338500"/>
        <path d="M226.0029,132.3037l2.72.1914s-1.2334-4.2314,0-11.291A25.0636,25.0636,0,0,0,226.0029,132.3037Z" style="fill: #338500"/>
        <rect y="129.0977" width="450" height="8.3759" style="fill: #378f00"/>
        <path d="M422.6914,132.3037l4.1729.1914s-1.8926-4.2314,0-11.291C422.3223,127.2559,422.6914,132.3037,422.6914,132.3037Z" style="fill: #378f00"/>
        <path d="M390.8955,132.3037l4.1729.1914s-1.8926-4.2314,0-11.291C390.5264,127.2559,390.8955,132.3037,390.8955,132.3037Z" style="fill: #378f00"/>
        <path d="M359.1006,132.3037l4.1728.1914s-1.8925-4.2314,0-11.291C358.7314,127.2559,359.1006,132.3037,359.1006,132.3037Z" style="fill: #378f00"/>
        <path d="M327.3047,132.3037l4.1728.1914s-1.8925-4.2314,0-11.291C326.9355,127.2559,327.3047,132.3037,327.3047,132.3037Z" style="fill: #378f00"/>
        <path d="M310.65,132.3037l4.1728.1914s-1.8925-4.2314,0-11.291C310.2813,127.2559,310.65,132.3037,310.65,132.3037Z" style="fill: #378f00"/>
        <path d="M278.8545,132.3037l4.1728.1914s-1.8925-4.2314,0-11.291C278.4854,127.2559,278.8545,132.3037,278.8545,132.3037Z" style="fill: #378f00"/>
        <path d="M247.06,132.3037l4.1728.1914s-1.8926-4.2314,0-11.291C246.69,127.2559,247.06,132.3037,247.06,132.3037Z" style="fill: #378f00"/>
        <path d="M446.916,132.3037l3.084.1416V122.792C446.6221,128.1113,446.916,132.3037,446.916,132.3037Z" style="fill: #378f00"/>
        <path d="M415.12,132.3037l4.1738.1914s-1.8925-4.2314,0-11.291C414.752,127.2559,415.12,132.3037,415.12,132.3037Z" style="fill: #378f00"/>
        <path d="M383.3252,132.3037l4.1728.1914s-1.8925-4.2314,0-11.291C382.9561,127.2559,383.3252,132.3037,383.3252,132.3037Z" style="fill: #378f00"/>
        <path d="M351.5293,132.3037l4.1738.1914s-1.8926-4.2314,0-11.291C351.1611,127.2559,351.5293,132.3037,351.5293,132.3037Z" style="fill: #378f00"/>
        <path d="M319.7344,132.3037l4.1728.1914s-1.8926-4.2314,0-11.291C319.3652,127.2559,319.7344,132.3037,319.7344,132.3037Z" style="fill: #378f00"/>
        <path d="M303.08,132.3037l4.1728.1914s-1.8925-4.2314,0-11.291C302.7109,127.2559,303.08,132.3037,303.08,132.3037Z" style="fill: #378f00"/>
        <path d="M271.2842,132.3037l4.1728.1914s-1.8925-4.2314,0-11.291C270.915,127.2559,271.2842,132.3037,271.2842,132.3037Z" style="fill: #378f00"/>
        <path d="M258.9521,132.3037l4.1739.1914s-1.8926-4.2314,0-11.291C258.584,127.2559,258.9521,132.3037,258.9521,132.3037Z" style="fill: #378f00"/>
        <path d="M239.4893,132.3037l4.1728.1914s-1.8926-4.2314,0-11.291C239.12,127.2559,239.4893,132.3037,239.4893,132.3037Z" style="fill: #378f00"/>
        <path d="M430.4043,132.3037l4.1728.1914s-1.8925-4.2314,0-11.291C430.0352,127.2559,430.4043,132.3037,430.4043,132.3037Z" style="fill: #378f00"/>
        <path d="M398.6084,132.3037l4.1738.1914s-1.8926-4.2314,0-11.291C398.2393,127.2559,398.6084,132.3037,398.6084,132.3037Z" style="fill: #378f00"/>
        <path d="M366.8135,132.3037l4.1728.1914s-1.8925-4.2314,0-11.291C366.4443,127.2559,366.8135,132.3037,366.8135,132.3037Z" style="fill: #378f00"/>
        <path d="M335.0176,132.3037l4.1738.1914s-1.8935-4.2314,0-11.291C334.6484,127.2559,335.0176,132.3037,335.0176,132.3037Z" style="fill: #378f00"/>
        <path d="M303.2227,132.3037l4.1728.1914s-1.8926-4.2314,0-11.291C302.8535,127.2559,303.2227,132.3037,303.2227,132.3037Z" style="fill: #378f00"/>
        <path d="M286.5674,132.3037l4.1738.1914s-1.8926-4.2314,0-11.291C286.1982,127.2559,286.5674,132.3037,286.5674,132.3037Z" style="fill: #378f00"/>
        <path d="M254.7725,132.3037l4.1728.1914s-1.8926-4.2314,0-11.291C254.4033,127.2559,254.7725,132.3037,254.7725,132.3037Z" style="fill: #378f00"/>
        <path d="M225.9976,122.8926v9.55l1.1528.0527s-1.8931-4.2314,0-11.291C226.7188,121.7783,226.3447,122.34,225.9976,122.8926Z" style="fill: #378f00"/>
        <path d="M230.9258,132.3037l4.1728.1914s-1.8925-4.2314,0-11.291C230.5566,127.2559,230.9258,132.3037,230.9258,132.3037Z" style="fill: #378f00"/>
      </g>
      <path d="M387.2422,47.3491a5.8442,5.8442,0,0,0-11.5986-.042,4.2836,4.2836,0,0,0-4.0684,4.2759v.0864a4.2874,4.2874,0,0,0,4.2871,4.2871h10.7412a4.2868,4.2868,0,0,0,4.2871-4.2871V51.583A4.2834,4.2834,0,0,0,387.2422,47.3491Z" style="fill: #fff"/>
      <path d="M186.0474,28.8848a5.8442,5.8442,0,0,0-11.5987-.0415,4.2831,4.2831,0,0,0-4.0683,4.2758v.0865a4.2867,4.2867,0,0,0,4.2871,4.2866h10.7412a4.2867,4.2867,0,0,0,4.2871-4.2866v-.0865A4.2842,4.2842,0,0,0,186.0474,28.8848Z" style="fill: #fff"/>
      <path d="M421.98,21.2524a8.4,8.4,0,0,0-16.6709-.06,6.1557,6.1557,0,0,0-5.8457,6.145v.1245a6.1606,6.1606,0,0,0,6.1611,6.1611h15.4375a6.1613,6.1613,0,0,0,6.1612-6.1611v-.1245A6.1571,6.1571,0,0,0,421.98,21.2524Z" style="fill: #fff"/>
      <polygon points="268.282 14.819 275.679 27.652 284.429 19.658 277.356 23.152 268.282 14.819" style="fill: #fff"/>
      <polygon points="245.879 29.574 251.631 38.064 257.981 32.482 251.931 35.652 245.879 29.574" style="fill: #fff"/>
      <polygon points="282.727 38.525 287.011 44.848 293.355 40.652 287.77 42.447 282.727 38.525" style="fill: #fff"/>
      <g>
        <rect x="275.5371" y="105.9248" width="19.0029" height="6.0742" style="fill: #ff1414"/>
        <polygon points="292.516 114.906 301.016 117.694 301.016 88.791 292.516 98.049 292.516 114.906" style="fill: #870000"/>
        <rect x="304.4326" y="94.1641" width="7.083" height="14.7978" style="fill: #0a0a0a"/>
        <rect x="301.0156" y="92.998" width="4.5" height="20.25" style="fill: #242424"/>
        <rect x="305.5156" y="97.3271" width="103.333" height="5.9161" style="fill: #ff1414"/>
        <g>
          <rect x="316.3486" y="91.8291" width="1.5" height="16.2783" style="fill: #870000"/>
          <rect x="320.3486" y="91.8291" width="1.5" height="16.2783" style="fill: #870000"/>
          <rect x="317.8486" y="93.3516" width="2.5" height="15.9062" style="fill: #242424"/>
        </g>
        <g>
          <rect x="327.3486" y="91.8291" width="1.5" height="16.2783" style="fill: #870000"/>
          <rect x="331.3486" y="91.8291" width="1.5" height="16.2783" style="fill: #870000"/>
          <rect x="328.8486" y="93.3516" width="2.5" height="15.9062" style="fill: #242424"/>
        </g>
        <g>
          <rect x="338.3486" y="91.8291" width="1.5" height="16.2783" style="fill: #870000"/>
          <rect x="342.3486" y="91.8291" width="1.5" height="16.2783" style="fill: #870000"/>
          <rect x="339.8486" y="93.3516" width="2.5" height="15.9062" style="fill: #242424"/>
        </g>
        <g>
          <rect x="349.3486" y="91.8291" width="1.5" height="16.2783" style="fill: #870000"/>
          <rect x="353.3486" y="91.8291" width="1.5" height="16.2783" style="fill: #870000"/>
          <rect x="350.8486" y="93.3516" width="2.5" height="15.9062" style="fill: #242424"/>
        </g>
        <g>
          <rect x="360.3486" y="91.8291" width="1.5" height="16.2783" style="fill: #870000"/>
          <rect x="364.3486" y="91.8291" width="1.5" height="16.2783" style="fill: #870000"/>
          <rect x="361.8486" y="93.3516" width="2.5" height="15.9062" style="fill: #242424"/>
        </g>
        <g>
          <rect x="371.3486" y="91.8291" width="1.5" height="16.2783" style="fill: #870000"/>
          <rect x="375.3486" y="91.8291" width="1.5" height="16.2783" style="fill: #870000"/>
          <rect x="372.8486" y="93.3516" width="2.5" height="15.9062" style="fill: #242424"/>
        </g>
        <g>
          <rect x="382.3486" y="91.8291" width="1.5" height="16.2783" style="fill: #870000"/>
          <rect x="386.3486" y="91.8291" width="1.5" height="16.2783" style="fill: #870000"/>
          <rect x="383.8486" y="93.3516" width="2.5" height="15.9062" style="fill: #242424"/>
        </g>
        <g>
          <rect x="393.3486" y="91.8291" width="1.5" height="16.2783" style="fill: #870000"/>
          <rect x="397.3486" y="91.8291" width="1.5" height="16.2783" style="fill: #870000"/>
          <rect x="394.8486" y="93.3516" width="2.5" height="15.9062" style="fill: #242424"/>
        </g>
        <path d="M316.3486,133.0371l.0616-.09a34.9694,34.9694,0,0,0,6.1054-19.7422v-3.9473h-6.167Z" style="fill: #e8e8e8"/>
        <path d="M327.3486,133.0371l.0616-.09a34.9694,34.9694,0,0,0,6.1054-19.7422v-3.9473h-6.167Z" style="fill: #e8e8e8"/>
        <path d="M338.3486,133.0371l.0616-.09a34.9694,34.9694,0,0,0,6.1054-19.7422v-3.9473h-6.167Z" style="fill: #e8e8e8"/>
        <path d="M349.3486,133.0371l.0616-.09a34.9694,34.9694,0,0,0,6.1054-19.7422v-3.9473h-6.167Z" style="fill: #e8e8e8"/>
        <path d="M360.3486,133.0371l.0616-.09a34.9694,34.9694,0,0,0,6.1054-19.7422v-3.9473h-6.167Z" style="fill: #e8e8e8"/>
        <path d="M371.3486,133.0371l.0616-.09a34.9694,34.9694,0,0,0,6.1054-19.7422v-3.9473h-6.167Z" style="fill: #e8e8e8"/>
        <path d="M382.3486,133.0371l.0616-.09a34.9694,34.9694,0,0,0,6.1054-19.7422v-3.9473h-6.167Z" style="fill: #e8e8e8"/>
        <path d="M393.3486,133.0371l.0616-.09a34.9694,34.9694,0,0,0,6.1054-19.7422v-3.9473h-6.167Z" style="fill: #e8e8e8"/>
      </g>
      <g>
        <rect x="274.0117" y="84.207" width="3.0498" height="17.2227" style="fill: #212121"/>
        <polygon points="229.945 76.783 229.945 106.294 274.012 106.294 274.012 82.21 266.848 76.783 229.945 76.783" style="fill: #870000"/>
        <rect x="189.3394" y="101.4297" width="67.6616" height="11.4375" style="fill: #242424"/>
        <path d="M224.4243,51.106a3.5493,3.5493,0,0,0-3.5493,3.5493V74.69h45.9727l-3.3-23.5844Z" style="fill: #4dbfd9"/>
        <polygon points="226.554 74.769 231.287 74.769 238.937 51.106 234.205 51.106 226.554 74.769" style="fill: #fff;opacity: 0.2"/>
        <polygon points="244.459 74.769 249.191 74.769 256.843 51.106 252.11 51.106 244.459 74.769" style="fill: #fff;opacity: 0.2"/>
        <rect x="245.8789" y="74.6904" width="22.2432" height="2.0508" style="fill: #242424"/>
        <g>
          <rect x="198.2754" y="53.4175" width="1.686" height="17.6885"/>
          <path d="M199.8838,68.49h-1.5659a1.2389,1.2389,0,0,0-1.2388,1.2388V80.9482h4.0435V69.729A1.2389,1.2389,0,0,0,199.8838,68.49Z" style="fill: #212121"/>
          <polygon points="198.275 53.417 199.961 53.417 201.192 49.082 197.045 49.082 198.275 53.417" style="fill: #212121"/>
        </g>
        <g>
          <rect x="189.3394" y="89.125" width="30.6152" height="12.7783" style="fill: #0f0f0f"/>
          <path d="M206.94,90.7813h4.943a.7627.7627,0,0,1,.7627.7627v4.4169a.7627.7627,0,0,1-.7627.7627H206.94a.7627.7627,0,0,1-.7627-.7627v-4.417A.7626.7626,0,0,1,206.94,90.7813Z" style="fill: #9c9c9c"/>
          <path d="M201.6436,92.7266h3.3243a.5131.5131,0,0,1,.5131.5131v2.97a.5136.5136,0,0,1-.5136.5136h-3.3238a.5127.5127,0,0,1-.5127-.5127V93.2393A.5127.5127,0,0,1,201.6436,92.7266Z" style="fill: #9c9c9c"/>
          <rect x="190.9277" y="92.043" width="8.3609" height="8.0986"/>
          <rect x="190.2705" y="93.3164" width="5.7319" height="5.5518" style="fill: #121212"/>
          <rect x="213.96" y="93.3164" width="4.312" height="6.8252"/>
          <rect x="200.7612" y="97.6699" width="11.8843" height="2.3135"/>
        </g>
        <polygon points="175.089 102.238 190.27 102.238 190.31 90.016 219.955 90.016 219.955 77.793 175.089 80.948 175.089 102.238" style="fill: #ff1414"/>
        <rect x="173.5747" y="80.9482" width="1.5142" height="21.2901" style="fill: #04111a"/>
        <rect x="169.8057" y="102.2383" width="20.4648" height="5.4101" style="fill: #2b2b2b"/>
        <g>
          <polygon points="202.968 108.082 201.495 104.979 199.182 102.929 196.542 101.403 194.081 99.983 190.715 99.3 187.87 98.984 188.349 104.821 200.78 116.127 204.874 116.311 204.493 112.656 202.968 108.082" style="fill: #303030"/>
          <path d="M188.2109,98.3838a.6314.6314,0,0,0,0,1.2627,16.052,16.052,0,0,1,16.0328,16.0342.6311.6311,0,0,0,1.2622,0A17.3157,17.3157,0,0,0,188.2109,98.3838Z"/>
        </g>
        <g>
          <path d="M201.3906,112.67l.5957-.2461-1.1694-2.834-.5669.2334a14.084,14.084,0,0,0-1.3818-2.0761l.4414-.4414-2.168-2.168-.4287.4287a14.1081,14.1081,0,0,0-2.0332-1.3721l.2344-.5654-2.8306-1.1768-.2329.56a14.0788,14.0788,0,0,0-2.4483-.4931v-.6153h-3.0659v.6153a14.1,14.1,0,0,0-2.3989.48l-.2427-.5879-2.8344,1.17.2426.5869a14.0179,14.0179,0,0,0-2.0591,1.3857l-.4672-.4668-2.1675,2.168.4746.4746a14.1031,14.1031,0,0,0-1.3506,2.0146l-.6333-.2636-1.1777,2.831.6489.27a13.9547,13.9547,0,0,0-.481,2.4121h-.7172l.0009,3.0664.7271-.0009a13.9112,13.9112,0,0,0,.4731,2.3554l-.6933.2862,1.1694,2.834.69-.2842a14.0112,14.0112,0,0,0,1.3613,2.0273l-.5425.543,2.1675,2.167.54-.54a14.1208,14.1208,0,0,0,1.9824,1.337l-.2959.7119,2.8311,1.1767.293-.7041a13.9069,13.9069,0,0,0,2.39.4864l.0005.7675h3.0649v-.7461a13.97,13.97,0,0,0,2.3526-.4609l.2886.6992,2.8344-1.17-.2763-.6689a14.1438,14.1438,0,0,0,2.0444-1.3555l.5166.5166,2.168-2.167-.4942-.4951a14.0745,14.0745,0,0,0,1.3584-2.001l.6446.2686,1.1772-2.8311-.6167-.2568a13.9457,13.9457,0,0,0,.4985-2.4248h.6665l0-3.0655h-.6357A13.9674,13.9674,0,0,0,201.3906,112.67Z" style="fill: #0a0a0a"/>
          <path d="M187.87,107.3477a9.145,9.145,0,1,0,9.145,9.1455A9.1452,9.1452,0,0,0,187.87,107.3477Z" style="fill: #575757"/>
          <path d="M187.87,112.2373a4.2554,4.2554,0,1,0,4.2554,4.2559A4.2555,4.2555,0,0,0,187.87,112.2373Z" style="fill: #b3b3b3"/>
        </g>
        <g>
          <path d="M282.6025,101.2734l.962-.3974-1.8877-4.5752-.9161.3779a22.69,22.69,0,0,0-2.2294-3.3525l.7119-.7119-3.5-3.5-.6924.6923a22.7481,22.7481,0,0,0-3.2813-2.2158l.3789-.9111-4.57-1.9-.376.9043a22.5875,22.5875,0,0,0-3.9511-.7969v-.9941h-4.9492v.9941a22.5623,22.5623,0,0,0-3.8731.7764l-.3916-.95-4.5752,1.8887.3906.9472a22.6778,22.6778,0,0,0-3.3232,2.2373l-.7539-.7539-3.499,3.5.7666.7657a22.6955,22.6955,0,0,0-2.1807,3.2529L239.84,96.125l-1.9013,4.57,1.0478.4356a22.4992,22.4992,0,0,0-.7763,3.8935l-1.1582.001.0009,4.9492,1.1739-.001a22.6211,22.6211,0,0,0,.7636,3.8018l-1.1191.4619,1.8887,4.5752,1.1123-.459a22.7884,22.7884,0,0,0,2.1972,3.2735l-.875.875,3.4991,3.499.8711-.8721a22.7633,22.7633,0,0,0,3.2011,2.1582l-.4785,1.1494,4.57,1.8994L254.33,129.2a22.5769,22.5769,0,0,0,3.8574.7842l.001,1.2392h4.9472V130.02a22.48,22.48,0,0,0,3.7979-.7451l.4658,1.1289,4.5762-1.8877-.4463-1.08a22.7356,22.7356,0,0,0,3.3-2.1884l.834.834,3.5-3.4991-.7988-.7978a22.7252,22.7252,0,0,0,2.1933-3.23l1.041.4326,1.9-4.57-.9961-.4141a22.5374,22.5374,0,0,0,.8047-3.914h1.0762l.001-4.9483h-1.0264A22.4764,22.4764,0,0,0,282.6025,101.2734Z" style="fill: #0a0a0a"/>
          <circle cx="260.7764" cy="107.4443" r="14.7627" style="fill: #575757"/>
          <path d="M260.7764,100.5752a6.8692,6.8692,0,1,0,6.8691,6.8691A6.8689,6.8689,0,0,0,260.7764,100.5752Z" style="fill: #b3b3b3"/>
        </g>
        <path d="M219.9546,55.1416v46.7617h1.2622V57.1665c0-3.3472,1.2617-6.06,6.06-6.06h36.8643V49.0815h-38.127A6.06,6.06,0,0,0,219.9546,55.1416Z" style="fill: #242424"/>
        <path d="M221.2168,102.2383h10.1484l15.9336-17.9854V74.69h-26.082Zm2.0264-25.4551H244.01V84.69L231.6357,99.5625h-8.3925Z"/>
        <rect x="244.459" y="51.106" width="2.8398" height="23.5844" style="fill: #242424"/>
        <path d="M276.4814,83.0391a7.7619,7.7619,0,0,0-5.6308-2.4317h-18.96a7.7387,7.7387,0,0,0-5.8027,2.62l-3.9424,4.4737a1.2613,1.2613,0,0,0,1.8926,1.6679l3.9433-4.4726a5.2121,5.2121,0,0,1,3.9092-1.7656h18.96a5.23,5.23,0,0,1,3.793,1.6386l8.31,8.8223a1.2618,1.2618,0,1,0,1.8369-1.7305Z" style="fill: #ff1414"/>
        <polygon points="223.243 99.563 231.636 99.563 244.01 84.69 244.01 76.783 223.243 76.783 223.243 99.563" style="fill: #525252"/>
        <rect x="235.585" y="78.9492" width="6.705" height="1.6582" style="fill: #141414"/>
      </g>
      <g>
        <path d="M449.041,132.4219l-1.7822-1.88a5.71,5.71,0,0,0-4.1338-1.9053h-6.06a6.2928,6.2928,0,0,0-4.21,1.7071l-1.4316,1.2861-.919-.9385a6.4107,6.4107,0,0,0-4.5732-2.0547H417.458c-2.7822,0-5.2471,1.7393-6.8047,4.42-1.5576-2.6806-4.0215-4.42-6.8047-4.42h-8a5.7452,5.7452,0,0,0-4.2314,2.0117l-1.6162,1.7735-1.7822-1.88a5.71,5.71,0,0,0-4.1329-1.9053h-6.0615a6.2945,6.2945,0,0,0-4.21,1.7071l-1.4307,1.2861-.919-.9385a6.4138,6.4138,0,0,0-4.5732-2.0547h-8.4727c-2.7705,0-5.2246,1.7237-6.7832,4.3819-1.5586-2.6582-4.0127-4.3819-6.7832-4.3819h-7.999a5.7456,5.7456,0,0,0-4.2324,2.0117l-1.6152,1.7735-1.7832-1.88a5.7083,5.7083,0,0,0-4.1329-1.9053h-6.0615a6.2923,6.2923,0,0,0-4.209,1.7071l-1.4316,1.2861-.9189-.9385a6.4142,6.4142,0,0,0-4.5733-2.0547h-8.4726c-3.0528,0-5.7237,2.0908-7.2315,5.2237-.1914-3.61-52.5137-2.47-104.3218-2.6368-74.6289-.2412-161.4155.1114-187.87.0225V150H450V131.3691Z" style="fill: #662b13"/>
        <path d="M299.8447,132.127c-1.4648,0-2.6523.789-2.6523,1.7636s1.1875,1.7647,2.6523,1.7647,2.6524-.79,2.6524-1.7647S301.31,132.127,299.8447,132.127Z" style="fill: #33190f"/>
        <ellipse cx="317.4463" cy="133.8906" rx="2.0039" ry="1.333" style="fill: #33190f"/>
        <ellipse cx="320.3486" cy="141.8135" rx="2.0039" ry="1.333" style="fill: #33190f"/>
        <ellipse cx="301.8486" cy="142.54" rx="2.0039" ry="1.333" style="fill: #33190f"/>
        <path d="M352.4326,141.8135c-1.1074,0-2.0039.5967-2.0039,1.333s.8965,1.333,2.0039,1.333,2.0029-.5967,2.0029-1.333S353.5391,141.8135,352.4326,141.8135Z" style="fill: #33190f"/>
        <ellipse cx="332.8486" cy="143.1465" rx="2.0039" ry="1.333" style="fill: #33190f"/>
        <path d="M373.3525,145.0479c-1.1064,0-2.0039.5966-2.0039,1.333s.8975,1.332,2.0039,1.332,2.0039-.5957,2.0039-1.332S374.459,145.0479,373.3525,145.0479Z" style="fill: #33190f"/>
        <ellipse cx="391.1904" cy="145.3428" rx="2.0039" ry="1.333" style="fill: #33190f"/>
        <ellipse cx="410.8525" cy="145.8125" rx="2.0039" ry="1.333" style="fill: #33190f"/>
        <ellipse cx="431.7275" cy="145.8125" rx="2.0039" ry="1.333" style="fill: #33190f"/>
        <path d="M336.2021,135.293c-1.1074,0-2.0039.5976-2.0039,1.333s.8965,1.333,2.0039,1.333,2.003-.5967,2.003-1.333S337.3086,135.293,336.2021,135.293Z" style="fill: #33190f"/>
        <path d="M327.4453,135.8838c-.8613,0-1.56.4648-1.56,1.0381s.6983,1.0371,1.56,1.0371,1.5606-.4639,1.5606-1.0371S328.3066,135.8838,327.4453,135.8838Z" style="fill: #33190f"/>
        <path d="M306.7607,135.0869c-.8613,0-1.56.4649-1.56,1.0381s.6992,1.0371,1.56,1.0371,1.56-.4639,1.56-1.0371S307.6221,135.0869,306.7607,135.0869Z" style="fill: #33190f"/>
        <path d="M347.9072,135.3369c-.8613,0-1.56.4649-1.56,1.0381s.6982,1.0371,1.56,1.0371,1.56-.4639,1.56-1.0371S348.7686,135.3369,347.9072,135.3369Z" style="fill: #33190f"/>
        <path d="M341.207,131.3838c-.8613,0-1.56.4648-1.56,1.0381s.6982,1.0381,1.56,1.0381,1.5606-.4649,1.5606-1.0381S342.0693,131.3838,341.207,131.3838Z" style="fill: #33190f"/>
        <g>
          <path d="M418.7129,134.61c-1.4649,0-2.6524.79-2.6524,1.7646s1.1875,1.7646,2.6524,1.7646,2.6523-.79,2.6523-1.7646S420.1777,134.61,418.7129,134.61Z" style="fill: #33190f"/>
          <path d="M435.23,136.08c-1.1065,0-2.0039.5967-2.0039,1.332s.8974,1.334,2.0039,1.334,2.0039-.5977,2.0039-1.334S436.3359,136.08,435.23,136.08Z" style="fill: #33190f"/>
          <path d="M445.3818,133.5723c-.8623,0-1.56.4648-1.56,1.0381s.6982,1.038,1.56,1.038,1.56-.4648,1.56-1.038S446.2432,133.5723,445.3818,133.5723Z" style="fill: #33190f"/>
          <path d="M426.333,133.2c-.8623,0-1.5605.4639-1.5605,1.0371s.6982,1.0381,1.5605,1.0381,1.56-.4649,1.56-1.0381S427.1943,133.2,426.333,133.2Z" style="fill: #33190f"/>
          <path d="M442.2617,142.54c-.8613,0-1.5605.4649-1.5605,1.0381s.6992,1.0381,1.5605,1.0381,1.56-.4648,1.56-1.0381S443.123,142.54,442.2617,142.54Z" style="fill: #33190f"/>
          <path d="M382.3486,142.1084c-.8613,0-1.5595.4648-1.5595,1.0381s.6982,1.0381,1.5595,1.0381,1.5606-.4649,1.5606-1.0381S383.21,142.1084,382.3486,142.1084Z" style="fill: #33190f"/>
          <path d="M402.291,143.1035c-.8613,0-1.56.4639-1.56,1.0371s.6983,1.0381,1.56,1.0381,1.5606-.4648,1.5606-1.0381S403.1533,143.1035,402.291,143.1035Z" style="fill: #33190f"/>
          <path d="M341.207,143.1035c-.8613,0-1.56.4639-1.56,1.0371s.6982,1.0381,1.56,1.0381,1.5606-.4648,1.5606-1.0381S342.0693,143.1035,341.207,143.1035Z" style="fill: #33190f"/>
          <path d="M324.957,145.3428c-.8613,0-1.56.4648-1.56,1.0381s.6982,1.0371,1.56,1.0371,1.5606-.4639,1.5606-1.0371S325.8193,145.3428,324.957,145.3428Z" style="fill: #33190f"/>
          <path d="M296.7656,145.3428c-.8613,0-1.56.4648-1.56,1.0381s.6992,1.0371,1.56,1.0371,1.56-.4639,1.56-1.0371S297.627,145.3428,296.7656,145.3428Z" style="fill: #33190f"/>
        </g>
        <g>
          <path d="M358.59,132.5957c-1.4648,0-2.6523.79-2.6523,1.7647s1.1875,1.7646,2.6523,1.7646,2.6524-.79,2.6524-1.7646S360.0547,132.5957,358.59,132.5957Z" style="fill: #33190f"/>
          <path d="M363.4326,141.8135c-1.4658,0-2.6533.79-2.6533,1.7646s1.1875,1.7647,2.6533,1.7647,2.6524-.79,2.6524-1.7647S364.8975,141.8135,363.4326,141.8135Z" style="fill: #33190f"/>
          <path d="M311.5156,141.8135c-1.4648,0-2.6523.79-2.6523,1.7646s1.1875,1.7647,2.6523,1.7647,2.6524-.79,2.6524-1.7647S312.9805,141.8135,311.5156,141.8135Z" style="fill: #33190f"/>
          <path d="M421.3652,141.8135c-1.4648,0-2.6523.79-2.6523,1.7646s1.1875,1.7647,2.6523,1.7647,2.6524-.79,2.6524-1.7647S422.83,141.8135,421.3652,141.8135Z" style="fill: #33190f"/>
          <path d="M377.4131,132.2393c-1.1065,0-2.0039.5966-2.0039,1.333s.8974,1.333,2.0039,1.333,2.0029-.5967,2.0029-1.333S378.52,132.2393,377.4131,132.2393Z" style="fill: #33190f"/>
          <path d="M395.1973,135.293c-1.1065,0-2.003.5976-2.003,1.333s.8965,1.333,2.003,1.333,2.0039-.5967,2.0039-1.333S396.3047,135.293,395.1973,135.293Z" style="fill: #33190f"/>
          <path d="M384.4922,135.3975c-.8623,0-1.5606.4648-1.5606,1.038s.6983,1.0381,1.5606,1.0381,1.56-.4648,1.56-1.0381S385.3535,135.3975,384.4922,135.3975Z" style="fill: #33190f"/>
          <path d="M367.293,134.36c-.8614,0-1.56.4648-1.56,1.0371s.6982,1.038,1.56,1.038,1.56-.4648,1.56-1.038S368.1543,134.36,367.293,134.36Z" style="fill: #33190f"/>
          <path d="M406.9033,135.3369c-.8613,0-1.56.4649-1.56,1.0381s.6992,1.0371,1.56,1.0371,1.56-.4639,1.56-1.0371S407.7646,135.3369,406.9033,135.3369Z" style="fill: #33190f"/>
          <path d="M400.2031,131.3838c-.8613,0-1.56.4648-1.56,1.0381s.6982,1.0381,1.56,1.0381,1.5606-.4649,1.5606-1.0381S401.0645,131.3838,400.2031,131.3838Z" style="fill: #33190f"/>
        </g>
        <path d="M5.4829,136.5273c-1.4653,0-2.6528.79-2.6528,1.7647s1.1875,1.7646,2.6528,1.7646,2.6519-.79,2.6519-1.7646S6.9473,136.5273,5.4829,136.5273Z" style="fill: #33190f"/>
        <path d="M23.084,136.959c-1.1065,0-2.0034.5967-2.0034,1.333s.8969,1.333,2.0034,1.333,2.0039-.5967,2.0039-1.333S24.1909,136.959,23.084,136.959Z" style="fill: #33190f"/>
        <path d="M41.84,139.6943c-1.1069,0-2.0039.5967-2.0039,1.333s.897,1.3331,2.0039,1.3331,2.0035-.5967,2.0035-1.3331S42.9463,139.6943,41.84,139.6943Z" style="fill: #33190f"/>
        <path d="M33.0835,140.2852c-.8618,0-1.56.4638-1.56,1.0371s.6983,1.0381,1.56,1.0381,1.56-.4649,1.56-1.0381S33.9448,140.2852,33.0835,140.2852Z" style="fill: #33190f"/>
        <path d="M12.3984,139.4883c-.8613,0-1.56.4638-1.56,1.0371s.6987,1.0381,1.56,1.0381,1.56-.4649,1.56-1.0381S13.26,139.4883,12.3984,139.4883Z" style="fill: #33190f"/>
        <path d="M53.5454,139.7383c-.8618,0-1.56.4648-1.56,1.0371s.6987,1.0381,1.56,1.0381,1.56-.4649,1.56-1.0381S54.4067,139.7383,53.5454,139.7383Z" style="fill: #33190f"/>
        <path d="M46.8452,135.7852c-.8613,0-1.56.4648-1.56,1.038s.6987,1.0372,1.56,1.0372,1.56-.4649,1.56-1.0372S47.707,135.7852,46.8452,135.7852Z" style="fill: #33190f"/>
        <g>
          <path d="M181.87,139.0723c-1.4653,0-2.6528.79-2.6528,1.7646s1.1875,1.7647,2.6528,1.7647,2.6519-.79,2.6519-1.7647S183.3345,139.0723,181.87,139.0723Z" style="fill: #33190f"/>
          <path d="M201.874,135.49c-1.1064,0-2.0034.5967-2.0034,1.333s.897,1.3321,2.0034,1.3321,2.0039-.5967,2.0039-1.3321S202.981,135.49,201.874,135.49Z" style="fill: #33190f"/>
          <path d="M218.8706,139.6943c-1.1064,0-2.0034.5967-2.0034,1.333s.897,1.3331,2.0034,1.3331,2.0039-.5967,2.0039-1.3331S219.9775,139.6943,218.8706,139.6943Z" style="fill: #33190f"/>
          <path d="M208.165,139.7988c-.8618,0-1.56.4649-1.56,1.0381s.6982,1.0381,1.56,1.0381,1.56-.4648,1.56-1.0381S209.0264,139.7988,208.165,139.7988Z" style="fill: #33190f"/>
          <path d="M189.4063,137.1182c-.8614,0-1.56.4648-1.56,1.0371s.6982,1.0381,1.56,1.0381,1.56-.4649,1.56-1.0381S190.2681,137.1182,189.4063,137.1182Z" style="fill: #33190f"/>
          <path d="M229.8271,139.7988c-.8613,0-1.56.4649-1.56,1.0381s.6982,1.0381,1.56,1.0381,1.5606-.4648,1.5606-1.0381S230.6885,139.7988,229.8271,139.7988Z" style="fill: #33190f"/>
          <path d="M223.8765,135.7852c-.8619,0-1.56.4648-1.56,1.038s.6982,1.0372,1.56,1.0372,1.56-.4649,1.56-1.0372S224.7378,135.7852,223.8765,135.7852Z" style="fill: #33190f"/>
        </g>
        <g>
          <path d="M240.4463,136.209c-1.4649,0-2.6524.79-2.6524,1.7646s1.1875,1.7647,2.6524,1.7647,2.6523-.79,2.6523-1.7647S241.9111,136.209,240.4463,136.209Z" style="fill: #33190f"/>
          <ellipse cx="258.2305" cy="139.1934" rx="2.0039" ry="1.333" style="fill: #33190f"/>
          <path d="M277.4473,139.6943c-1.1065,0-2.0039.5967-2.0039,1.333s.8974,1.3331,2.0039,1.3331,2.0039-.5967,2.0039-1.3331S278.5537,139.6943,277.4473,139.6943Z" style="fill: #33190f"/>
          <path d="M268.3018,139.9893c-.8623,0-1.5606.4648-1.5606,1.038s.6983,1.0381,1.5606,1.0381,1.56-.4648,1.56-1.0381S269.1631,139.9893,268.3018,139.9893Z" style="fill: #33190f"/>
          <path d="M247.9834,138.7617c-.8623,0-1.56.4639-1.56,1.0371s.6982,1.0381,1.56,1.0381,1.56-.4648,1.56-1.0381S248.8447,138.7617,247.9834,138.7617Z" style="fill: #33190f"/>
          <path d="M289.1523,139.7383c-.8613,0-1.56.4648-1.56,1.0371s.6982,1.0381,1.56,1.0381,1.5606-.4649,1.5606-1.0381S290.0146,139.7383,289.1523,139.7383Z" style="fill: #33190f"/>
          <path d="M282.4531,135.7852c-.8613,0-1.56.4648-1.56,1.038s.6992,1.0372,1.56,1.0372,1.56-.4649,1.56-1.0372S283.3145,135.7852,282.4531,135.7852Z" style="fill: #33190f"/>
        </g>
        <g>
          <path d="M124.3506,139.0117c-1.4644,0-2.6519.79-2.6519,1.7637s1.1875,1.7646,2.6519,1.7646,2.6528-.79,2.6528-1.7646S125.8159,139.0117,124.3506,139.0117Z" style="fill: #33190f"/>
          <path d="M140.8672,140.4805c-1.1065,0-2.0034.5966-2.0034,1.333s.8969,1.333,2.0034,1.333,2.0039-.5967,2.0039-1.333S141.9741,140.4805,140.8672,140.4805Z" style="fill: #33190f"/>
          <path d="M159.875,139.6943c-1.1064,0-2.0039.5967-2.0039,1.333s.8975,1.3331,2.0039,1.3331,2.0034-.5967,2.0034-1.3331S160.9814,139.6943,159.875,139.6943Z" style="fill: #33190f"/>
          <path d="M151.02,137.9736c-.8618,0-1.56.4649-1.56,1.0381s.6982,1.0371,1.56,1.0371,1.56-.4638,1.56-1.0371S151.8809,137.9736,151.02,137.9736Z" style="fill: #33190f"/>
          <ellipse cx="131.9707" cy="138.6387" rx="1.5601" ry="1.0381" style="fill: #33190f"/>
          <path d="M171.5806,139.7383c-.8618,0-1.56.4648-1.56,1.0371s.6983,1.0381,1.56,1.0381,1.56-.4649,1.56-1.0381S172.4419,139.7383,171.5806,139.7383Z" style="fill: #33190f"/>
          <path d="M164.88,135.7852c-.8614,0-1.56.4648-1.56,1.038s.6982,1.0372,1.56,1.0372,1.56-.4649,1.56-1.0372S165.7422,135.7852,164.88,135.7852Z" style="fill: #33190f"/>
        </g>
        <g>
          <path d="M64.2275,136.9971c-1.4648,0-2.6523.79-2.6523,1.7646s1.1875,1.7637,2.6523,1.7637,2.6524-.79,2.6524-1.7637S65.6924,136.9971,64.2275,136.9971Z" style="fill: #33190f"/>
          <path d="M83.0508,136.6406c-1.107,0-2.0039.5967-2.0039,1.333s.8969,1.333,2.0039,1.333,2.0034-.5966,2.0034-1.333S84.1572,136.6406,83.0508,136.6406Z" style="fill: #33190f"/>
          <path d="M100.8354,139.6943c-1.1064,0-2.0034.5967-2.0034,1.333s.897,1.3331,2.0034,1.3331,2.0035-.5967,2.0035-1.3331S101.9419,139.6943,100.8354,139.6943Z" style="fill: #33190f"/>
          <path d="M90.1294,139.7988c-.8613,0-1.56.4649-1.56,1.0381s.6983,1.0381,1.56,1.0381,1.56-.4648,1.56-1.0381S90.9912,139.7988,90.1294,139.7988Z" style="fill: #33190f"/>
          <path d="M72.9312,138.7617c-.8614,0-1.56.4639-1.56,1.0371s.6987,1.0381,1.56,1.0381,1.56-.4648,1.56-1.0381S73.7925,138.7617,72.9312,138.7617Z" style="fill: #33190f"/>
          <path d="M112.541,139.7383c-.8618,0-1.56.4648-1.56,1.0371s.6982,1.0381,1.56,1.0381,1.56-.4649,1.56-1.0381S113.4028,139.7383,112.541,139.7383Z" style="fill: #33190f"/>
          <path d="M105.8413,135.7852c-.8618,0-1.56.4648-1.56,1.038s.6982,1.0372,1.56,1.0372,1.56-.4649,1.56-1.0372S106.7026,135.7852,105.8413,135.7852Z" style="fill: #33190f"/>
        </g>
      </g>
    </g>
  </g>
</svg>
