<svg xmlns="http://www.w3.org/2000/svg" width="450" height="150" viewBox="0 0 450 150">
  <title>Ресурс 3</title>
  <g id="Слой_2" data-name="Слой 2">
    <g id="Layer_1" data-name="Layer 1">
      <rect width="450" height="150" style="fill: #2deffc"/>
      <path d="M172.3013,60.3564a23.979,23.979,0,0,0-2.21,47.8555l-.8716,18.8985a.6609.6609,0,0,0,.6558.7011h4.4434a.6523.6523,0,0,0,.6552-.7l-.8173-18.872a23.9771,23.9771,0,0,0-1.855-47.8829Z" style="fill: #2eb2ff"/>
      <path d="M96.8115,68.2744A21.1644,21.1644,0,0,0,94.86,110.5127l-.7691,16.68a.5831.5831,0,0,0,.5786.6191h3.9219a.5753.5753,0,0,0,.5781-.6181l-.7212-16.6563a21.1628,21.1628,0,0,0-1.6372-42.2627Z" style="fill: #2eb2ff"/>
      <path d="M14.541,110.5127l-.769,16.68a.5831.5831,0,0,0,.5786.6191h3.9219a.5754.5754,0,0,0,.5781-.6181l-.7212-16.6563A21.1624,21.1624,0,1,0,0,76.1973v26.4746A21.1191,21.1191,0,0,0,14.541,110.5127Z" style="fill: #2eb2ff"/>
      <path d="M432.3467,60.3564a23.979,23.979,0,0,0-2.211,47.8555l-.8711,18.8985a.66.66,0,0,0,.6553.7011h4.4434a.6522.6522,0,0,0,.6553-.7l-.8174-18.872A23.9343,23.9343,0,0,0,450,100.5615V68.1084A23.9191,23.9191,0,0,0,432.3467,60.3564Z" style="fill: #2eb2ff"/>
      <path d="M262.0332,49.3105a27.9059,27.9059,0,0,0-2.5723,55.6924l-1.0136,21.9922a.7686.7686,0,0,0,.7627.8164h5.1709a.7591.7591,0,0,0,.7627-.8144l-.9512-21.9629a27.9033,27.9033,0,0,0-2.1592-55.7237Z" style="fill: #2eb2ff"/>
      <path d="M345.4756,49.3105a27.9059,27.9059,0,0,0-2.5723,55.6924l-1.0146,21.9922a.7694.7694,0,0,0,.7636.8164h5.1709a.759.759,0,0,0,.7627-.8144l-.9511-21.9629a27.9033,27.9033,0,0,0-2.1592-55.7237Z" style="fill: #2eb2ff"/>
      <g>
        <g>
          <path d="M383.4648,39.33A33.6694,33.6694,0,1,0,417.14,73,33.6682,33.6682,0,0,0,383.4648,39.33Z" style="fill: #66c30f"/>
          <polygon points="383.472 97.116 404.027 84.69 383.767 94.691 383.472 97.116" style="fill: #2c7300"/>
          <polygon points="361.975 85.195 382.53 97.621 382.235 95.196 361.975 85.195" style="fill: #2c7300"/>
          <polygon points="383.177 83.68 403.732 71.254 383.472 81.255 383.177 83.68" style="fill: #2c7300"/>
          <polygon points="361.975 71.254 382.53 83.68 382.235 81.255 361.975 71.254" style="fill: #2c7300"/>
          <polygon points="383.177 69.84 403.732 57.413 383.472 67.415 383.177 69.84" style="fill: #2c7300"/>
          <polygon points="362.621 57.413 383.177 69.84 382.882 67.415 362.621 57.413" style="fill: #2c7300"/>
          <path d="M382.35,63.3691l-3.2119,69.6846a.9275.9275,0,0,0,.92.9854h6.2393a.9154.9154,0,0,0,.9189-.9834L384.1992,63.374A.9266.9266,0,0,0,382.35,63.3691Z" style="fill: #573122"/>
        </g>
        <g>
          <path d="M408.5293,77.8535c-1.624-1.3408-3.5557.2637-3.5508,1.96a4.8332,4.8332,0,0,0,2.0889,3.708c.4746.2549.8867.0019,1.4726.0029s.9991.2549,1.4727.002a4.7927,4.7927,0,0,0,2.0781-3.7012C412.0859,78.1289,410.1465,76.5186,408.5293,77.8535Z" style="fill: #ff1c1c"/>
          <path d="M410.6025,78.1182c-.16.0966-.1367.3486.0518.5625a.5668.5668,0,0,0,.6338.2138c.16-.0957.1377-.3476-.0518-.5625A.57.57,0,0,0,410.6025,78.1182Z" style="fill: #ffeb7a"/>
          <polygon points="407.711 76.056 408.529 77.853 408.396 75.849 407.711 76.056" style="fill: #663f30"/>
          <path d="M408.5469,77.8418c1.2851.2256,1.9453-1.7676,1.9453-1.7676S408.4092,76.0732,408.5469,77.8418Z" style="fill: #109d59"/>
        </g>
        <g>
          <path d="M401.417,95.2256c-1.624-1.3408-3.5557.2637-3.5508,1.96a4.8322,4.8322,0,0,0,2.0889,3.709c.4746.2539.8867.001,1.4726.002s.9991.2558,1.4727.0029a4.796,4.796,0,0,0,2.0781-3.7012C404.9736,95.502,403.0342,93.8906,401.417,95.2256Z" style="fill: #ff1c1c"/>
          <path d="M403.49,95.49c-.16.0967-.1367.3487.0528.5635a.568.568,0,0,0,.6328.2139c.16-.0967.1377-.3487-.0518-.5625A.5686.5686,0,0,0,403.49,95.49Z" style="fill: #ffeb7a"/>
          <polygon points="400.599 93.428 401.417 95.226 401.284 93.221 400.599 93.428" style="fill: #663f30"/>
          <path d="M401.4346,95.2139c1.2851.2256,1.9453-1.7676,1.9453-1.7676S401.2969,93.4453,401.4346,95.2139Z" style="fill: #109d59"/>
        </g>
        <g>
          <path d="M393.168,75.3232c-1.6241-1.3408-3.5557.2637-3.5508,1.96a4.83,4.83,0,0,0,2.0889,3.708c.4736.2549.8867.002,1.4726.0029s.999.2549,1.4727.002a4.793,4.793,0,0,0,2.0781-3.7012C396.7246,75.5986,394.7842,73.9883,393.168,75.3232Z" style="fill: #ff1c1c"/>
          <path d="M395.2412,75.5879c-.16.0967-.1377.3486.0518.5625a.5666.5666,0,0,0,.6338.2139c.16-.0957.1367-.3477-.0528-.5625A.5681.5681,0,0,0,395.2412,75.5879Z" style="fill: #ffeb7a"/>
          <polygon points="392.35 73.525 393.168 75.323 393.034 73.318 392.35 73.525" style="fill: #663f30"/>
          <path d="M393.1855,75.3115c1.2852.2256,1.9454-1.7676,1.9454-1.7676S393.0479,73.543,393.1855,75.3115Z" style="fill: #109d59"/>
        </g>
        <g>
          <path d="M413.0674,60.6123c-1.624-1.3408-3.5557.2637-3.5508,1.96a4.83,4.83,0,0,0,2.0889,3.708c.4746.2549.8867.0019,1.4726.0029s.999.2549,1.4727.002a4.7931,4.7931,0,0,0,2.0781-3.7012C416.624,60.8877,414.6836,59.2773,413.0674,60.6123Z" style="fill: #ff1c1c"/>
          <path d="M415.1406,60.877c-.16.0966-.1377.3486.0518.5625a.5664.5664,0,0,0,.6338.2138c.16-.0957.1367-.3476-.0518-.5625A.57.57,0,0,0,415.1406,60.877Z" style="fill: #ffeb7a"/>
          <polygon points="412.249 58.815 413.067 60.612 412.934 58.607 412.249 58.815" style="fill: #663f30"/>
          <path d="M413.085,60.6006c1.2851.2256,1.9443-1.7676,1.9443-1.7676S412.9473,58.832,413.085,60.6006Z" style="fill: #109d59"/>
        </g>
        <g>
          <path d="M398.3037,60.1289c-1.624-1.3408-3.5557.2637-3.5508,1.96a4.8309,4.8309,0,0,0,2.0889,3.708c.4746.2549.8867.0019,1.4727.0029s.999.2549,1.4726.002a4.7928,4.7928,0,0,0,2.0781-3.7012C401.86,60.4043,399.92,58.7939,398.3037,60.1289Z" style="fill: #ff1c1c"/>
          <path d="M400.377,60.3936c-.16.0966-.1377.3486.0517.5625a.5665.5665,0,0,0,.6338.2138c.16-.0957.1367-.3476-.0527-.5625A.5651.5651,0,0,0,400.377,60.3936Z" style="fill: #ffeb7a"/>
          <polygon points="397.485 58.331 398.304 60.129 398.17 58.123 397.485 58.331" style="fill: #663f30"/>
          <path d="M398.3213,60.1162c1.2851.2266,1.9443-1.7676,1.9443-1.7676S398.1826,58.3477,398.3213,60.1162Z" style="fill: #109d59"/>
        </g>
        <g>
          <path d="M390.2725,50.9678c-1.6241-1.3408-3.5557.2636-3.5508,1.96a4.8334,4.8334,0,0,0,2.0888,3.708c.4747.2549.8868.002,1.4727.003s.999.2549,1.4727.0019A4.79,4.79,0,0,0,393.834,52.94C393.83,51.2432,391.89,49.6328,390.2725,50.9678Z" style="fill: #ff1c1c"/>
          <path d="M392.3457,51.2324c-.16.0967-.1367.3487.0527.5625a.5674.5674,0,0,0,.6329.2149c.16-.0967.1376-.3487-.0518-.5635A.57.57,0,0,0,392.3457,51.2324Z" style="fill: #ffeb7a"/>
          <polygon points="389.454 49.17 390.272 50.968 390.14 48.963 389.454 49.17" style="fill: #663f30"/>
          <path d="M390.29,50.9561c1.2852.2255,1.9454-1.7676,1.9454-1.7676S390.1523,49.1875,390.29,50.9561Z" style="fill: #109d59"/>
        </g>
        <g>
          <path d="M377.71,45.41c-1.6241-1.3409-3.5557.2636-3.5508,1.96a4.8305,4.8305,0,0,0,2.0888,3.708c.4747.2549.8868.002,1.4727.003s.999.2548,1.4727.0019a4.793,4.793,0,0,0,2.0781-3.7012C381.2666,45.6855,379.3262,44.0752,377.71,45.41Z" style="fill: #ff1c1c"/>
          <path d="M379.7832,45.6748c-.16.0967-.1377.3486.0518.5625a.5665.5665,0,0,0,.6338.2139c.16-.0957.1367-.3477-.0518-.5625A.5667.5667,0,0,0,379.7832,45.6748Z" style="fill: #ffeb7a"/>
          <polygon points="376.892 43.612 377.71 45.41 377.576 43.404 376.892 43.612" style="fill: #663f30"/>
          <path d="M377.7275,45.3975c1.2852.2265,1.9454-1.7676,1.9454-1.7676S377.59,43.6289,377.7275,45.3975Z" style="fill: #109d59"/>
        </g>
        <g>
          <path d="M369.3379,59.375c-1.624-1.34-3.5557.2637-3.5518,1.96a4.8376,4.8376,0,0,0,2.0889,3.7089c.4746.254.8867.001,1.4727.002s1,.2559,1.4726.0029a4.7917,4.7917,0,0,0,2.0781-3.7011C372.8945,59.6514,370.9541,58.04,369.3379,59.375Z" style="fill: #ff1c1c"/>
          <path d="M371.4111,59.6406c-.1611.0957-.1377.3477.0518.5625a.5653.5653,0,0,0,.6328.2139c.1611-.0967.1377-.3486-.0518-.5625A.5653.5653,0,0,0,371.4111,59.6406Z" style="fill: #ffeb7a"/>
          <polygon points="368.519 57.577 369.338 59.375 369.204 57.37 368.519 57.577" style="fill: #663f30"/>
          <path d="M369.3555,59.3633c1.2851.2265,1.9443-1.7676,1.9443-1.7676S369.2168,57.5947,369.3555,59.3633Z" style="fill: #109d59"/>
        </g>
        <g>
          <path d="M352.9111,65.6318c-1.623-1.3408-3.5547.2627-3.5507,1.96a4.8379,4.8379,0,0,0,2.0888,3.708c.4746.2539.8867.002,1.4727.0029s1,.2549,1.4726.002a4.7915,4.7915,0,0,0,2.0782-3.7012C356.4688,65.9072,354.5283,64.2969,352.9111,65.6318Z" style="fill: #ff1c1c"/>
          <path d="M354.9854,65.8965c-.1612.0957-.1377.3476.0517.5625a.5657.5657,0,0,0,.6328.2139c.1612-.0958.1377-.3477-.0517-.5625A.5654.5654,0,0,0,354.9854,65.8965Z" style="fill: #ffeb7a"/>
          <polygon points="352.093 63.834 352.911 65.632 352.778 63.626 352.093 63.834" style="fill: #663f30"/>
          <path d="M352.93,65.6191c1.2851.2266,1.9443-1.7675,1.9443-1.7675S352.791,63.8506,352.93,65.6191Z" style="fill: #109d59"/>
        </g>
        <g>
          <path d="M372.8936,75.0762c-1.6241-1.34-3.5557.2636-3.5508,1.96a4.8324,4.8324,0,0,0,2.0888,3.709c.4747.2539.8868.001,1.4727.002s.999.2558,1.4727.0029a4.7946,4.7946,0,0,0,2.0781-3.7012C376.45,75.3525,374.5107,73.7412,372.8936,75.0762Z" style="fill: #ff1c1c"/>
          <path d="M374.9668,75.3418c-.16.0957-.1367.3477.0518.5625a.5683.5683,0,0,0,.6337.2139c.16-.0967.1377-.3487-.0517-.5625A.5664.5664,0,0,0,374.9668,75.3418Z" style="fill: #ffeb7a"/>
          <polygon points="372.075 73.278 372.894 75.076 372.761 73.071 372.075 73.278" style="fill: #663f30"/>
          <path d="M372.9111,75.0645c1.2852.2255,1.9453-1.7676,1.9453-1.7676S372.7734,73.2959,372.9111,75.0645Z" style="fill: #109d59"/>
        </g>
        <g>
          <path d="M358.4287,78.3184c-1.624-1.3409-3.5547.2636-3.5508,1.96a4.8361,4.8361,0,0,0,2.0889,3.708c.4746.2549.8867.002,1.4727.003s1,.2548,1.4726.0029A4.7935,4.7935,0,0,0,361.99,80.29C361.9863,78.5938,360.0459,76.9834,358.4287,78.3184Z" style="fill: #ff1c1c"/>
          <path d="M360.5029,78.583c-.1611.0967-.1377.3486.0518.5635a.5684.5684,0,0,0,.6328.2139c.1611-.0967.1377-.3487-.0518-.5635A.5684.5684,0,0,0,360.5029,78.583Z" style="fill: #ffeb7a"/>
          <polygon points="357.61 76.521 358.429 78.318 358.296 76.314 357.61 76.521" style="fill: #663f30"/>
          <path d="M358.4473,78.3066c1.2851.2256,1.9443-1.7675,1.9443-1.7675S358.3086,76.5381,358.4473,78.3066Z" style="fill: #109d59"/>
        </g>
        <g>
          <path d="M374.1592,90.69c-1.624-1.34-3.5557.2636-3.5508,1.96a4.8322,4.8322,0,0,0,2.0889,3.709c.4746.2539.8867.001,1.4726.002s.999.2558,1.4727.0029a4.7974,4.7974,0,0,0,2.0781-3.7012C377.7158,90.9658,375.7754,89.3545,374.1592,90.69Z" style="fill: #ff1c1c"/>
          <path d="M376.2324,90.9551c-.16.0957-.1377.3476.0518.5625a.57.57,0,0,0,.6338.2138c.16-.0966.1367-.3486-.0528-.5625A.565.565,0,0,0,376.2324,90.9551Z" style="fill: #ffeb7a"/>
          <polygon points="373.341 88.892 374.159 90.69 374.025 88.685 373.341 88.892" style="fill: #663f30"/>
          <path d="M374.1768,90.6777c1.2851.2256,1.9443-1.7675,1.9443-1.7675S374.0381,88.9092,374.1768,90.6777Z" style="fill: #109d59"/>
        </g>
        <g>
          <path d="M361.9854,94.585c-1.6241-1.3409-3.5557.2636-3.5508,1.96a4.8305,4.8305,0,0,0,2.0888,3.708c.4746.2549.8868.002,1.4727.003s.999.2548,1.4727.0019a4.793,4.793,0,0,0,2.0781-3.7012C365.542,94.86,363.6016,93.25,361.9854,94.585Z" style="fill: #ff1c1c"/>
          <path d="M364.0586,94.85c-.16.0967-.1367.3486.0518.5625a.5685.5685,0,0,0,.6337.2149c.16-.0967.1368-.3487-.0517-.5635A.57.57,0,0,0,364.0586,94.85Z" style="fill: #ffeb7a"/>
          <polygon points="361.167 92.787 361.985 94.585 361.852 92.58 361.167 92.787" style="fill: #663f30"/>
          <path d="M362.0029,94.5732c1.2852.2256,1.9453-1.7675,1.9453-1.7675S361.8652,92.8047,362.0029,94.5732Z" style="fill: #109d59"/>
        </g>
      </g>
      <g>
        <g>
          <path d="M225.1958,39.33A33.6694,33.6694,0,1,0,258.8711,73,33.6686,33.6686,0,0,0,225.1958,39.33Z" style="fill: #66c30f"/>
          <polygon points="225.203 97.116 245.759 84.69 225.498 94.691 225.203 97.116" style="fill: #2c7300"/>
          <polygon points="203.706 85.195 224.262 97.621 223.967 95.196 203.706 85.195" style="fill: #2c7300"/>
          <polygon points="224.908 83.68 245.464 71.254 225.203 81.255 224.908 83.68" style="fill: #2c7300"/>
          <polygon points="203.706 71.254 224.262 83.68 223.967 81.255 203.706 71.254" style="fill: #2c7300"/>
          <polygon points="224.908 69.84 245.464 57.413 225.203 67.415 224.908 69.84" style="fill: #2c7300"/>
          <polygon points="204.352 57.413 224.908 69.84 224.613 67.415 204.352 57.413" style="fill: #2c7300"/>
          <path d="M224.0811,63.3691l-3.2124,69.6846a.9281.9281,0,0,0,.92.9854h6.2392a.9154.9154,0,0,0,.919-.9834L225.93,63.374A.9263.9263,0,0,0,224.0811,63.3691Z" style="fill: #573122"/>
        </g>
        <g>
          <path d="M253.7422,79.2188c-1.6231-1.3409-3.5547.2626-3.5508,1.96a4.8377,4.8377,0,0,0,2.0889,3.708c.4746.2539.8867.002,1.4726.0029s1,.2549,1.4727.002a4.7917,4.7917,0,0,0,2.0781-3.7012C257.3,79.4941,255.3594,77.8828,253.7422,79.2188Z" style="fill: #ff1c1c"/>
          <path d="M255.8164,79.4834c-.1611.0967-.1377.3477.0518.5625a.5656.5656,0,0,0,.6328.2139c.1611-.0957.1377-.3477-.0518-.5625A.5653.5653,0,0,0,255.8164,79.4834Z" style="fill: #ffeb7a"/>
          <polygon points="252.924 77.42 253.742 79.219 253.609 77.213 252.924 77.42" style="fill: #663f30"/>
          <path d="M253.7607,79.2061c1.2852.2265,1.9444-1.7676,1.9444-1.7676S253.6221,77.4375,253.7607,79.2061Z" style="fill: #109d59"/>
        </g>
        <g>
          <path d="M239.34,93.3359c-1.624-1.3408-3.5556.2637-3.5507,1.96a4.8334,4.8334,0,0,0,2.0888,3.708c.4746.2549.8867.002,1.4727.0029s.999.2549,1.4726.002a4.7944,4.7944,0,0,0,2.0782-3.7012C242.8965,93.6113,240.957,92.001,239.34,93.3359Z" style="fill: #ff1c1c"/>
          <path d="M241.4131,93.6006c-.16.0967-.1367.3486.0517.5625a.5671.5671,0,0,0,.6338.2139c.16-.0957.1377-.3477-.0517-.5625A.5664.5664,0,0,0,241.4131,93.6006Z" style="fill: #ffeb7a"/>
          <polygon points="238.521 91.538 239.34 93.336 239.207 91.331 238.521 91.538" style="fill: #663f30"/>
          <path d="M239.3574,93.3232c1.2852.2266,1.9453-1.7675,1.9453-1.7675S239.22,91.5547,239.3574,93.3232Z" style="fill: #109d59"/>
        </g>
        <g>
          <path d="M234.8994,75.3232c-1.624-1.3408-3.5556.2637-3.5508,1.96a4.8309,4.8309,0,0,0,2.0889,3.708c.4736.2549.8867.002,1.4727.0029s.999.2549,1.4726.002a4.7927,4.7927,0,0,0,2.0781-3.7012C238.4561,75.5986,236.5156,73.9883,234.8994,75.3232Z" style="fill: #ff1c1c"/>
          <path d="M236.9727,75.5879c-.16.0967-.1377.3486.0517.5625a.5667.5667,0,0,0,.6338.2139c.16-.0957.1367-.3477-.0527-.5625A.5681.5681,0,0,0,236.9727,75.5879Z" style="fill: #ffeb7a"/>
          <polygon points="234.081 73.525 234.899 75.323 234.766 73.318 234.081 73.525" style="fill: #663f30"/>
          <path d="M234.917,75.3115c1.2851.2256,1.9443-1.7676,1.9443-1.7676S234.7783,73.543,234.917,75.3115Z" style="fill: #109d59"/>
        </g>
        <g>
          <path d="M246.0869,65.8545c-1.623-1.3408-3.5547.2637-3.5508,1.96a4.8379,4.8379,0,0,0,2.0889,3.7089c.4746.2539.8867.001,1.4727.002s1,.2559,1.4726.0029a4.7931,4.7931,0,0,0,2.0781-3.7012C249.6445,66.1309,247.7041,64.5195,246.0869,65.8545Z" style="fill: #ff1c1c"/>
          <path d="M248.1611,66.1191c-.1611.0967-.1377.3487.0518.5635a.5684.5684,0,0,0,.6328.2139c.1611-.0967.1377-.3486-.0518-.5625A.5676.5676,0,0,0,248.1611,66.1191Z" style="fill: #ffeb7a"/>
          <polygon points="245.269 64.057 246.087 65.854 245.954 63.85 245.269 64.057" style="fill: #663f30"/>
          <path d="M246.1055,65.8428c1.2851.2256,1.9443-1.7676,1.9443-1.7676S245.9668,64.0742,246.1055,65.8428Z" style="fill: #109d59"/>
        </g>
        <g>
          <path d="M244.13,54.8633c-1.624-1.3408-3.5557.2627-3.5508,1.96a4.8348,4.8348,0,0,0,2.0889,3.7081c.4746.2539.8867.0009,1.4726.0019s.999.2559,1.4727.0029a4.7944,4.7944,0,0,0,2.0781-3.7011C247.6875,55.1387,245.7471,53.5273,244.13,54.8633Z" style="fill: #ff1c1c"/>
          <path d="M246.2031,55.1279c-.16.0957-.1367.3477.0528.5625a.5649.5649,0,0,0,.6328.2139c.16-.0957.1377-.3477-.0518-.5625A.5666.5666,0,0,0,246.2031,55.1279Z" style="fill: #ffeb7a"/>
          <polygon points="243.311 53.065 244.13 54.863 243.997 52.857 243.311 53.065" style="fill: #663f30"/>
          <path d="M244.1475,54.8506c1.2851.2265,1.9453-1.7676,1.9453-1.7676S244.01,53.082,244.1475,54.8506Z" style="fill: #109d59"/>
        </g>
        <g>
          <path d="M232.9854,49.3047c-1.6231-1.34-3.5547.2637-3.5508,1.96a4.8381,4.8381,0,0,0,2.0888,3.709c.4746.2539.8868.001,1.4727.002s1,.2558,1.4727.0029a4.7917,4.7917,0,0,0,2.0781-3.7012C236.543,49.5811,234.6025,47.97,232.9854,49.3047Z" style="fill: #ff1c1c"/>
          <path d="M235.06,49.57c-.1612.0957-.1377.3477.0517.5625a.5654.5654,0,0,0,.6328.2139c.1612-.0967.1377-.3487-.0517-.5625A.5654.5654,0,0,0,235.06,49.57Z" style="fill: #ffeb7a"/>
          <polygon points="232.167 47.507 232.985 49.305 232.852 47.3 232.167 47.507" style="fill: #663f30"/>
          <path d="M233.0039,49.293c1.2852.2265,1.9443-1.7676,1.9443-1.7676S232.8652,47.5244,233.0039,49.293Z" style="fill: #109d59"/>
        </g>
        <g>
          <path d="M217.4849,49.0771c-1.6236-1.34-3.5552.2637-3.5508,1.96a4.8352,4.8352,0,0,0,2.0888,3.709c.4747.2539.8868.001,1.4727.0019s1,.2559,1.4727.003a4.7931,4.7931,0,0,0,2.0781-3.7012C221.042,49.3535,219.1016,47.7422,217.4849,49.0771Z" style="fill: #ff1c1c"/>
          <path d="M219.5586,49.3428c-.1607.0957-.1372.3476.0518.5625a.5659.5659,0,0,0,.6333.2138c.1606-.0966.1372-.3486-.0518-.5625A.566.566,0,0,0,219.5586,49.3428Z" style="fill: #ffeb7a"/>
          <polygon points="216.666 47.279 217.485 49.077 217.352 47.072 216.666 47.279" style="fill: #663f30"/>
          <path d="M217.5029,49.0654c1.2852.2266,1.9449-1.7675,1.9449-1.7675S217.3647,47.2969,217.5029,49.0654Z" style="fill: #109d59"/>
        </g>
        <g>
          <path d="M205.1729,56.459c-1.6241-1.3408-3.5557.2637-3.5508,1.96A4.833,4.833,0,0,0,203.71,62.127c.4747.2548.8868.0019,1.4727.0029s1,.2549,1.4732.0019a4.7942,4.7942,0,0,0,2.0781-3.7011C208.73,56.7344,206.79,55.124,205.1729,56.459Z" style="fill: #ff1c1c"/>
          <path d="M207.2461,56.7236c-.1607.0967-.1372.3487.0518.5625a.5664.5664,0,0,0,.6337.2139c.16-.0957.1372-.3477-.0522-.5625A.5688.5688,0,0,0,207.2461,56.7236Z" style="fill: #ffeb7a"/>
          <polygon points="204.354 54.661 205.173 56.459 205.04 54.454 204.354 54.661" style="fill: #663f30"/>
          <path d="M205.19,56.4473c1.2852.2256,1.9449-1.7676,1.9449-1.7676S205.0522,54.6787,205.19,56.4473Z" style="fill: #109d59"/>
        </g>
        <g>
          <path d="M194.6431,65.6318c-1.6241-1.3408-3.5557.2627-3.5513,1.96a4.8348,4.8348,0,0,0,2.0889,3.708c.4746.2539.8867.002,1.4726.0029s1,.2549,1.4727.002a4.7931,4.7931,0,0,0,2.0781-3.7012C198.2,65.9072,196.26,64.2969,194.6431,65.6318Z" style="fill: #ff1c1c"/>
          <path d="M196.7163,65.8965c-.1606.0957-.1372.3476.0518.5625a.5663.5663,0,0,0,.6333.2139c.1606-.0958.1372-.3477-.0518-.5625A.5658.5658,0,0,0,196.7163,65.8965Z" style="fill: #ffeb7a"/>
          <polygon points="193.825 63.834 194.643 65.632 194.51 63.626 193.825 63.834" style="fill: #663f30"/>
          <path d="M194.6606,65.6191c1.2852.2266,1.9449-1.7675,1.9449-1.7675S194.5225,63.8506,194.6606,65.6191Z" style="fill: #109d59"/>
        </g>
        <g>
          <path d="M212.7324,68.6318c-1.6235-1.3408-3.5552.2637-3.5508,1.96a4.8338,4.8338,0,0,0,2.0889,3.708c.4746.2549.8867.002,1.4727.0029s1,.2549,1.4726.002a4.7913,4.7913,0,0,0,2.0781-3.7012C216.29,68.9072,214.3491,67.2969,212.7324,68.6318Z" style="fill: #ff1c1c"/>
          <path d="M214.8057,68.8965c-.16.0967-.1372.3486.0522.5625a.566.566,0,0,0,.6333.2139c.1607-.0958.1372-.3477-.0522-.5625A.5672.5672,0,0,0,214.8057,68.8965Z" style="fill: #ffeb7a"/>
          <polygon points="211.914 66.834 212.732 68.632 212.599 66.627 211.914 66.834" style="fill: #663f30"/>
          <path d="M212.7505,68.6191c1.2847.2266,1.9448-1.7666,1.9448-1.7666S212.6123,66.8506,212.7505,68.6191Z" style="fill: #109d59"/>
        </g>
        <g>
          <path d="M200.1606,78.3184c-1.624-1.3409-3.5556.2636-3.5512,1.96a4.8334,4.8334,0,0,0,2.0888,3.708c.4747.2549.8868.002,1.4727.003s1,.2548,1.4727.0029a4.795,4.795,0,0,0,2.0781-3.7022C203.7173,78.5938,201.7773,76.9834,200.1606,78.3184Z" style="fill: #ff1c1c"/>
          <path d="M202.2339,78.583c-.1607.0967-.1372.3486.0517.5635a.5692.5692,0,0,0,.6333.2139c.1607-.0967.1377-.3487-.0517-.5635A.569.569,0,0,0,202.2339,78.583Z" style="fill: #ffeb7a"/>
          <polygon points="199.342 76.521 200.161 78.318 200.027 76.314 199.342 76.521" style="fill: #663f30"/>
          <path d="M200.1782,78.3066c1.2852.2256,1.9448-1.7675,1.9448-1.7675S200.04,76.5381,200.1782,78.3066Z" style="fill: #109d59"/>
        </g>
        <g>
          <path d="M215.89,86.2422c-1.6235-1.3408-3.5551.2637-3.5507,1.96a4.8336,4.8336,0,0,0,2.0888,3.7081c.4746.2548.8867.0019,1.4727.0029s.9995.2549,1.4726.0019a4.7912,4.7912,0,0,0,2.0782-3.7011C219.4473,86.5176,217.5068,84.9072,215.89,86.2422Z" style="fill: #ff1c1c"/>
          <path d="M217.9639,86.5068c-.1607.0967-.1377.3487.0517.5625a.5659.5659,0,0,0,.6333.2139c.1607-.0957.1372-.3477-.0517-.5625A.5692.5692,0,0,0,217.9639,86.5068Z" style="fill: #ffeb7a"/>
          <polygon points="215.072 84.444 215.89 86.242 215.757 84.237 215.072 84.444" style="fill: #663f30"/>
          <path d="M215.9082,86.2305c1.2852.2256,1.9448-1.7676,1.9448-1.7676S215.77,84.4619,215.9082,86.2305Z" style="fill: #109d59"/>
        </g>
        <g>
          <path d="M205.1621,91.5557c-1.624-1.34-3.5557.2636-3.5508,1.96a4.8342,4.8342,0,0,0,2.0889,3.709c.4746.2539.8867.001,1.4727.002s.999.2558,1.4726.0029a4.7943,4.7943,0,0,0,2.0781-3.7012C208.7192,91.832,206.7788,90.2207,205.1621,91.5557Z" style="fill: #ff1c1c"/>
          <path d="M207.2354,91.8213c-.16.0957-.1373.3476.0522.5625a.566.566,0,0,0,.6333.2139c.1606-.0967.1372-.3487-.0522-.5625A.5657.5657,0,0,0,207.2354,91.8213Z" style="fill: #ffeb7a"/>
          <polygon points="204.344 89.758 205.162 91.556 205.029 89.551 204.344 89.758" style="fill: #663f30"/>
          <path d="M205.18,91.5439c1.2846.2266,1.9443-1.7675,1.9443-1.7675S205.0415,89.7754,205.18,91.5439Z" style="fill: #109d59"/>
        </g>
      </g>
      <g>
        <g>
          <path d="M307.0488,104.7324c-1.7041-.9365-3.1806.8516-2.8847,2.39a4.4652,4.4652,0,0,0,2.5341,3.0058c.4747.1494.8047-.1513,1.337-.2509s.95.0595,1.3359-.252a4.4248,4.4248,0,0,0,1.249-3.7158C310.3242,104.3711,308.2861,103.2432,307.0488,104.7324Z" style="fill: #ff1c1c"/>
          <path d="M308.9766,104.6162c-.13.1152-.0655.34.1435.502a.5229.5229,0,0,0,.6113.0849c.129-.1152.0645-.34-.1435-.5019A.5231.5231,0,0,0,308.9766,104.6162Z" style="fill: #ffeb7a"/>
          <polygon points="305.997 103.242 307.049 104.732 306.583 102.936 305.997 103.242" style="fill: #663f30"/>
          <path d="M307.0635,104.7188c1.2051-.0157,1.46-1.9385,1.46-1.9385S306.6328,103.1377,307.0635,104.7188Z" style="fill: #66c30f"/>
        </g>
        <g>
          <path d="M313.6475,104.7266c-1.6836-.9737-3.1983.7822-2.9356,2.3271a4.4628,4.4628,0,0,0,2.4688,3.0586c.4707.1592.8076-.1338,1.3418-.2227s.9492.08,1.3418-.2216a4.4323,4.4323,0,0,0,1.3281-3.6885C316.93,104.4346,314.916,103.2637,313.6475,104.7266Z" style="fill: #ff1c1c"/>
          <path d="M315.5762,104.6514c-.1319.1123-.0723.3379.1338.5039a.5226.5226,0,0,0,.6093.0986c.1309-.1123.0713-.3379-.1338-.5049A.5237.5237,0,0,0,315.5762,104.6514Z" style="fill: #ffeb7a"/>
          <polygon points="312.627 103.213 313.647 104.727 313.22 102.92 312.627 103.213" style="fill: #663f30"/>
          <path d="M313.6611,104.7129c1.2051.01,1.502-1.9072,1.502-1.9072S313.2656,103.123,313.6611,104.7129Z" style="fill: #66c30f"/>
        </g>
        <g>
          <path d="M320.6621,104.708c-1.3828-1.3682-3.293-.0537-3.43,1.5068a4.4658,4.4658,0,0,0,1.6123,3.585c.416.2734.8155.0752,1.3545.125s.8985.3184,1.3545.125a4.4269,4.4269,0,0,0,2.22-3.2314C323.91,105.2578,322.26,103.6143,320.6621,104.708Z" style="fill: #ff1c1c"/>
          <path d="M322.5469,105.124c-.1563.0752-.1553.3086.001.5225s.4091.3242.5644.249.1553-.3086-.001-.5215S322.7021,105.0488,322.5469,105.124Z" style="fill: #ffeb7a"/>
          <polygon points="320.662 104.708 320.706 102.853 320.059 102.986 320.662 104.708" style="fill: #663f30"/>
          <path d="M320.6787,104.6982c1.1631.3155,1.9365-1.4638,1.9365-1.4638S320.6992,103.0605,320.6787,104.6982Z" style="fill: #66c30f"/>
        </g>
        <g>
          <path d="M327.4482,104.7393c-1.208-1.5245-3.2617-.4493-3.5849,1.0839a4.4653,4.4653,0,0,0,1.17,3.753c.38.3213.8008.1728,1.33.2861s.8525.4238,1.3291.2871a4.4269,4.4269,0,0,0,2.5918-2.9414C330.6074,105.6748,329.166,103.8447,327.4482,104.7393Z" style="fill: #ff1c1c"/>
          <path d="M329.27,105.3779c-.1631.0567-.1914.2881-.0615.5186s.3672.3721.5313.3154.19-.2881.0615-.5176S329.4336,105.3223,329.27,105.3779Z" style="fill: #ffeb7a"/>
          <polygon points="327.448 104.739 327.715 102.902 327.057 102.957 327.448 104.739" style="fill: #663f30"/>
          <path d="M327.4668,104.7314c1.1172.4522,2.0977-1.2207,2.0977-1.2207S327.6836,103.1074,327.4668,104.7314Z" style="fill: #66c30f"/>
        </g>
        <rect x="303.8057" y="116.9072" width="26.7119" height="4.2803" style="fill: #b58545"/>
        <rect x="303.8057" y="121.1875" width="26.7119" height="4.2803" style="fill: #de9c43"/>
        <rect x="303.8057" y="108.3965" width="26.7119" height="4.2803" style="fill: #de9c43"/>
        <rect x="303.8057" y="112.627" width="26.7119" height="4.2802" style="fill: #ffbc61"/>
        <rect x="302.7578" y="125.4277" width="28.6328" height="1.6485" style="fill: #6b3320"/>
        <rect x="302.7578" y="106.7568" width="28.6328" height="1.6475" style="fill: #6b3320"/>
        <path d="M328.8359,109.6133a.9229.9229,0,1,0,.9229.9228A.9227.9227,0,0,0,328.8359,109.6133Z" style="fill: #bfbfbf"/>
        <path d="M328.7441,114.0488a.7657.7657,0,1,0,.7657.7657A.7654.7654,0,0,0,328.7441,114.0488Z" style="fill: #d1933f"/>
        <path d="M328.7441,118.19a.875.875,0,1,0,.876.875A.8748.8748,0,0,0,328.7441,118.19Z" style="fill: #bfbfbf"/>
        <path d="M328.8359,122.57a.7574.7574,0,1,0,.7569.7578A.7573.7573,0,0,0,328.8359,122.57Z" style="fill: #a67432"/>
      </g>
      <g>
        <rect x="173.0806" y="118.6719" width="22.0776" height="3.5371" style="fill: #b58545"/>
        <rect x="173.0806" y="122.209" width="22.0776" height="3.5381" style="fill: #de9c43"/>
        <rect x="173.0806" y="111.6367" width="22.0776" height="3.5381" style="fill: #de9c43"/>
        <rect x="173.0806" y="115.1338" width="22.0776" height="3.5381" style="fill: #ffbc61"/>
        <rect x="172.2144" y="125.7139" width="23.6655" height="1.3623" style="fill: #6b3320"/>
        <rect x="172.2144" y="110.2822" width="23.6655" height="1.3614" style="fill: #6b3320"/>
        <path d="M193.7681,112.6436a.7627.7627,0,1,0,.7627.7627A.7622.7622,0,0,0,193.7681,112.6436Z" style="fill: #bfbfbf"/>
        <path d="M193.6929,116.31a.6323.6323,0,1,0,.6323.6318A.6324.6324,0,0,0,193.6929,116.31Z" style="fill: #d1933f"/>
        <path d="M193.6929,119.7305a.7236.7236,0,1,0,.7231.7236A.7237.7237,0,0,0,193.6929,119.7305Z" style="fill: #bfbfbf"/>
        <path d="M193.7681,123.3516a.6265.6265,0,1,0,.6259.6269A.6262.6262,0,0,0,193.7681,123.3516Z" style="fill: #a67432"/>
      </g>
      <g>
        <rect x="412.7227" y="119.7061" width="19.3584" height="3.1025" style="fill: #b58545"/>
        <rect x="412.7227" y="122.8086" width="19.3584" height="3.1016" style="fill: #de9c43"/>
        <rect x="412.7227" y="113.5381" width="19.3584" height="3.1025" style="fill: #de9c43"/>
        <rect x="412.7227" y="116.6045" width="19.3584" height="3.1016" style="fill: #ffbc61"/>
        <rect x="411.9629" y="125.8818" width="20.751" height="1.1944" style="fill: #6b3320"/>
        <rect x="411.9629" y="112.3496" width="20.751" height="1.1943" style="fill: #6b3320"/>
        <path d="M430.8623,114.42a.669.669,0,1,0,.669.669A.6693.6693,0,0,0,430.8623,114.42Z" style="fill: #bfbfbf"/>
        <path d="M430.7969,117.6348a.5547.5547,0,1,0,.5537.5547A.5549.5549,0,0,0,430.7969,117.6348Z" style="fill: #d1933f"/>
        <path d="M430.7969,120.6357a.6343.6343,0,1,0,.6338.6338A.6339.6339,0,0,0,430.7969,120.6357Z" style="fill: #bfbfbf"/>
        <path d="M430.8623,123.8105a.5489.5489,0,1,0,.5488.5489A.5493.5493,0,0,0,430.8623,123.8105Z" style="fill: #a67432"/>
      </g>
      <g>
        <g>
          <path d="M304.56,14.5a42.5308,42.5308,0,1,0,42.5381,42.5322A42.5291,42.5291,0,0,0,304.56,14.5Z" style="fill: #66c30f"/>
          <polygon points="304.568 87.494 330.535 71.798 304.941 84.432 304.568 87.494" style="fill: #2c7300"/>
          <polygon points="277.414 72.435 303.38 88.132 303.008 85.069 277.414 72.435" style="fill: #2c7300"/>
          <polygon points="304.196 70.522 330.162 54.825 304.568 67.459 304.196 70.522" style="fill: #2c7300"/>
          <polygon points="277.414 54.825 303.38 70.522 303.008 67.459 277.414 54.825" style="fill: #2c7300"/>
          <polygon points="304.196 53.039 330.162 37.343 304.568 49.977 304.196 53.039" style="fill: #2c7300"/>
          <polygon points="278.23 37.343 304.196 53.039 303.824 49.977 278.23 37.343" style="fill: #2c7300"/>
          <path d="M303.1523,44.8652l-4.0585,88.0254a1.1711,1.1711,0,0,0,1.1621,1.2442h7.8818a1.1559,1.1559,0,0,0,1.1611-1.2412l-3.8115-88.0225A1.17,1.17,0,0,0,303.1523,44.8652Z" style="fill: #573122"/>
        </g>
        <g>
          <path d="M280.0664,76.2744c-2.1143-1.7451-4.6289.3438-4.623,2.5527a6.2886,6.2886,0,0,0,2.72,4.8272c.6172.332,1.1543.0029,1.917.0039s1.3017.332,1.9179.0029a6.2412,6.2412,0,0,0,2.7051-4.8183C284.6973,76.6338,282.1709,74.5371,280.0664,76.2744Z" style="fill: #ff1c1c"/>
          <path d="M282.7656,76.62c-.209.125-.1787.4531.0684.7324a.7382.7382,0,0,0,.8242.2784c.209-.125.1787-.4532-.0674-.7325A.7383.7383,0,0,0,282.7656,76.62Z" style="fill: #ffeb7a"/>
          <polygon points="279.001 73.934 280.066 76.274 279.893 73.664 279.001 73.934" style="fill: #663f30"/>
          <path d="M280.09,76.2588c1.6729.2949,2.5313-2.3008,2.5313-2.3008S279.91,73.957,280.09,76.2588Z" style="fill: #109d59"/>
        </g>
      </g>
      <g>
        <path d="M84.5835,80.2168c-6.0361,0-10.93,3.001-10.93,6.7021s4.8936,6.7022,10.93,6.7022,10.93-3,10.93-6.7022S90.62,80.2168,84.5835,80.2168Z" style="fill: #6b3320"/>
        <path d="M122.6045,80.2168c-6.0366,0-10.93,3.001-10.93,6.7021s4.8936,6.7022,10.93,6.7022,10.93-3,10.93-6.7022S128.6406,80.2168,122.6045,80.2168Z" style="fill: #6b3320"/>
        <ellipse cx="103.5713" cy="86.9189" rx="10.9302" ry="6.7022" style="fill: #6b3320"/>
        <path d="M93.9707,83.1279c-6.0361,0-10.93,3.001-10.93,6.7022s4.8936,6.7021,10.93,6.7021,10.93-3.0009,10.93-6.7021S100.0073,83.1279,93.9707,83.1279Z" style="fill: #853f27"/>
        <path d="M112.3682,83.1279c-6.0367,0-10.93,3.001-10.93,6.7022s4.8935,6.7021,10.93,6.7021,10.93-3.0009,10.93-6.7021S118.4043,83.1279,112.3682,83.1279Z" style="fill: #b35534"/>
        <g>
          <rect x="43.3516" y="110.2344" width="86.1259" height="6.709" style="fill: #242424"/>
          <rect x="71.8149" y="88.2764" width="63.6382" height="21.958" style="fill: #ff8d00"/>
          <rect x="71.8149" y="106.0986" width="63.6382" height="3.5332" style="fill: #ffae0d"/>
          <rect x="71.8149" y="97.2705" width="63.6382" height="4.1738" style="fill: #ffae0d"/>
          <rect x="71.8149" y="89.0293" width="63.6382" height="4.1738" style="fill: #ffae0d"/>
          <g>
            <path d="M107.2324,112.6621a7.8921,7.8921,0,1,0,7.8916,7.8916A7.8917,7.8917,0,0,0,107.2324,112.6621Z" style="fill: #0a0a0a"/>
            <path d="M107.2324,115.457a5.0967,5.0967,0,1,0,5.0967,5.0967A5.0973,5.0973,0,0,0,107.2324,115.457Z" style="fill: #b3b3b3"/>
            <path d="M107.2324,116.9434a3.6108,3.6108,0,1,0,3.61,3.61A3.61,3.61,0,0,0,107.2324,116.9434Z" style="fill: #575757"/>
          </g>
          <polygon points="98.341 109.272 94.761 119.022 97.04 119.859 100.037 111.701 114.197 111.701 117.435 119.888 119.693 118.994 115.848 109.272 98.341 109.272" style="fill: #575757"/>
          <rect x="70.0625" y="96.0781" width="1.7524" height="14.1563" style="fill: #0a0a0a"/>
        </g>
        <g>
          <g>
            <path d="M54.6836,112.6621a7.8921,7.8921,0,1,0,7.8916,7.8916A7.8916,7.8916,0,0,0,54.6836,112.6621Z" style="fill: #0a0a0a"/>
            <circle cx="54.6836" cy="120.5537" r="5.0967" style="fill: #b3b3b3"/>
            <path d="M54.6836,116.9434a3.6108,3.6108,0,1,0,3.6108,3.61A3.61,3.61,0,0,0,54.6836,116.9434Z" style="fill: #575757"/>
          </g>
          <g>
            <path d="M32.02,92.123v27.7227H45.3857l1.8887-8.9072,7.4092.2822s6.7505-.1357,7.8916-.1475l2.7817,8.7725h4.7056V77.5537H46.5894A14.57,14.57,0,0,0,32.02,92.123Z" style="fill: #ff1414"/>
            <path d="M53.5991,80.083H45.6064a9.9736,9.9736,0,0,0-9.9438,9.9443v1.4786a.4339.4339,0,0,0,.4336.4336L53.6,91.9219a.4341.4341,0,0,0,.4331-.4336V80.5166A.4335.4335,0,0,0,53.5991,80.083Z" style="fill: #3a83b0"/>
            <path d="M50.564,94.82H53.41a.6231.6231,0,0,1,.6231.6231v.0127a.622.622,0,0,1-.622.622H50.5629a.622.622,0,0,1-.622-.622v-.0127A.6231.6231,0,0,1,50.564,94.82Z" style="fill: #700909"/>
            <path d="M63.6567,101.9756c-.9116,0-1.65.3838-1.65.8564s.7388.8565,1.65.8565,1.65-.3838,1.65-.8565S64.5684,101.9756,63.6567,101.9756Z" style="fill: #ff7b00"/>
            <rect x="56.7324" y="80.083" width="10.5479" height="11.8565" rx="0.7715" style="fill: #990b0b"/>
            <path d="M43.8,110.2344H31.5142a.91.91,0,0,0-.9107.91v6.88a.9111.9111,0,0,0,.9107.9111h9.5947c.3906,0,.81-.5722.9106-.9111l2.6914-6.88A.91.91,0,0,0,43.8,110.2344Z" style="fill: #0a0a0a"/>
          </g>
          <g>
            <path d="M35.9028,101.1533c-1.2363,0-2.2387,1.7383-2.2387,3.8828s1.0024,3.8828,2.2387,3.8828,2.2383-1.7382,2.2383-3.8828S37.1392,101.1533,35.9028,101.1533Z" style="fill: #540606"/>
            <path d="M35.6626,101.9756c-.9746,0-1.7647,1.37-1.7647,3.0605s.79,3.0606,1.7647,3.0606,1.7642-1.37,1.7642-3.0606S36.6367,101.9756,35.6626,101.9756Z" style="fill: #ebd7a5"/>
          </g>
          <polygon points="46.263 109.272 42.683 119.022 44.961 119.859 47.958 111.701 62.119 111.701 65.357 119.888 67.614 118.994 63.77 109.272 46.263 109.272" style="fill: #575757"/>
        </g>
        <rect x="135.4531" y="91.918" width="1.1157" height="18.3164" style="fill: #522d00"/>
      </g>
      <g>
        <path d="M450,119.6084v-.7256c-4.2939,5.9424-3.9482,10.835-3.9482,10.835l3.9482.1806V129.14A19.3532,19.3532,0,0,1,450,119.6084Z" style="fill: #338500"/>
        <g>
          <path d="M28.87,129.6738l2.9136.2373s-1.3213-5.2451,0-13.997A35.2552,35.2552,0,0,0,28.87,129.6738Z" style="fill: #2c7300"/>
          <path d="M16.4272,129.6738l2.9141.2373s-1.3218-5.2451,0-13.997A35.2508,35.2508,0,0,0,16.4272,129.6738Z" style="fill: #2c7300"/>
          <path d="M8.7813,129.6738l2.914.2373s-1.3213-5.2451,0-13.997A35.2494,35.2494,0,0,0,8.7813,129.6738Z" style="fill: #2c7300"/>
          <path d="M1.1357,129.6738l2.9136.2373s-1.3213-5.2451,0-13.997A35.2552,35.2552,0,0,0,1.1357,129.6738Z" style="fill: #2c7300"/>
          <path d="M32.2285,129.6738l2.9136.2373s-1.3213-5.2451,0-13.997A35.2552,35.2552,0,0,0,32.2285,129.6738Z" style="fill: #2c7300"/>
          <path d="M41.4033,129.6738l2.9141.2373s-1.3218-5.2451,0-13.997A35.2508,35.2508,0,0,0,41.4033,129.6738Z" style="fill: #2c7300"/>
          <path d="M49.0493,129.6738l2.9136.2373s-1.3213-5.2451,0-13.997A35.2552,35.2552,0,0,0,49.0493,129.6738Z" style="fill: #2c7300"/>
          <path d="M56.6948,129.6738l2.9141.2373s-1.3218-5.2451,0-13.997A35.2508,35.2508,0,0,0,56.6948,129.6738Z" style="fill: #2c7300"/>
          <path d="M65.87,129.6738l2.9141.2373s-1.3213-5.2451,0-13.997A35.2619,35.2619,0,0,0,65.87,129.6738Z" style="fill: #2c7300"/>
          <path d="M73.5156,129.6738l2.9136.2373s-1.3213-5.2451,0-13.997A35.2552,35.2552,0,0,0,73.5156,129.6738Z" style="fill: #2c7300"/>
          <path d="M81.1611,129.6738l2.9141.2373s-1.3213-5.2451,0-13.997A35.2619,35.2619,0,0,0,81.1611,129.6738Z" style="fill: #2c7300"/>
          <path d="M90.3364,129.6738l2.9136.2373s-1.3213-5.2451,0-13.997A35.2552,35.2552,0,0,0,90.3364,129.6738Z" style="fill: #2c7300"/>
          <path d="M97.9819,129.6738l2.9141.2373s-1.3218-5.2451,0-13.997A35.2508,35.2508,0,0,0,97.9819,129.6738Z" style="fill: #2c7300"/>
          <path d="M105.6279,129.6738l2.9136.2373s-1.3213-5.2451,0-13.997A35.2552,35.2552,0,0,0,105.6279,129.6738Z" style="fill: #2c7300"/>
          <path d="M113.2734,129.6738l2.9141.2373s-1.3218-5.2451,0-13.997A35.2619,35.2619,0,0,0,113.2734,129.6738Z" style="fill: #2c7300"/>
          <path d="M122.4482,129.6738l2.9141.2373s-1.3218-5.2451,0-13.997A35.2619,35.2619,0,0,0,122.4482,129.6738Z" style="fill: #2c7300"/>
          <path d="M130.0942,129.6738l2.9141.2373s-1.3218-5.2451,0-13.997A35.2508,35.2508,0,0,0,130.0942,129.6738Z" style="fill: #2c7300"/>
          <path d="M137.74,129.6738l2.9136.2373s-1.3213-5.2451,0-13.997A35.2552,35.2552,0,0,0,137.74,129.6738Z" style="fill: #2c7300"/>
          <path d="M145.3857,129.6738l2.9136.2373s-1.3213-5.2451,0-13.997A35.2552,35.2552,0,0,0,145.3857,129.6738Z" style="fill: #2c7300"/>
          <path d="M154.5605,129.6738l2.9141.2373s-1.3218-5.2451,0-13.997A35.2508,35.2508,0,0,0,154.5605,129.6738Z" style="fill: #2c7300"/>
          <path d="M162.2065,129.6738l2.9136.2373s-1.3213-5.2451,0-13.997A35.2552,35.2552,0,0,0,162.2065,129.6738Z" style="fill: #2c7300"/>
          <path d="M169.8521,129.6738l2.914.2373s-1.3218-5.2451,0-13.997A35.2605,35.2605,0,0,0,169.8521,129.6738Z" style="fill: #2c7300"/>
          <path d="M177.498,129.6738l2.9136.2373s-1.3213-5.2451,0-13.997A35.2552,35.2552,0,0,0,177.498,129.6738Z" style="fill: #2c7300"/>
          <path d="M186.6729,129.6738l2.9135.2373s-1.3213-5.2451,0-13.997A35.2538,35.2538,0,0,0,186.6729,129.6738Z" style="fill: #2c7300"/>
          <path d="M194.3184,129.6738l2.914.2373s-1.3213-5.2451,0-13.997A35.2605,35.2605,0,0,0,194.3184,129.6738Z" style="fill: #2c7300"/>
          <path d="M201.9644,129.6738l2.914.2373s-1.3218-5.2451,0-13.997A35.2494,35.2494,0,0,0,201.9644,129.6738Z" style="fill: #2c7300"/>
          <path d="M209.61,129.6738l2.914.2373s-1.3213-5.2451,0-13.997A35.2605,35.2605,0,0,0,209.61,129.6738Z" style="fill: #2c7300"/>
          <path d="M218.7852,129.6738l2.9135.2373s-1.3213-5.2451,0-13.997A35.2538,35.2538,0,0,0,218.7852,129.6738Z" style="fill: #2c7300"/>
          <path d="M62.4414,129.6738l2.9136.2373s-1.3213-5.2451,0-13.997A35.2552,35.2552,0,0,0,62.4414,129.6738Z" style="fill: #2c7300"/>
          <path d="M85.3784,129.6738l2.9141.2373s-1.3218-5.2451,0-13.997A35.2508,35.2508,0,0,0,85.3784,129.6738Z" style="fill: #2c7300"/>
          <path d="M109.8447,129.6738l2.9141.2373s-1.3213-5.2451,0-13.997A35.2619,35.2619,0,0,0,109.8447,129.6738Z" style="fill: #2c7300"/>
          <path d="M141.957,129.6738l2.9141.2373s-1.3218-5.2451,0-13.997A35.2508,35.2508,0,0,0,141.957,129.6738Z" style="fill: #2c7300"/>
          <path d="M174.0693,129.6738l2.9141.2373s-1.3218-5.2451,0-13.997A35.2508,35.2508,0,0,0,174.0693,129.6738Z" style="fill: #2c7300"/>
          <path d="M206.1816,129.6738l2.9136.2373s-1.3213-5.2451,0-13.997A35.2552,35.2552,0,0,0,206.1816,129.6738Z" style="fill: #2c7300"/>
          <path d="M211.0718,129.7178l4.2148.1933s-1.9116-4.2734,0-11.4043C210.6992,124.6191,211.0718,129.7178,211.0718,129.7178Z" style="fill: #338500"/>
          <path d="M207.9517,129.7178l2.7475.1933s-1.2461-4.2734,0-11.4043A25.319,25.319,0,0,0,207.9517,129.7178Z" style="fill: #338500"/>
          <path d="M203.3643,129.7178l2.7475.1933s-1.2461-4.2734,0-11.4043A25.319,25.319,0,0,0,203.3643,129.7178Z" style="fill: #338500"/>
          <path d="M200.3062,129.7178l2.747.1933s-1.2456-4.2734,0-11.4043A25.3137,25.3137,0,0,0,200.3062,129.7178Z" style="fill: #338500"/>
          <path d="M195.7188,129.7178l2.747.1933s-1.2456-4.2734,0-11.4043A25.3137,25.3137,0,0,0,195.7188,129.7178Z" style="fill: #338500"/>
          <path d="M192.6606,129.7178l2.7471.1933s-1.2461-4.2734,0-11.4043A25.3148,25.3148,0,0,0,192.6606,129.7178Z" style="fill: #338500"/>
          <path d="M188.0728,129.7178l2.747.1933s-1.2456-4.2734,0-11.4043A25.3222,25.3222,0,0,0,188.0728,129.7178Z" style="fill: #338500"/>
          <path d="M185.0146,129.7178l2.7471.1933s-1.2456-4.2734,0-11.4043A25.3148,25.3148,0,0,0,185.0146,129.7178Z" style="fill: #338500"/>
          <path d="M178.8979,129.7178l2.7471.1933s-1.2456-4.2734,0-11.4043A25.3232,25.3232,0,0,0,178.8979,129.7178Z" style="fill: #338500"/>
          <path d="M175.84,129.7178l2.7471.1933s-1.2461-4.2734,0-11.4043A25.3148,25.3148,0,0,0,175.84,129.7178Z" style="fill: #338500"/>
          <path d="M172.7813,129.7178l2.747.1933s-1.2456-4.2734,0-11.4043A25.3222,25.3222,0,0,0,172.7813,129.7178Z" style="fill: #338500"/>
          <path d="M168.1938,129.7178l2.7471.1933s-1.2456-4.2734,0-11.4043A25.3232,25.3232,0,0,0,168.1938,129.7178Z" style="fill: #338500"/>
          <path d="M163.6064,129.7178l2.7471.1933s-1.2456-4.2734,0-11.4043A25.3232,25.3232,0,0,0,163.6064,129.7178Z" style="fill: #338500"/>
          <path d="M160.5483,129.7178l2.7471.1933s-1.2461-4.2734,0-11.4043A25.3148,25.3148,0,0,0,160.5483,129.7178Z" style="fill: #338500"/>
          <path d="M155.9609,129.7178l2.7471.1933s-1.2461-4.2734,0-11.4043A25.3148,25.3148,0,0,0,155.9609,129.7178Z" style="fill: #338500"/>
          <path d="M171.2524,129.7178l2.7471.1933s-1.2461-4.2734,0-11.4043A25.3148,25.3148,0,0,0,171.2524,129.7178Z" style="fill: #338500"/>
          <path d="M180.4272,129.7178l2.7471.1933s-1.2456-4.2734,0-11.4043A25.3148,25.3148,0,0,0,180.4272,129.7178Z" style="fill: #338500"/>
          <path d="M204.8936,129.7178l2.747.1933s-1.2456-4.2734,0-11.4043A25.3222,25.3222,0,0,0,204.8936,129.7178Z" style="fill: #338500"/>
          <path d="M217.127,129.7178l2.747.1933s-1.2461-4.2734,0-11.4043A25.3137,25.3137,0,0,0,217.127,129.7178Z" style="fill: #338500"/>
          <path d="M220.1851,129.7178l2.747.1933s-1.2456-4.2734,0-11.4043A25.3222,25.3222,0,0,0,220.1851,129.7178Z" style="fill: #338500"/>
          <path d="M152.9023,129.7178l2.7471.1933s-1.2456-4.2734,0-11.4043A25.3232,25.3232,0,0,0,152.9023,129.7178Z" style="fill: #338500"/>
          <path d="M148.3149,129.7178l2.7471.1933s-1.2456-4.2734,0-11.4043A25.3232,25.3232,0,0,0,148.3149,129.7178Z" style="fill: #338500"/>
          <path d="M143.7275,129.7178l2.7471.1933s-1.2456-4.2734,0-11.4043A25.3148,25.3148,0,0,0,143.7275,129.7178Z" style="fill: #338500"/>
          <path d="M139.14,129.7178l2.7471.1933s-1.2456-4.2734,0-11.4043A25.3148,25.3148,0,0,0,139.14,129.7178Z" style="fill: #338500"/>
          <path d="M136.082,129.7178l2.7471.1933s-1.2461-4.2734,0-11.4043A25.3148,25.3148,0,0,0,136.082,129.7178Z" style="fill: #338500"/>
          <path d="M131.4941,129.7178l2.7471.1933s-1.2456-4.2734,0-11.4043A25.3232,25.3232,0,0,0,131.4941,129.7178Z" style="fill: #338500"/>
          <path d="M126.9067,129.7178l2.7471.1933s-1.2456-4.2734,0-11.4043A25.3232,25.3232,0,0,0,126.9067,129.7178Z" style="fill: #338500"/>
          <path d="M123.8486,129.7178l2.7471.1933s-1.2456-4.2734,0-11.4043A25.3148,25.3148,0,0,0,123.8486,129.7178Z" style="fill: #338500"/>
          <path d="M128.436,129.7178l2.7471.1933s-1.2456-4.2734,0-11.4043A25.3148,25.3148,0,0,0,128.436,129.7178Z" style="fill: #338500"/>
          <path d="M120.7905,129.7178l2.7471.1933s-1.2461-4.2734,0-11.4043A25.3148,25.3148,0,0,0,120.7905,129.7178Z" style="fill: #338500"/>
          <path d="M116.2031,129.7178l2.7466.1933s-1.2456-4.2734,0-11.4043A25.318,25.318,0,0,0,116.2031,129.7178Z" style="fill: #338500"/>
          <path d="M111.6152,129.7178l2.7471.1933s-1.2456-4.2734,0-11.4043A25.3232,25.3232,0,0,0,111.6152,129.7178Z" style="fill: #338500"/>
          <path d="M107.0278,129.7178l2.7471.1933s-1.2456-4.2734,0-11.4043A25.3232,25.3232,0,0,0,107.0278,129.7178Z" style="fill: #338500"/>
          <path d="M103.97,129.7178l2.7471.1933s-1.2461-4.2734,0-11.4043A25.3148,25.3148,0,0,0,103.97,129.7178Z" style="fill: #338500"/>
          <path d="M99.3823,129.7178l2.7471.1933s-1.2461-4.2734,0-11.4043A25.3148,25.3148,0,0,0,99.3823,129.7178Z" style="fill: #338500"/>
          <path d="M96.3237,129.7178l2.7471.1933s-1.2456-4.2734,0-11.4043A25.3232,25.3232,0,0,0,96.3237,129.7178Z" style="fill: #338500"/>
          <path d="M91.7363,129.7178l2.7471.1933s-1.2456-4.2734,0-11.4043A25.3232,25.3232,0,0,0,91.7363,129.7178Z" style="fill: #338500"/>
          <path d="M88.6782,129.7178l2.7471.1933s-1.2461-4.2734,0-11.4043A25.3148,25.3148,0,0,0,88.6782,129.7178Z" style="fill: #338500"/>
          <path d="M82.5615,129.7178l2.7471.1933s-1.2461-4.2734,0-11.4043A25.3148,25.3148,0,0,0,82.5615,129.7178Z" style="fill: #338500"/>
          <path d="M77.9741,129.7178l2.7471.1933s-1.2461-4.2734,0-11.4043A25.3148,25.3148,0,0,0,77.9741,129.7178Z" style="fill: #338500"/>
          <path d="M74.916,129.7178l2.7466.1933s-1.2456-4.2734,0-11.4043A25.318,25.318,0,0,0,74.916,129.7178Z" style="fill: #338500"/>
          <path d="M79.5034,129.7178l2.7466.1933s-1.2456-4.2734,0-11.4043A25.318,25.318,0,0,0,79.5034,129.7178Z" style="fill: #338500"/>
          <path d="M71.8574,129.7178l2.7471.1933s-1.2461-4.2734,0-11.4043A25.3148,25.3148,0,0,0,71.8574,129.7178Z" style="fill: #338500"/>
          <path d="M67.27,129.7178l2.7471.1933s-1.2461-4.2734,0-11.4043A25.3148,25.3148,0,0,0,67.27,129.7178Z" style="fill: #338500"/>
          <path d="M64.2119,129.7178l2.7466.1933s-1.2456-4.2734,0-11.4043A25.318,25.318,0,0,0,64.2119,129.7178Z" style="fill: #338500"/>
          <path d="M59.624,129.7178l2.7471.1933s-1.2456-4.2734,0-11.4043A25.3215,25.3215,0,0,0,59.624,129.7178Z" style="fill: #338500"/>
          <path d="M53.5078,129.7178l2.7466.1933s-1.2456-4.2734,0-11.4043A25.3163,25.3163,0,0,0,53.5078,129.7178Z" style="fill: #338500"/>
          <path d="M55.0366,129.7178l2.7471.1933s-1.2456-4.2734,0-11.4043A25.3215,25.3215,0,0,0,55.0366,129.7178Z" style="fill: #338500"/>
          <path d="M53.5078,129.7178l2.7466.1933s-1.2456-4.2734,0-11.4043A25.3163,25.3163,0,0,0,53.5078,129.7178Z" style="fill: #338500"/>
          <path d="M50.4492,129.7178l2.7471.1933s-1.2456-4.2734,0-11.4043A25.3215,25.3215,0,0,0,50.4492,129.7178Z" style="fill: #338500"/>
          <path d="M47.3911,129.7178l2.7471.1933s-1.2461-4.2734,0-11.4043A25.3131,25.3131,0,0,0,47.3911,129.7178Z" style="fill: #338500"/>
          <path d="M42.8037,129.7178l2.7471.1933s-1.2461-4.2734,0-11.4043A25.3131,25.3131,0,0,0,42.8037,129.7178Z" style="fill: #338500"/>
          <path d="M39.7451,129.7178l2.7471.1933s-1.2456-4.2734,0-11.4043A25.3215,25.3215,0,0,0,39.7451,129.7178Z" style="fill: #338500"/>
          <path d="M35.1577,129.7178l2.7471.1933s-1.2456-4.2734,0-11.4043A25.3215,25.3215,0,0,0,35.1577,129.7178Z" style="fill: #338500"/>
          <path d="M30.57,129.7178l2.7471.1933s-1.2461-4.2734,0-11.4043A25.3215,25.3215,0,0,0,30.57,129.7178Z" style="fill: #338500"/>
          <path d="M27.5122,129.7178l2.7466.1933s-1.2456-4.2734,0-11.4043A25.3163,25.3163,0,0,0,27.5122,129.7178Z" style="fill: #338500"/>
          <path d="M22.9248,129.7178l2.7466.1933s-1.2456-4.2734,0-11.4043A25.3163,25.3163,0,0,0,22.9248,129.7178Z" style="fill: #338500"/>
          <path d="M18.3369,129.7178l2.7471.1933s-1.2456-4.2734,0-11.4043A25.3215,25.3215,0,0,0,18.3369,129.7178Z" style="fill: #338500"/>
          <path d="M13.75,129.7178l2.7471.1933s-1.2456-4.2734,0-11.4043A25.3215,25.3215,0,0,0,13.75,129.7178Z" style="fill: #338500"/>
          <path d="M10.6914,129.7178l2.7471.1933s-1.2461-4.2734,0-11.4043A25.3131,25.3131,0,0,0,10.6914,129.7178Z" style="fill: #338500"/>
          <path d="M3.0454,129.7178l2.7471.1933s-1.2456-4.2734,0-11.4043A25.3215,25.3215,0,0,0,3.0454,129.7178Z" style="fill: #338500"/>
          <path d="M1.2051,118.5068A28.0419,28.0419,0,0,0,0,121.374v8.4522l1.2051.0849S-.04,125.6377,1.2051,118.5068Z" style="fill: #338500"/>
          <path d="M221.7012,129.7178l4.2148.1933s-1.9116-4.2734,0-11.4043C221.3286,124.6191,221.7012,129.7178,221.7012,129.7178Z" style="fill: #378f00"/>
          <path d="M189.5889,129.7178l4.2148.1933s-1.9111-4.2734,0-11.4043C189.2163,124.6191,189.5889,129.7178,189.5889,129.7178Z" style="fill: #378f00"/>
          <path d="M157.4771,129.7178l4.2148.1933s-1.9116-4.2734,0-11.4043C157.104,124.6191,157.4771,129.7178,157.4771,129.7178Z" style="fill: #378f00"/>
          <path d="M125.3647,129.7178l4.2149.1933s-1.9116-4.2734,0-11.4043C124.9922,124.6191,125.3647,129.7178,125.3647,129.7178Z" style="fill: #378f00"/>
          <path d="M93.2524,129.7178l4.2149.1933s-1.9116-4.2734,0-11.4043C92.88,124.6191,93.2524,129.7178,93.2524,129.7178Z" style="fill: #378f00"/>
          <path d="M76.4321,129.7178l4.2144.1933s-1.9111-4.2734,0-11.4043C76.0591,124.6191,76.4321,129.7178,76.4321,129.7178Z" style="fill: #378f00"/>
          <path d="M44.32,129.7178l4.2144.1933s-1.9112-4.2734,0-11.4043C43.9468,124.6191,44.32,129.7178,44.32,129.7178Z" style="fill: #378f00"/>
          <path d="M12.2075,129.7178l4.2149.1933s-1.9117-4.2734,0-11.4043C11.835,124.6191,12.2075,129.7178,12.2075,129.7178Z" style="fill: #378f00"/>
          <path d="M214.0557,129.7178l4.2148.1933s-1.9116-4.2734,0-11.4043C213.6831,124.6191,214.0557,129.7178,214.0557,129.7178Z" style="fill: #378f00"/>
          <path d="M181.9434,129.7178l4.2148.1933s-1.9116-4.2734,0-11.4043C181.5708,124.6191,181.9434,129.7178,181.9434,129.7178Z" style="fill: #378f00"/>
          <path d="M149.8311,129.7178l4.2148.1933s-1.9116-4.2734,0-11.4043C149.4585,124.6191,149.8311,129.7178,149.8311,129.7178Z" style="fill: #378f00"/>
          <path d="M117.7192,129.7178l4.2144.1933s-1.9111-4.2734,0-11.4043C117.3462,124.6191,117.7192,129.7178,117.7192,129.7178Z" style="fill: #378f00"/>
          <path d="M85.6069,129.7178l4.2144.1933s-1.9111-4.2734,0-11.4043C85.2339,124.6191,85.6069,129.7178,85.6069,129.7178Z" style="fill: #378f00"/>
          <path d="M68.7861,129.7178l4.2149.1933s-1.9116-4.2734,0-11.4043C68.4136,124.6191,68.7861,129.7178,68.7861,129.7178Z" style="fill: #378f00"/>
          <path d="M36.6738,129.7178l4.2149.1933s-1.9116-4.2734,0-11.4043C36.3013,124.6191,36.6738,129.7178,36.6738,129.7178Z" style="fill: #378f00"/>
          <path d="M24.2192,129.7178l4.2149.1933s-1.9116-4.2734,0-11.4043C23.8467,124.6191,24.2192,129.7178,24.2192,129.7178Z" style="fill: #378f00"/>
          <path d="M4.562,129.7178l4.2144.1933s-1.9117-4.2734,0-11.4043C4.189,124.6191,4.562,129.7178,4.562,129.7178Z" style="fill: #378f00"/>
          <path d="M197.3794,129.7178l4.2144.1933s-1.9112-4.2734,0-11.4043C197.0063,124.6191,197.3794,129.7178,197.3794,129.7178Z" style="fill: #378f00"/>
          <path d="M165.2671,129.7178l4.2143.1933s-1.9111-4.2734,0-11.4043C164.894,124.6191,165.2671,129.7178,165.2671,129.7178Z" style="fill: #378f00"/>
          <path d="M133.1548,129.7178l4.2148.1933s-1.9116-4.2734,0-11.4043C132.7817,124.6191,133.1548,129.7178,133.1548,129.7178Z" style="fill: #378f00"/>
          <path d="M101.0425,129.7178l4.2148.1933s-1.9116-4.2734,0-11.4043C100.67,124.6191,101.0425,129.7178,101.0425,129.7178Z" style="fill: #378f00"/>
          <path d="M68.93,129.7178l4.2148.1933s-1.9116-4.2734,0-11.4043C68.5576,124.6191,68.93,129.7178,68.93,129.7178Z" style="fill: #378f00"/>
          <path d="M52.11,129.7178l4.2143.1933s-1.9111-4.2734,0-11.4043C51.7368,124.6191,52.11,129.7178,52.11,129.7178Z" style="fill: #378f00"/>
          <path d="M19.9976,129.7178l4.2148.1933s-1.9116-4.2734,0-11.4043C19.625,124.6191,19.9976,129.7178,19.9976,129.7178Z" style="fill: #378f00"/>
          <path d="M0,129.5713v.334l.1279.0058S.0752,129.7881,0,129.5713Z" style="fill: #378f00"/>
          <path d="M.1279,118.5068c-.0454.0606-.0835.12-.1279.1807v.3486C.0435,118.8594.08,118.6885.1279,118.5068Z" style="fill: #378f00"/>
        </g>
        <path d="M263.85,129.6738l2.9131.2373s-1.3213-5.2451,0-13.997A35.26,35.26,0,0,0,263.85,129.6738Z" style="fill: #2c7300"/>
        <path d="M251.4072,129.6738l2.9131.2373s-1.3213-5.2451,0-13.997A35.26,35.26,0,0,0,251.4072,129.6738Z" style="fill: #2c7300"/>
        <path d="M243.7607,129.6738l2.9141.2373s-1.3213-5.2451,0-13.997A35.2508,35.2508,0,0,0,243.7607,129.6738Z" style="fill: #2c7300"/>
        <path d="M236.1152,129.6738l2.9141.2373s-1.3213-5.2451,0-13.997A35.2508,35.2508,0,0,0,236.1152,129.6738Z" style="fill: #2c7300"/>
        <path d="M227.45,129.6738l2.9141.2373s-1.3213-5.2451,0-13.997A35.2508,35.2508,0,0,0,227.45,129.6738Z" style="fill: #2c7300"/>
        <path d="M267.208,129.6738l2.9141.2373s-1.3213-5.2451,0-13.997A35.2508,35.2508,0,0,0,267.208,129.6738Z" style="fill: #2c7300"/>
        <path d="M276.3828,129.6738l2.9141.2373s-1.3213-5.2451,0-13.997A35.2508,35.2508,0,0,0,276.3828,129.6738Z" style="fill: #2c7300"/>
        <path d="M284.0293,129.6738l2.9131.2373s-1.3213-5.2451,0-13.997A35.26,35.26,0,0,0,284.0293,129.6738Z" style="fill: #2c7300"/>
        <path d="M291.6748,129.6738l2.9131.2373s-1.3213-5.2451,0-13.997A35.26,35.26,0,0,0,291.6748,129.6738Z" style="fill: #2c7300"/>
        <path d="M300.85,129.6738l2.9141.2373s-1.3223-5.2451,0-13.997A35.2508,35.2508,0,0,0,300.85,129.6738Z" style="fill: #2c7300"/>
        <path d="M308.4951,129.6738l2.9141.2373s-1.3213-5.2451,0-13.997A35.2508,35.2508,0,0,0,308.4951,129.6738Z" style="fill: #2c7300"/>
        <path d="M316.1406,129.6738l2.9141.2373s-1.3213-5.2451,0-13.997A35.2508,35.2508,0,0,0,316.1406,129.6738Z" style="fill: #2c7300"/>
        <path d="M325.3164,129.6738l2.9131.2373s-1.3213-5.2451,0-13.997A35.26,35.26,0,0,0,325.3164,129.6738Z" style="fill: #2c7300"/>
        <path d="M332.9619,129.6738l2.9131.2373s-1.3213-5.2451,0-13.997A35.26,35.26,0,0,0,332.9619,129.6738Z" style="fill: #2c7300"/>
        <path d="M340.6074,129.6738l2.9141.2373s-1.3213-5.2451,0-13.997A35.2508,35.2508,0,0,0,340.6074,129.6738Z" style="fill: #2c7300"/>
        <path d="M348.2529,129.6738l2.9141.2373s-1.3213-5.2451,0-13.997A35.2508,35.2508,0,0,0,348.2529,129.6738Z" style="fill: #2c7300"/>
        <path d="M357.4277,129.6738l2.9141.2373s-1.3213-5.2451,0-13.997A35.2508,35.2508,0,0,0,357.4277,129.6738Z" style="fill: #2c7300"/>
        <path d="M365.0742,129.6738l2.9131.2373s-1.3213-5.2451,0-13.997A35.26,35.26,0,0,0,365.0742,129.6738Z" style="fill: #2c7300"/>
        <path d="M372.72,129.6738l2.9141.2373s-1.3213-5.2451,0-13.997A35.2508,35.2508,0,0,0,372.72,129.6738Z" style="fill: #2c7300"/>
        <path d="M380.3652,129.6738l2.9141.2373s-1.3213-5.2451,0-13.997A35.2508,35.2508,0,0,0,380.3652,129.6738Z" style="fill: #2c7300"/>
        <path d="M389.54,129.6738l2.9141.2373s-1.3213-5.2451,0-13.997A35.2508,35.2508,0,0,0,389.54,129.6738Z" style="fill: #2c7300"/>
        <path d="M397.1865,129.6738l2.9131.2373s-1.3213-5.2451,0-13.997A35.26,35.26,0,0,0,397.1865,129.6738Z" style="fill: #2c7300"/>
        <path d="M404.832,129.6738l2.9141.2373s-1.3223-5.2451,0-13.997A35.2508,35.2508,0,0,0,404.832,129.6738Z" style="fill: #2c7300"/>
        <path d="M412.4775,129.6738l2.9141.2373s-1.3213-5.2451,0-13.997A35.2508,35.2508,0,0,0,412.4775,129.6738Z" style="fill: #2c7300"/>
        <path d="M421.6523,129.6738l2.9141.2373s-1.3213-5.2451,0-13.997A35.2508,35.2508,0,0,0,421.6523,129.6738Z" style="fill: #2c7300"/>
        <path d="M429.2979,129.6738l2.914.2373s-1.3213-5.2451,0-13.997A35.2716,35.2716,0,0,0,429.2979,129.6738Z" style="fill: #2c7300"/>
        <path d="M436.9443,129.6738l2.9131.2373s-1.3213-5.2451,0-13.997A35.26,35.26,0,0,0,436.9443,129.6738Z" style="fill: #2c7300"/>
        <path d="M444.59,129.6738l2.9141.2373s-1.3223-5.2451,0-13.997A35.2508,35.2508,0,0,0,444.59,129.6738Z" style="fill: #2c7300"/>
        <path d="M297.4209,129.6738l2.9141.2373s-1.3213-5.2451,0-13.997A35.2508,35.2508,0,0,0,297.4209,129.6738Z" style="fill: #2c7300"/>
        <path d="M320.3584,129.6738l2.9141.2373s-1.3223-5.2451,0-13.997A35.2508,35.2508,0,0,0,320.3584,129.6738Z" style="fill: #2c7300"/>
        <path d="M344.8242,129.6738l2.9141.2373s-1.3213-5.2451,0-13.997A35.2508,35.2508,0,0,0,344.8242,129.6738Z" style="fill: #2c7300"/>
        <path d="M376.9365,129.6738l2.9141.2373s-1.3213-5.2451,0-13.997A35.2508,35.2508,0,0,0,376.9365,129.6738Z" style="fill: #2c7300"/>
        <path d="M409.0488,129.6738l2.9141.2373s-1.3213-5.2451,0-13.997A35.2508,35.2508,0,0,0,409.0488,129.6738Z" style="fill: #2c7300"/>
        <path d="M441.1611,129.6738l2.9141.2373s-1.3213-5.2451,0-13.997A35.2508,35.2508,0,0,0,441.1611,129.6738Z" style="fill: #2c7300"/>
        <path d="M442.9316,129.7178l2.7471.1933s-1.2461-4.2734,0-11.4043A25.3148,25.3148,0,0,0,442.9316,129.7178Z" style="fill: #338500"/>
        <path d="M438.3438,129.7178l2.747.1933s-1.2451-4.2734,0-11.4043A25.3306,25.3306,0,0,0,438.3438,129.7178Z" style="fill: #338500"/>
        <path d="M435.2861,129.7178l2.7471.1933s-1.2461-4.2734,0-11.4043A25.3148,25.3148,0,0,0,435.2861,129.7178Z" style="fill: #338500"/>
        <path d="M430.6982,129.7178l2.7471.1933s-1.2461-4.2734,0-11.4043A25.3148,25.3148,0,0,0,430.6982,129.7178Z" style="fill: #338500"/>
        <path d="M427.64,129.7178l2.7471.1933s-1.2451-4.2734,0-11.4043A25.3316,25.3316,0,0,0,427.64,129.7178Z" style="fill: #338500"/>
        <path d="M423.0527,129.7178l2.7471.1933s-1.2461-4.2734,0-11.4043A25.3148,25.3148,0,0,0,423.0527,129.7178Z" style="fill: #338500"/>
        <path d="M419.9941,129.7178l2.7471.1933s-1.2451-4.2734,0-11.4043A25.3316,25.3316,0,0,0,419.9941,129.7178Z" style="fill: #338500"/>
        <path d="M413.8779,129.7178l2.7471.1933s-1.2461-4.2734,0-11.4043A25.3148,25.3148,0,0,0,413.8779,129.7178Z" style="fill: #338500"/>
        <path d="M410.8193,129.7178l2.7471.1933s-1.2461-4.2734,0-11.4043A25.3148,25.3148,0,0,0,410.8193,129.7178Z" style="fill: #338500"/>
        <path d="M407.7607,129.7178l2.7471.1933s-1.2451-4.2734,0-11.4043A25.3316,25.3316,0,0,0,407.7607,129.7178Z" style="fill: #338500"/>
        <path d="M403.1738,129.7178l2.7471.1933s-1.2461-4.2734,0-11.4043A25.3148,25.3148,0,0,0,403.1738,129.7178Z" style="fill: #338500"/>
        <path d="M398.5859,129.7178l2.7471.1933s-1.2451-4.2734,0-11.4043A25.3316,25.3316,0,0,0,398.5859,129.7178Z" style="fill: #338500"/>
        <path d="M395.5283,129.7178l2.7471.1933s-1.2461-4.2734,0-11.4043A25.3148,25.3148,0,0,0,395.5283,129.7178Z" style="fill: #338500"/>
        <path d="M390.94,129.7178l2.7471.1933s-1.2461-4.2734,0-11.4043A25.3148,25.3148,0,0,0,390.94,129.7178Z" style="fill: #338500"/>
        <path d="M406.2324,129.7178l2.7471.1933s-1.2461-4.2734,0-11.4043A25.3148,25.3148,0,0,0,406.2324,129.7178Z" style="fill: #338500"/>
        <path d="M415.4072,129.7178l2.7471.1933s-1.2461-4.2734,0-11.4043A25.3148,25.3148,0,0,0,415.4072,129.7178Z" style="fill: #338500"/>
        <path d="M439.873,129.7178l2.7471.1933s-1.2451-4.2734,0-11.4043A25.3316,25.3316,0,0,0,439.873,129.7178Z" style="fill: #338500"/>
        <path d="M387.8818,129.7178l2.7471.1933s-1.2451-4.2734,0-11.4043A25.33,25.33,0,0,0,387.8818,129.7178Z" style="fill: #338500"/>
        <path d="M383.2949,129.7178l2.7471.1933s-1.2461-4.2734,0-11.4043A25.3148,25.3148,0,0,0,383.2949,129.7178Z" style="fill: #338500"/>
        <path d="M378.707,129.7178l2.7471.1933s-1.2451-4.2734,0-11.4043A25.33,25.33,0,0,0,378.707,129.7178Z" style="fill: #338500"/>
        <path d="M374.12,129.7178l2.7471.1933s-1.2461-4.2734,0-11.4043A25.3148,25.3148,0,0,0,374.12,129.7178Z" style="fill: #338500"/>
        <path d="M371.0615,129.7178l2.7471.1933s-1.2461-4.2734,0-11.4043A25.3148,25.3148,0,0,0,371.0615,129.7178Z" style="fill: #338500"/>
        <path d="M366.4736,129.7178l2.7471.1933s-1.2451-4.2734,0-11.4043A25.33,25.33,0,0,0,366.4736,129.7178Z" style="fill: #338500"/>
        <path d="M361.8867,129.7178l2.7471.1933s-1.2461-4.2734,0-11.4043A25.3148,25.3148,0,0,0,361.8867,129.7178Z" style="fill: #338500"/>
        <path d="M358.8281,129.7178l2.7471.1933s-1.2461-4.2734,0-11.4043A25.3148,25.3148,0,0,0,358.8281,129.7178Z" style="fill: #338500"/>
        <path d="M363.416,129.7178l2.7471.1933s-1.2461-4.2734,0-11.4043A25.3148,25.3148,0,0,0,363.416,129.7178Z" style="fill: #338500"/>
        <path d="M355.77,129.7178l2.7471.1933s-1.2451-4.2734,0-11.4043A25.33,25.33,0,0,0,355.77,129.7178Z" style="fill: #338500"/>
        <path d="M351.1826,129.7178l2.7471.1933s-1.2461-4.2734,0-11.4043A25.3148,25.3148,0,0,0,351.1826,129.7178Z" style="fill: #338500"/>
        <path d="M346.5947,129.7178l2.7471.1933s-1.2451-4.2734,0-11.4043A25.33,25.33,0,0,0,346.5947,129.7178Z" style="fill: #338500"/>
        <path d="M342.0078,129.7178l2.7471.1933s-1.2461-4.2734,0-11.4043A25.3131,25.3131,0,0,0,342.0078,129.7178Z" style="fill: #338500"/>
        <path d="M338.9492,129.7178l2.7471.1933s-1.2461-4.2734,0-11.4043A25.3148,25.3148,0,0,0,338.9492,129.7178Z" style="fill: #338500"/>
        <path d="M334.3623,129.7178l2.7471.1933s-1.2461-4.2734,0-11.4043A25.3131,25.3131,0,0,0,334.3623,129.7178Z" style="fill: #338500"/>
        <path d="M331.3037,129.7178l2.7471.1933s-1.2461-4.2734,0-11.4043A25.3131,25.3131,0,0,0,331.3037,129.7178Z" style="fill: #338500"/>
        <path d="M326.7158,129.7178l2.7471.1933s-1.2461-4.2734,0-11.4043A25.3148,25.3148,0,0,0,326.7158,129.7178Z" style="fill: #338500"/>
        <path d="M323.6582,129.7178l2.7461.1933s-1.2451-4.2734,0-11.4043A25.3194,25.3194,0,0,0,323.6582,129.7178Z" style="fill: #338500"/>
        <path d="M317.541,129.7178l2.7471.1933s-1.2461-4.2734,0-11.4043A25.3148,25.3148,0,0,0,317.541,129.7178Z" style="fill: #338500"/>
        <path d="M312.9541,129.7178l2.7471.1933s-1.2461-4.2734,0-11.4043A25.3131,25.3131,0,0,0,312.9541,129.7178Z" style="fill: #338500"/>
        <path d="M309.8955,129.7178l2.7471.1933s-1.2461-4.2734,0-11.4043A25.3131,25.3131,0,0,0,309.8955,129.7178Z" style="fill: #338500"/>
        <path d="M314.4824,129.7178l2.7471.1933s-1.2451-4.2734,0-11.4043A25.33,25.33,0,0,0,314.4824,129.7178Z" style="fill: #338500"/>
        <path d="M306.8369,129.7178l2.7471.1933s-1.2461-4.2734,0-11.4043A25.3148,25.3148,0,0,0,306.8369,129.7178Z" style="fill: #338500"/>
        <path d="M302.25,129.7178l2.7471.1933s-1.2461-4.2734,0-11.4043A25.3131,25.3131,0,0,0,302.25,129.7178Z" style="fill: #338500"/>
        <path d="M299.1914,129.7178l2.7471.1933s-1.2461-4.2734,0-11.4043A25.3131,25.3131,0,0,0,299.1914,129.7178Z" style="fill: #338500"/>
        <path d="M294.6035,129.7178l2.7471.1933s-1.2451-4.2734,0-11.4043A25.33,25.33,0,0,0,294.6035,129.7178Z" style="fill: #338500"/>
        <path d="M288.4873,129.7178l2.7471.1933s-1.2461-4.2734,0-11.4043A25.3131,25.3131,0,0,0,288.4873,129.7178Z" style="fill: #338500"/>
        <path d="M290.0166,129.7178l2.7471.1933s-1.2461-4.2734,0-11.4043A25.3131,25.3131,0,0,0,290.0166,129.7178Z" style="fill: #338500"/>
        <path d="M288.4873,129.7178l2.7471.1933s-1.2461-4.2734,0-11.4043A25.3131,25.3131,0,0,0,288.4873,129.7178Z" style="fill: #338500"/>
        <path d="M285.4287,129.7178l2.7471.1933s-1.2451-4.2734,0-11.4043A25.3131,25.3131,0,0,0,285.4287,129.7178Z" style="fill: #338500"/>
        <path d="M282.3711,129.7178l2.7471.1933s-1.2461-4.2734,0-11.4043A25.3131,25.3131,0,0,0,282.3711,129.7178Z" style="fill: #338500"/>
        <path d="M277.7832,129.7178l2.7471.1933s-1.2461-4.2734,0-11.4043A25.3131,25.3131,0,0,0,277.7832,129.7178Z" style="fill: #338500"/>
        <path d="M274.7246,129.7178l2.7471.1933s-1.2451-4.2734,0-11.4043A25.33,25.33,0,0,0,274.7246,129.7178Z" style="fill: #338500"/>
        <path d="M270.1377,129.7178l2.7471.1933s-1.2461-4.2734,0-11.4043A25.3131,25.3131,0,0,0,270.1377,129.7178Z" style="fill: #338500"/>
        <path d="M265.55,129.7178l2.7471.1933s-1.2451-4.2734,0-11.4043A25.3131,25.3131,0,0,0,265.55,129.7178Z" style="fill: #338500"/>
        <path d="M262.4922,129.7178l2.7471.1933s-1.2461-4.2734,0-11.4043A25.3131,25.3131,0,0,0,262.4922,129.7178Z" style="fill: #338500"/>
        <path d="M257.9043,129.7178l2.7471.1933s-1.2461-4.2734,0-11.4043A25.3131,25.3131,0,0,0,257.9043,129.7178Z" style="fill: #338500"/>
        <path d="M253.3164,129.7178l2.7471.1933s-1.2451-4.2734,0-11.4043A25.33,25.33,0,0,0,253.3164,129.7178Z" style="fill: #338500"/>
        <path d="M248.73,129.7178l2.7471.1933s-1.2461-4.2734,0-11.4043A25.3131,25.3131,0,0,0,248.73,129.7178Z" style="fill: #338500"/>
        <path d="M245.6709,129.7178l2.7471.1933s-1.2461-4.2734,0-11.4043A25.3131,25.3131,0,0,0,245.6709,129.7178Z" style="fill: #338500"/>
        <path d="M238.0254,129.7178l2.7471.1933s-1.2461-4.2734,0-11.4043A25.3131,25.3131,0,0,0,238.0254,129.7178Z" style="fill: #338500"/>
        <path d="M233.4375,129.7178l2.7471.1933s-1.2451-4.2734,0-11.4043A25.33,25.33,0,0,0,233.4375,129.7178Z" style="fill: #338500"/>
        <path d="M228.8506,129.7178l2.7471.1933s-1.2461-4.2734,0-11.4043A25.3131,25.3131,0,0,0,228.8506,129.7178Z" style="fill: #338500"/>
        <path d="M225.9209,129.7178l2.7471.1933s-1.2461-4.2734,0-11.4043A25.3131,25.3131,0,0,0,225.9209,129.7178Z" style="fill: #338500"/>
        <rect y="126.4795" width="450" height="8.459" style="fill: #378f00"/>
        <path d="M424.5684,129.7178l4.2148.1933s-1.9111-4.2734,0-11.4043C424.1963,124.6191,424.5684,129.7178,424.5684,129.7178Z" style="fill: #378f00"/>
        <path d="M392.457,129.7178l4.2139.1933s-1.9111-4.2734,0-11.4043C392.084,124.6191,392.457,129.7178,392.457,129.7178Z" style="fill: #378f00"/>
        <path d="M360.3447,129.7178l4.2139.1933s-1.9111-4.2734,0-11.4043C359.9717,124.6191,360.3447,129.7178,360.3447,129.7178Z" style="fill: #378f00"/>
        <path d="M328.2324,129.7178l4.2149.1933s-1.9121-4.2734,0-11.4043C327.8594,124.6191,328.2324,129.7178,328.2324,129.7178Z" style="fill: #378f00"/>
        <path d="M311.4111,129.7178l4.2149.1933s-1.9112-4.2734,0-11.4043C311.0391,124.6191,311.4111,129.7178,311.4111,129.7178Z" style="fill: #378f00"/>
        <path d="M279.3,129.7178l4.2139.1933s-1.9112-4.2734,0-11.4043C278.9268,124.6191,279.3,129.7178,279.3,129.7178Z" style="fill: #378f00"/>
        <path d="M247.1875,129.7178l4.2148.1933s-1.9121-4.2734,0-11.4043C246.8145,124.6191,247.1875,129.7178,247.1875,129.7178Z" style="fill: #378f00"/>
        <path d="M449.0352,129.7178l.9648.0439V124.49A14.3662,14.3662,0,0,0,449.0352,129.7178Z" style="fill: #378f00"/>
        <path d="M416.9229,129.7178l4.2148.1933s-1.9111-4.2734,0-11.4043C416.5508,124.6191,416.9229,129.7178,416.9229,129.7178Z" style="fill: #378f00"/>
        <path d="M384.8105,129.7178l4.2149.1933s-1.9111-4.2734,0-11.4043C384.4385,124.6191,384.8105,129.7178,384.8105,129.7178Z" style="fill: #378f00"/>
        <path d="M352.6982,129.7178l4.2149.1933s-1.9111-4.2734,0-11.4043C352.3262,124.6191,352.6982,129.7178,352.6982,129.7178Z" style="fill: #378f00"/>
        <path d="M320.5869,129.7178l4.2139.1933s-1.9112-4.2734,0-11.4043C320.2139,124.6191,320.5869,129.7178,320.5869,129.7178Z" style="fill: #378f00"/>
        <path d="M303.7656,129.7178l4.2149.1933s-1.9112-4.2734,0-11.4043C303.3936,124.6191,303.7656,129.7178,303.7656,129.7178Z" style="fill: #378f00"/>
        <path d="M271.6533,129.7178l4.2149.1933s-1.9112-4.2734,0-11.4043C271.2813,124.6191,271.6533,129.7178,271.6533,129.7178Z" style="fill: #378f00"/>
        <path d="M259.1992,129.7178l4.2149.1933s-1.9121-4.2734,0-11.4043C258.8262,124.6191,259.1992,129.7178,259.1992,129.7178Z" style="fill: #378f00"/>
        <path d="M239.541,129.7178l4.2149.1933s-1.9112-4.2734,0-11.4043C239.1689,124.6191,239.541,129.7178,239.541,129.7178Z" style="fill: #378f00"/>
        <path d="M432.3584,129.7178l4.2148.1933s-1.9111-4.2734,0-11.4043C431.9863,124.6191,432.3584,129.7178,432.3584,129.7178Z" style="fill: #378f00"/>
        <path d="M400.2461,129.7178l4.2148.1933s-1.9111-4.2734,0-11.4043C399.874,124.6191,400.2461,129.7178,400.2461,129.7178Z" style="fill: #378f00"/>
        <path d="M368.1348,129.7178l4.2138.1933s-1.9111-4.2734,0-11.4043C367.7617,124.6191,368.1348,129.7178,368.1348,129.7178Z" style="fill: #378f00"/>
        <path d="M336.0225,129.7178l4.2148.1933s-1.9121-4.2734,0-11.4043C335.6494,124.6191,336.0225,129.7178,336.0225,129.7178Z" style="fill: #378f00"/>
        <path d="M303.91,129.7178l4.2148.1933s-1.9121-4.2734,0-11.4043C303.5371,124.6191,303.91,129.7178,303.91,129.7178Z" style="fill: #378f00"/>
        <path d="M287.09,129.7178l4.2139.1933s-1.9111-4.2734,0-11.4043C286.7168,124.6191,287.09,129.7178,287.09,129.7178Z" style="fill: #378f00"/>
        <path d="M254.9775,129.7178l4.2139.1933s-1.9111-4.2734,0-11.4043C254.6045,124.6191,254.9775,129.7178,254.9775,129.7178Z" style="fill: #378f00"/>
        <path d="M225.916,120.2119v9.6455l1.1641.0537s-1.9116-4.2734,0-11.4043C226.6445,119.0869,226.2666,119.6543,225.916,120.2119Z" style="fill: #378f00"/>
        <path d="M230.8936,129.7178l4.2138.1933s-1.9111-4.2734,0-11.4043C230.5205,124.6191,230.8936,129.7178,230.8936,129.7178Z" style="fill: #378f00"/>
      </g>
      <g>
        <g>
          <path d="M277.6748,102.9248c-1.8379-1.01-3.43.917-3.11,2.5762a4.8153,4.8153,0,0,0,2.7314,3.24c.5117.1611.8682-.1631,1.4414-.2705s1.0244.0645,1.4414-.2715a4.7711,4.7711,0,0,0,1.3457-4.0058C281.2051,102.5342,279.0078,101.3184,277.6748,102.9248Z" style="fill: #ff1c1c"/>
          <path d="M279.752,102.7988c-.1387.1241-.0694.3662.1552.541a.5643.5643,0,0,0,.6592.0918c.14-.124.0693-.3662-.1553-.541A.5643.5643,0,0,0,279.752,102.7988Z" style="fill: #ffeb7a"/>
          <polygon points="276.54 101.317 277.675 102.925 277.172 100.988 276.54 101.317" style="fill: #663f30"/>
          <path d="M277.69,102.91c1.3-.0176,1.5751-2.0909,1.5751-2.0909S277.2266,101.2051,277.69,102.91Z" style="fill: #66c30f"/>
        </g>
        <g>
          <path d="M284.7881,102.918c-1.8154-1.05-3.4483.8437-3.1651,2.5088a4.8167,4.8167,0,0,0,2.6612,3.2978c.5088.1719.8721-.1445,1.4472-.24s1.0235.0869,1.4463-.2393a4.7733,4.7733,0,0,0,1.4327-3.9765C288.3262,102.6035,286.1563,101.3408,284.7881,102.918Z" style="fill: #ff1c1c"/>
          <path d="M286.8682,102.8369c-.1426.1211-.0782.3643.1435.544a.564.564,0,0,0,.6572.1054c.1416-.1211.0772-.3642-.1435-.5439A.5642.5642,0,0,0,286.8682,102.8369Z" style="fill: #ffeb7a"/>
          <polygon points="283.688 101.286 284.788 102.918 284.327 100.971 283.688 101.286" style="fill: #663f30"/>
          <path d="M284.8037,102.9023c1.2988.0108,1.6192-2.0556,1.6192-2.0556S284.377,101.1885,284.8037,102.9023Z" style="fill: #66c30f"/>
        </g>
        <g>
          <path d="M292.3506,102.8975c-1.49-1.4746-3.55-.0567-3.6973,1.6259a4.8142,4.8142,0,0,0,1.7383,3.8643c.4482.2949.88.0811,1.4609.1348s.9678.3427,1.46.1347a4.7723,4.7723,0,0,0,2.3926-3.4843C295.8535,103.49,294.0732,101.7188,292.3506,102.8975Z" style="fill: #ff1c1c"/>
          <path d="M294.3828,103.3467c-.168.081-.167.333.001.5625s.4414.3506.6094.27.167-.333-.002-.5635S294.5508,103.2656,294.3828,103.3467Z" style="fill: #ffeb7a"/>
          <polygon points="292.351 102.897 292.398 100.897 291.7 101.042 292.351 102.897" style="fill: #663f30"/>
          <path d="M292.3691,102.8877c1.2539.34,2.087-1.5781,2.087-1.5781S292.3906,101.1211,292.3691,102.8877Z" style="fill: #66c30f"/>
        </g>
        <g>
          <path d="M299.667,102.9316c-1.3018-1.6435-3.5166-.4834-3.8652,1.169a4.816,4.816,0,0,0,1.2617,4.0459c.4092.3457.8633.1855,1.4336.3086s.92.457,1.4336.3095a4.7734,4.7734,0,0,0,2.7939-3.1718C303.0732,103.94,301.52,101.9678,299.667,102.9316Z" style="fill: #ff1c1c"/>
          <path d="M301.6309,103.6211c-.1758.0605-.2061.3105-.0664.5586s.3955.4.5722.34.2061-.31.0664-.5586S301.8076,103.5605,301.6309,103.6211Z" style="fill: #ffeb7a"/>
          <polygon points="299.667 102.932 299.955 100.951 299.245 101.011 299.667 102.932" style="fill: #663f30"/>
          <path d="M299.6875,102.9229c1.2041.4882,2.2607-1.3155,2.2607-1.3155S299.9209,101.1729,299.6875,102.9229Z" style="fill: #66c30f"/>
        </g>
        <rect x="274.1777" y="116.0508" width="28.7989" height="4.6142" style="fill: #b58545"/>
        <rect x="274.1777" y="120.665" width="28.7989" height="4.6143" style="fill: #de9c43"/>
        <rect x="274.1777" y="106.874" width="28.7989" height="4.6153" style="fill: #de9c43"/>
        <rect x="274.1777" y="111.4355" width="28.7989" height="4.6153" style="fill: #ffbc61"/>
        <rect x="273.0479" y="125.2363" width="30.8701" height="1.7774" style="fill: #6b3320"/>
        <rect x="273.0479" y="105.1064" width="30.8701" height="1.7774" style="fill: #6b3320"/>
        <path d="M301.1631,108.1865a.9952.9952,0,1,0,.9951.9951A.9948.9948,0,0,0,301.1631,108.1865Z" style="fill: #bfbfbf"/>
        <path d="M301.0645,112.9688a.8252.8252,0,1,0,.8251.8251A.8254.8254,0,0,0,301.0645,112.9688Z" style="fill: #d1933f"/>
        <path d="M301.0645,117.4316a.9439.9439,0,1,0,.9443.9444A.9442.9442,0,0,0,301.0645,117.4316Z" style="fill: #bfbfbf"/>
        <path d="M301.1631,122.1553a.8169.8169,0,1,0,.8164.8174A.8177.8177,0,0,0,301.1631,122.1553Z" style="fill: #a67432"/>
        <g>
          <rect x="276.6504" y="110.1768" width="13.956" height="7.2548" style="fill: #dedede"/>
          <rect x="278.1602" y="111.4434" width="7.6474" height="0.9824" style="fill: #b8b8b8"/>
          <rect x="278.1602" y="113.3027" width="7.6474" height="0.9825" style="fill: #b8b8b8"/>
          <rect x="278.1602" y="115.0674" width="11.4209" height="0.9834" style="fill: #b8b8b8"/>
          <rect x="286.7637" y="110.8672" width="3.1562" height="3.6748" style="fill: #fff"/>
          <g>
            <path d="M288.37,111.9326a.7877.7877,0,0,0-1.2793.6348,1.7033,1.7033,0,0,0,.6778,1.3369c.163.0967.3125.0137.5185.0234s.3477.1055.5186.0235a1.691,1.691,0,0,0,.7881-1.27C289.6182,112.084,288.96,111.4873,288.37,111.9326Z" style="fill: #ff1c1c"/>
            <path d="M289.0957,112.0576c-.0576.0313-.0537.12.01.1983s.1621.1162.22.0849.0537-.12-.01-.1982S289.1533,112.0254,289.0957,112.0576Z" style="fill: #ffeb7a"/>
            <polygon points="288.11 111.287 288.37 111.933 288.354 111.225 288.11 111.287" style="fill: #663f30"/>
            <path d="M288.377,111.9287c.4482.0986.7109-.5928.7109-.5928S288.3555,111.3037,288.377,111.9287Z" style="fill: #66c30f"/>
          </g>
        </g>
      </g>
      <g>
        <rect y="134.9385" width="450" height="15.0615" style="fill: #582a00"/>
        <path d="M8.7764,137.542c-1.4649,0-2.6524.79-2.6524,1.7646s1.1875,1.7647,2.6524,1.7647,2.6523-.79,2.6523-1.7647S10.2412,137.542,8.7764,137.542Z" style="fill: #33190f"/>
        <path d="M50.4448,137.542c-1.4653,0-2.6528.79-2.6528,1.7646s1.1875,1.7647,2.6528,1.7647,2.6519-.79,2.6519-1.7647S51.9092,137.542,50.4448,137.542Z" style="fill: #33190f"/>
        <path d="M83.9326,144.8994c-1.4648,0-2.6523.79-2.6523,1.7647s1.1875,1.7636,2.6523,1.7636,2.6524-.789,2.6524-1.7636S85.3975,144.8994,83.9326,144.8994Z" style="fill: #33190f"/>
        <path d="M123.5376,137.3877c-1.4653,0-2.6528.79-2.6528,1.7646s1.1875,1.7647,2.6528,1.7647,2.6519-.79,2.6519-1.7647S125.002,137.3877,123.5376,137.3877Z" style="fill: #33190f"/>
        <path d="M175.835,144.8994c-1.4649,0-2.6524.79-2.6524,1.7647s1.1875,1.7636,2.6524,1.7636,2.6523-.789,2.6523-1.7636S177.3,144.8994,175.835,144.8994Z" style="fill: #33190f"/>
        <path d="M15.1206,145.1309c-1.1147,0-2.0185.6005-2.0185,1.3427s.9038,1.3428,2.0185,1.3428,2.019-.6016,2.019-1.3428S16.2358,145.1309,15.1206,145.1309Z" style="fill: #33190f"/>
        <path d="M41.1162,142.6348c-1.1147,0-2.0185.6015-2.0185,1.3427s.9038,1.3428,2.0185,1.3428,2.0191-.6006,2.0191-1.3428S42.2314,142.6348,41.1162,142.6348Z" style="fill: #33190f"/>
        <path d="M76.2871,139.1523c-1.1152,0-2.019.6006-2.019,1.3428s.9038,1.3428,2.019,1.3428,2.0186-.6016,2.0186-1.3428S77.4019,139.1523,76.2871,139.1523Z" style="fill: #33190f"/>
        <path d="M116.1875,143.9775c-1.1152,0-2.019.6016-2.019,1.3428s.9038,1.3438,2.019,1.3438,2.0186-.6016,2.0186-1.3438S117.3022,143.9775,116.1875,143.9775Z" style="fill: #33190f"/>
        <path d="M156.0151,141.6475c-1.1152,0-2.019.6015-2.019,1.3437s.9038,1.3428,2.019,1.3428,2.0186-.6016,2.0186-1.3428S157.13,141.6475,156.0151,141.6475Z" style="fill: #33190f"/>
        <path d="M23.438,139.1523c-1.5933,0-2.8853.8594-2.8853,1.919s1.292,1.92,2.8853,1.92,2.8852-.8594,2.8852-1.92S25.0313,139.1523,23.438,139.1523Z" style="fill: #33190f"/>
        <path d="M58.1494,143.9775c-1.5937,0-2.8852.8594-2.8852,1.92s1.2915,1.9189,2.8852,1.9189,2.8848-.8594,2.8848-1.9189S59.7427,143.9775,58.1494,143.9775Z" style="fill: #33190f"/>
        <path d="M96.3193,139.1523c-1.5937,0-2.8852.8594-2.8852,1.919s1.2915,1.92,2.8852,1.92,2.8848-.8594,2.8848-1.92S97.9126,139.1523,96.3193,139.1523Z" style="fill: #33190f"/>
        <path d="M134.2412,143.9775c-1.5933,0-2.8848.8594-2.8848,1.92s1.2915,1.9189,2.8848,1.9189,2.8853-.8594,2.8853-1.9189S135.835,143.9775,134.2412,143.9775Z" style="fill: #33190f"/>
        <path d="M174,137.2324c-1.5937,0-2.8852.8594-2.8852,1.92s1.2915,1.919,2.8852,1.919,2.8848-.8594,2.8848-1.919S175.5928,137.2324,174,137.2324Z" style="fill: #33190f"/>
        <path d="M197.7764,137.542c-1.4649,0-2.6524.79-2.6524,1.7646s1.1875,1.7647,2.6524,1.7647,2.6523-.79,2.6523-1.7647S199.2412,137.542,197.7764,137.542Z" style="fill: #33190f"/>
        <path d="M239.4443,137.542c-1.4648,0-2.6523.79-2.6523,1.7646s1.1875,1.7647,2.6523,1.7647,2.6524-.79,2.6524-1.7647S240.9092,137.542,239.4443,137.542Z" style="fill: #33190f"/>
        <path d="M272.9326,144.8994c-1.4648,0-2.6523.79-2.6523,1.7647s1.1875,1.7636,2.6523,1.7636,2.6524-.789,2.6524-1.7636S274.3975,144.8994,272.9326,144.8994Z" style="fill: #33190f"/>
        <path d="M312.5371,137.3877c-1.4648,0-2.6523.79-2.6523,1.7646s1.1875,1.7647,2.6523,1.7647,2.6524-.79,2.6524-1.7647S314.002,137.3877,312.5371,137.3877Z" style="fill: #33190f"/>
        <path d="M364.835,144.8994c-1.4649,0-2.6524.79-2.6524,1.7647s1.1875,1.7636,2.6524,1.7636,2.6523-.789,2.6523-1.7636S366.3,144.8994,364.835,144.8994Z" style="fill: #33190f"/>
        <path d="M204.1206,145.1309c-1.1147,0-2.0185.6005-2.0185,1.3427s.9038,1.3428,2.0185,1.3428,2.019-.6016,2.019-1.3428S205.2358,145.1309,204.1206,145.1309Z" style="fill: #33190f"/>
        <path d="M188.127,141.292c-1.1148,0-2.0186.6016-2.0186,1.3428s.9038,1.3427,2.0186,1.3427,2.019-.6,2.019-1.3427S189.2422,141.292,188.127,141.292Z" style="fill: #33190f"/>
        <path d="M230.1162,142.6348c-1.1142,0-2.0185.6015-2.0185,1.3427s.9043,1.3428,2.0185,1.3428,2.0186-.6006,2.0186-1.3428S231.2314,142.6348,230.1162,142.6348Z" style="fill: #33190f"/>
        <path d="M265.2871,139.1523c-1.1152,0-2.0185.6006-2.0185,1.3428s.9033,1.3428,2.0185,1.3428,2.0186-.6016,2.0186-1.3428S266.4014,139.1523,265.2871,139.1523Z" style="fill: #33190f"/>
        <path d="M305.1875,143.9775c-1.1152,0-2.0186.6016-2.0186,1.3428s.9034,1.3438,2.0186,1.3438,2.0186-.6016,2.0186-1.3438S306.3018,143.9775,305.1875,143.9775Z" style="fill: #33190f"/>
        <path d="M345.0146,141.6475c-1.1142,0-2.0185.6015-2.0185,1.3437s.9043,1.3428,2.0185,1.3428,2.0186-.6016,2.0186-1.3428S346.13,141.6475,345.0146,141.6475Z" style="fill: #33190f"/>
        <path d="M212.438,139.1523c-1.5933,0-2.8853.8594-2.8853,1.919s1.292,1.92,2.8853,1.92,2.8852-.8594,2.8852-1.92S214.0313,139.1523,212.438,139.1523Z" style="fill: #33190f"/>
        <path d="M247.1494,143.9775c-1.5937,0-2.8848.8594-2.8848,1.92s1.2911,1.9189,2.8848,1.9189,2.8848-.8594,2.8848-1.9189S248.7432,143.9775,247.1494,143.9775Z" style="fill: #33190f"/>
        <path d="M285.3193,139.1523c-1.5937,0-2.8857.8594-2.8857,1.919s1.292,1.92,2.8857,1.92,2.8848-.8594,2.8848-1.92S286.9121,139.1523,285.3193,139.1523Z" style="fill: #33190f"/>
        <path d="M323.2412,143.9775c-1.5928,0-2.8848.8594-2.8848,1.92s1.292,1.9189,2.8848,1.9189,2.8858-.8594,2.8858-1.9189S324.835,143.9775,323.2412,143.9775Z" style="fill: #33190f"/>
        <path d="M362.999,137.2324c-1.5927,0-2.8847.8594-2.8847,1.92s1.292,1.919,2.8847,1.919,2.8858-.8594,2.8858-1.919S364.5928,137.2324,362.999,137.2324Z" style="fill: #33190f"/>
        <path d="M377.0244,141.0713c-1.5937,0-2.8848.8594-2.8848,1.92s1.2911,1.919,2.8848,1.919,2.8848-.8594,2.8848-1.919S378.6172,141.0713,377.0244,141.0713Z" style="fill: #33190f"/>
        <path d="M388.7764,137.542c-1.4649,0-2.6524.79-2.6524,1.7646s1.1875,1.7647,2.6524,1.7647,2.6523-.79,2.6523-1.7647S390.2412,137.542,388.7764,137.542Z" style="fill: #33190f"/>
        <path d="M430.4443,137.542c-1.4648,0-2.6523.79-2.6523,1.7646s1.1875,1.7647,2.6523,1.7647,2.6524-.79,2.6524-1.7647S431.9092,137.542,430.4443,137.542Z" style="fill: #33190f"/>
        <path d="M395.1211,145.1309c-1.1152,0-2.0186.6005-2.0186,1.3427s.9034,1.3428,2.0186,1.3428,2.0185-.6016,2.0185-1.3428S396.2354,145.1309,395.1211,145.1309Z" style="fill: #33190f"/>
        <path d="M421.1162,142.6348c-1.1142,0-2.0185.6015-2.0185,1.3427s.9043,1.3428,2.0185,1.3428,2.0186-.6006,2.0186-1.3428S422.2314,142.6348,421.1162,142.6348Z" style="fill: #33190f"/>
        <path d="M403.4385,139.1523c-1.5938,0-2.8858.8594-2.8858,1.919s1.292,1.92,2.8858,1.92,2.8847-.8594,2.8847-1.92S405.0313,139.1523,403.4385,139.1523Z" style="fill: #33190f"/>
        <path d="M438.1494,143.9775c-1.5937,0-2.8848.8594-2.8848,1.92s1.2911,1.9189,2.8848,1.9189,2.8848-.8594,2.8848-1.9189S439.7422,143.9775,438.1494,143.9775Z" style="fill: #33190f"/>
      </g>
      <path d="M229.5205,17.7607a6.4074,6.4074,0,0,0-12.7163-.0459,4.696,4.696,0,0,0-4.46,4.6875v.0948a4.7,4.7,0,0,0,4.6992,4.7H228.82a4.7,4.7,0,0,0,4.6992-4.7v-.0948A4.6954,4.6954,0,0,0,229.5205,17.7607Z" style="fill: #fff"/>
      <path d="M180.7266,32.8184a4.1974,4.1974,0,0,0-8.3306-.03,3.0763,3.0763,0,0,0-2.9214,3.0713v.0615A3.0791,3.0791,0,0,0,172.5532,39h7.7149a3.08,3.08,0,0,0,3.0791-3.0791v-.0615A3.0761,3.0761,0,0,0,180.7266,32.8184Z" style="fill: #fff"/>
      <path d="M380.3271,16.0049a6.0573,6.0573,0,0,0-12.0214-.043,4.44,4.44,0,0,0-4.2159,4.4317v.09a4.4431,4.4431,0,0,0,4.4434,4.4424H379.665a4.4428,4.4428,0,0,0,4.4424-4.4424v-.09A4.44,4.44,0,0,0,380.3271,16.0049Z" style="fill: #fff"/>
      <path d="M422.8281,30.7871a4.5456,4.5456,0,0,0-9.0215-.0322,3.3316,3.3316,0,0,0-3.165,3.3252v.0674a3.335,3.335,0,0,0,3.335,3.3349h8.3545a3.3349,3.3349,0,0,0,3.3349-3.3349V34.08A3.3319,3.3319,0,0,0,422.8281,30.7871Z" style="fill: #fff"/>
    </g>
  </g>
</svg>
